<?xml version="1.0" encoding="iso-8859-1"?>
<!-- Generator: Adobe Illustrator 19.0.0, SVG Export Plug-In . SVG Version: 6.00 Build 0)  -->
<svg version="1.1" id="Layer_1" xmlns="http://www.w3.org/2000/svg" xmlns:xlink="http://www.w3.org/1999/xlink" x="0px" y="0px"
	 viewBox="0 0 512 512" style="enable-background:new 0 0 512 512;" xml:space="preserve">
<g>
	<g>
		<g fill="#06c">
			<path d="M179.2,341.333c-2.475,0-9.472-7.68-14.106-12.774c-13.935-15.3-34.995-38.426-71.228-38.426
				c-35.268,0-42.667,9.276-42.667,17.067c0,4.71,3.814,8.533,8.533,8.533c3.447,0,6.426-2.048,7.765-4.992
				c1.681-0.93,8.055-3.541,26.368-3.541c28.689,0,45.286,18.219,58.607,32.853c9.335,10.249,16.708,18.347,26.726,18.347h110.933
				c4.719,0,8.533-3.823,8.533-8.533s-3.814-8.533-8.533-8.533H179.2z"/>
			<path d="M201.267,67.499c0.922,1.69,3.533,8.055,3.533,26.368c0,28.689-18.219,45.278-32.862,58.607
				C161.69,161.809,153.6,169.182,153.6,179.2v110.933c0,4.71,3.814,8.533,8.533,8.533s8.533-3.823,8.533-8.533V179.2
				c0-2.475,7.68-9.472,12.766-14.106c15.309-13.935,38.434-34.995,38.434-71.228c0-35.26-9.284-42.667-17.067-42.667
				c-4.719,0-8.533,3.823-8.533,8.533C196.267,63.181,198.315,66.159,201.267,67.499z"/>
			<path d="M0,162.133c0,4.71,3.814,8.533,8.533,8.533h41.421c0.708,3.243,1.246,6.238,1.246,8.533v85.333
				c0,4.71,3.814,8.533,8.533,8.533s8.533-3.823,8.533-8.533V179.2c0-8.96-3.533-20.361-7.629-33.562
				C56.218,131.371,51.2,115.2,51.2,102.4V25.6c0-4.702,3.823-8.533,8.533-8.533s8.533,3.831,8.533,8.533
				c0,4.71,3.814,8.533,8.533,8.533s8.533-3.823,8.533-8.533c0-4.702,3.823-8.533,8.533-8.533c4.71,0,8.533,3.831,8.533,8.533
				c0,4.71,3.814,8.533,8.533,8.533s8.533-3.823,8.533-8.533c0-4.702,3.823-8.533,8.533-8.533s8.533,3.831,8.533,8.533
				c0,4.71,3.814,8.533,8.533,8.533S153.6,30.31,153.6,25.6c0-4.702,3.823-8.533,8.533-8.533c4.71,0,8.533,3.831,8.533,8.533v68.267
				c0,4.71,3.814,8.533,8.533,8.533s8.533-3.823,8.533-8.533V25.6c0-14.114-11.486-25.6-25.6-25.6
				c-6.554,0-12.535,2.475-17.067,6.537C140.535,2.475,134.554,0,128,0s-12.535,2.475-17.067,6.537C106.402,2.475,100.42,0,93.867,0
				C87.313,0,81.331,2.475,76.8,6.537C72.269,2.475,66.287,0,59.733,0c-14.114,0-25.6,11.486-25.6,25.6v25.6h-25.6
				C3.814,51.2,0,55.023,0,59.733s3.814,8.533,8.533,8.533h25.6V102.4c0,15.386,5.427,32.87,10.206,48.299
				c0.307,0.981,0.597,1.929,0.896,2.901H8.533C3.814,153.6,0,157.423,0,162.133z"/>
			<path d="M346.906,183.441c13.935,15.3,34.995,38.426,71.228,38.426c35.268,0,42.667-9.276,42.667-17.067
				c0-4.71-3.814-8.533-8.533-8.533c-3.447,0-6.426,2.048-7.765,4.992c-1.681,0.93-8.055,3.541-26.368,3.541
				c-28.689,0-45.286-18.219-58.607-32.853c-9.336-10.249-16.708-18.347-26.726-18.347H221.867c-4.719,0-8.533,3.823-8.533,8.533
				c0,4.71,3.814,8.533,8.533,8.533H332.8C335.275,170.667,342.272,178.347,346.906,183.441z"/>
			<path d="M264.533,443.733H179.2c-8.969,0-20.369,3.533-33.562,7.629c-14.259,4.42-30.438,9.438-43.238,9.438H25.6
				c-4.71,0-8.533-3.831-8.533-8.533c0-4.702,3.823-8.533,8.533-8.533c4.719,0,8.533-3.823,8.533-8.533s-3.814-8.533-8.533-8.533
				c-4.71,0-8.533-3.831-8.533-8.533S20.89,409.6,25.6,409.6c4.719,0,8.533-3.823,8.533-8.533s-3.814-8.533-8.533-8.533
				c-4.71,0-8.533-3.831-8.533-8.533c0-4.702,3.823-8.533,8.533-8.533c4.719,0,8.533-3.823,8.533-8.533S30.319,358.4,25.6,358.4
				c-4.71,0-8.533-3.831-8.533-8.533s3.823-8.533,8.533-8.533h68.267c4.719,0,8.533-3.823,8.533-8.533
				c0-4.71-3.814-8.533-8.533-8.533H25.6c-14.114,0-25.6,11.486-25.6,25.6c0,6.554,2.475,12.535,6.537,17.067
				C2.475,371.465,0,377.446,0,384c0,6.554,2.475,12.536,6.537,17.067C2.475,405.598,0,411.58,0,418.133
				c0,6.554,2.475,12.535,6.537,17.067C2.475,439.731,0,445.713,0,452.267c0,14.114,11.486,25.6,25.6,25.6h25.6v25.6
				c0,4.71,3.814,8.533,8.533,8.533s8.533-3.823,8.533-8.533v-25.6H102.4c15.386,0,32.87-5.419,48.29-10.206
				c0.99-0.307,1.937-0.589,2.91-0.887v36.693c0,4.71,3.814,8.533,8.533,8.533s8.533-3.823,8.533-8.533v-41.421
				c3.251-0.717,6.238-1.246,8.533-1.246h85.333c4.719,0,8.533-3.823,8.533-8.533C273.067,447.556,269.252,443.733,264.533,443.733z
				"/>
			<path d="M505.464,76.8C509.525,72.269,512,66.287,512,59.733c0-14.114-11.486-25.6-25.6-25.6h-25.6v-25.6
				c0-4.71-3.814-8.533-8.533-8.533c-4.719,0-8.533,3.823-8.533,8.533v25.6H409.6c-15.386,0-32.87,5.419-48.29,10.206
				c-0.99,0.307-1.937,0.589-2.91,0.887V8.533c0-4.71-3.814-8.533-8.533-8.533s-8.533,3.823-8.533,8.533v41.421
				c-3.251,0.717-6.238,1.246-8.533,1.246h-85.333c-4.719,0-8.533,3.823-8.533,8.533s3.814,8.533,8.533,8.533H332.8
				c8.969,0,20.369-3.533,33.562-7.629C380.621,56.218,396.8,51.2,409.6,51.2h76.8c4.71,0,8.533,3.831,8.533,8.533
				s-3.823,8.533-8.533,8.533c-4.719,0-8.533,3.823-8.533,8.533s3.814,8.533,8.533,8.533c4.71,0,8.533,3.831,8.533,8.533
				c0,4.702-3.823,8.533-8.533,8.533c-4.719,0-8.533,3.823-8.533,8.533s3.814,8.533,8.533,8.533c4.71,0,8.533,3.831,8.533,8.533
				s-3.823,8.533-8.533,8.533c-4.719,0-8.533,3.823-8.533,8.533c0,4.71,3.814,8.533,8.533,8.533c4.71,0,8.533,3.831,8.533,8.533
				c0,4.702-3.823,8.533-8.533,8.533h-68.267c-4.719,0-8.533,3.823-8.533,8.533s3.814,8.533,8.533,8.533H486.4
				c14.114,0,25.6-11.486,25.6-25.6c0-6.554-2.475-12.535-6.536-17.067C509.525,140.535,512,134.554,512,128
				s-2.475-12.535-6.536-17.067c4.062-4.531,6.536-10.513,6.536-17.067C512,87.313,509.525,81.331,505.464,76.8z"/>
			<path d="M310.733,444.501c-0.922-1.69-3.533-8.055-3.533-26.368c0-28.689,18.219-45.278,32.862-58.607
				c10.249-9.336,18.338-16.708,18.338-26.726V221.867c0-4.71-3.814-8.533-8.533-8.533s-8.533,3.823-8.533,8.533V332.8
				c0,2.475-7.68,9.472-12.766,14.106c-15.309,13.935-38.434,34.995-38.434,71.228c0,35.26,9.284,42.667,17.067,42.667
				c4.719,0,8.533-3.823,8.533-8.533C315.733,448.819,313.685,445.841,310.733,444.501z"/>
			<path d="M512,349.867c0-4.71-3.814-8.533-8.533-8.533h-41.421c-0.708-3.243-1.246-6.238-1.246-8.533v-85.333
				c0-4.71-3.814-8.533-8.533-8.533c-4.719,0-8.533,3.823-8.533,8.533V332.8c0,8.96,3.533,20.361,7.629,33.562
				c4.42,14.268,9.438,30.438,9.438,43.238v76.8c0,4.702-3.823,8.533-8.533,8.533c-4.71,0-8.533-3.831-8.533-8.533
				c0-4.71-3.814-8.533-8.533-8.533s-8.533,3.823-8.533,8.533c0,4.702-3.823,8.533-8.533,8.533s-8.533-3.831-8.533-8.533
				c0-4.71-3.814-8.533-8.533-8.533c-4.719,0-8.533,3.823-8.533,8.533c0,4.702-3.823,8.533-8.533,8.533s-8.533-3.831-8.533-8.533
				c0-4.71-3.814-8.533-8.533-8.533s-8.533,3.823-8.533,8.533c0,4.702-3.823,8.533-8.533,8.533s-8.533-3.831-8.533-8.533v-68.267
				c0-4.71-3.814-8.533-8.533-8.533c-4.719,0-8.533,3.823-8.533,8.533V486.4c0,14.114,11.486,25.6,25.6,25.6
				c6.554,0,12.535-2.475,17.067-6.536C371.465,509.525,377.446,512,384,512c6.554,0,12.536-2.475,17.067-6.536
				c4.531,4.062,10.513,6.536,17.067,6.536c6.554,0,12.535-2.475,17.067-6.536c4.531,4.062,10.513,6.536,17.067,6.536
				c14.114,0,25.6-11.486,25.6-25.6v-25.6h25.6c4.719,0,8.533-3.823,8.533-8.533c0-4.71-3.814-8.533-8.533-8.533h-25.6V409.6
				c0-15.386-5.427-32.87-10.206-48.299c-0.307-0.981-0.597-1.929-0.896-2.901h36.702C508.186,358.4,512,354.577,512,349.867z"/>
		</g>
	</g>
</g>
<g>
</g>
<g>
</g>
<g>
</g>
<g>
</g>
<g>
</g>
<g>
</g>
<g>
</g>
<g>
</g>
<g>
</g>
<g>
</g>
<g>
</g>
<g>
</g>
<g>
</g>
<g>
</g>
<g>
</g>
</svg>
