<?xml version="1.0" encoding="iso-8859-1"?>
<!-- Generator: Adobe Illustrator 19.0.0, SVG Export Plug-In . SVG Version: 6.00 Build 0)  -->
<svg version="1.1" id="Layer_1" xmlns="http://www.w3.org/2000/svg" xmlns:xlink="http://www.w3.org/1999/xlink" x="0px" y="0px"
	 viewBox="0 0 512 512" style="enable-background:new 0 0 512 512;" xml:space="preserve">
<g>
	<g>
		<g fill="#06c">
			<path d="M287.633,463.3c-3.337-3.337-8.73-3.337-12.066,0c-3.337,3.336-3.337,8.73,0,12.066L309.7,509.5
				c1.664,1.664,3.849,2.5,6.033,2.5c2.185,0,4.369-0.836,6.033-2.5c3.337-3.336,3.337-8.73,0-12.066L287.633,463.3z"/>
			<path d="M366.933,221.867c23.526,0,42.667-19.14,42.667-42.667s-19.14-42.667-42.667-42.667s-42.667,19.14-42.667,42.667
				S343.407,221.867,366.933,221.867z M366.933,153.6c14.114,0,25.6,11.486,25.6,25.6s-11.486,25.6-25.6,25.6
				s-25.6-11.486-25.6-25.6S352.819,153.6,366.933,153.6z"/>
			<path d="M256,409.6c-4.719,0-8.533,3.823-8.533,8.533v22.067l-57.233,57.233c-3.336,3.337-3.336,8.73,0,12.066
				c1.664,1.664,3.849,2.5,6.033,2.5c2.185,0,4.369-0.836,6.033-2.5l59.733-59.733c1.604-1.596,2.5-3.772,2.5-6.033v-25.6
				C264.533,413.423,260.719,409.6,256,409.6z"/>
			<path d="M503.467,17.067H264.533V8.533C264.533,3.823,260.719,0,256,0s-8.533,3.823-8.533,8.533v8.533H8.533
				C3.814,17.067,0,20.89,0,25.6v34.133c0,4.71,3.814,8.533,8.533,8.533h443.733c4.719,0,8.533-3.823,8.533-8.533
				s-3.814-8.533-8.533-8.533h-435.2V34.133h477.867V51.2H486.4c-4.719,0-8.533,3.823-8.533,8.533v290.133
				c0,14.114-11.486,25.6-25.6,25.6H59.733c-14.114,0-25.6-11.486-25.6-25.6v-256c0-4.71-3.814-8.533-8.533-8.533
				s-8.533,3.823-8.533,8.533v256c0,23.526,19.14,42.667,42.667,42.667h392.533c23.526,0,42.667-19.14,42.667-42.667v-281.6h8.533
				c4.719,0,8.533-3.823,8.533-8.533V25.6C512,20.89,508.186,17.067,503.467,17.067z"/>
			<path d="M304.7,275.567c-3.337-3.337-8.73-3.337-12.066,0c-3.337,3.336-3.337,8.73,0,12.066l11.034,11.034L292.634,309.7
				c-3.337,3.337-3.337,8.73,0,12.066c1.664,1.664,3.849,2.5,6.033,2.5c2.185,0,4.369-0.836,6.033-2.5l11.034-11.034l11.034,11.034
				c1.664,1.664,3.849,2.5,6.033,2.5c2.185,0,4.369-0.836,6.033-2.5c3.337-3.337,3.337-8.73,0-12.066l-11.034-11.034l11.034-11.034
				c3.337-3.337,3.337-8.73,0-12.066c-3.336-3.337-8.73-3.337-12.066,0l-11.034,11.034L304.7,275.567z"/>
			<path d="M119.825,274.526c-10.095,3.43-17.425,12.902-17.425,24.141c0,14.114,11.486,25.6,25.6,25.6s25.6-11.486,25.6-25.6
				c0-10.982-6.98-20.292-16.717-23.919c3.533-48.563,44.075-87.014,93.517-87.014h47.667L258.5,207.3
				c-3.336,3.337-3.336,8.73,0,12.066c1.664,1.664,3.849,2.5,6.033,2.5c2.185,0,4.369-0.836,6.033-2.5l34.125-34.125
				c0.794-0.794,1.417-1.732,1.852-2.782c0.862-2.082,0.862-4.437,0-6.519c-0.435-1.05-1.058-1.988-1.852-2.773l-34.125-34.133
				c-3.337-3.337-8.73-3.337-12.066,0c-3.336,3.336-3.336,8.73,0,12.066l19.567,19.567H230.4
				C171.614,170.667,123.503,216.653,119.825,274.526z M128,307.2c-4.71,0-8.533-3.831-8.533-8.533s3.823-8.533,8.533-8.533
				s8.533,3.831,8.533,8.533S132.71,307.2,128,307.2z"/>
			<path d="M87.834,168.166c1.664,1.664,3.849,2.5,6.033,2.5c2.185,0,4.369-0.836,6.033-2.5l11.034-11.034l11.034,11.034
				c1.664,1.664,3.849,2.5,6.033,2.5s4.369-0.836,6.033-2.5c3.337-3.337,3.337-8.73,0-12.066l-11.034-11.034l11.034-11.034
				c3.337-3.337,3.337-8.73,0-12.066c-3.337-3.336-8.73-3.336-12.066,0l-11.034,11.034L99.9,121.967
				c-3.336-3.336-8.73-3.336-12.066,0c-3.337,3.337-3.337,8.73,0,12.066l11.034,11.034L87.834,156.1
				C84.497,159.437,84.497,164.83,87.834,168.166z"/>
		</g>
	</g>
</g>
<g>
</g>
<g>
</g>
<g>
</g>
<g>
</g>
<g>
</g>
<g>
</g>
<g>
</g>
<g>
</g>
<g>
</g>
<g>
</g>
<g>
</g>
<g>
</g>
<g>
</g>
<g>
</g>
<g>
</g>
</svg>
