<?xml version="1.0" encoding="iso-8859-1"?>
<!-- Generator: Adobe Illustrator 19.0.0, SVG Export Plug-In . SVG Version: 6.00 Build 0)  -->
<svg version="1.1" id="Layer_1" xmlns="http://www.w3.org/2000/svg" xmlns:xlink="http://www.w3.org/1999/xlink" x="0px" y="0px"
	 viewBox="0 0 512 512" style="enable-background:new 0 0 512 512;" xml:space="preserve">
<g>
	<g>
		<g fill="#06c">
			<path d="M332.8,119.467c4.719,0,8.533-3.823,8.533-8.533V42.667c0-4.71-3.814-8.533-8.533-8.533H179.2
				c-4.71,0-8.533,3.823-8.533,8.533v68.267c0,4.71,3.823,8.533,8.533,8.533s8.533-3.823,8.533-8.533V51.2h136.533v59.733
				C324.267,115.644,328.081,119.467,332.8,119.467z"/>
			<path d="M494.933,136.533H17.067C7.654,136.533,0,144.188,0,153.6v85.333C0,248.346,7.654,256,17.067,256H179.2
				c4.71,0,8.533-3.823,8.533-8.533s-3.823-8.533-8.533-8.533H17.067V153.6h477.867v85.333H486.4c-4.719,0-8.533,3.823-8.533,8.533
				v221.867c0,14.114-11.486,25.6-25.6,25.6H59.733c-14.114,0-25.6-11.486-25.6-25.6V281.6c0-4.71-3.823-8.533-8.533-8.533
				c-4.71,0-8.533,3.823-8.533,8.533v187.733c0,23.526,19.14,42.667,42.667,42.667h392.533c23.526,0,42.667-19.14,42.667-42.667V256
				c9.404,0,17.067-7.654,17.067-17.067V153.6C512,144.188,504.337,136.533,494.933,136.533z"/>
			<path d="M145.067,119.467c4.71,0,8.533-3.823,8.533-8.533V17.067h204.8v93.867c0,4.71,3.814,8.533,8.533,8.533
				s8.533-3.823,8.533-8.533V17.067C375.467,7.654,367.812,0,358.4,0H153.6c-9.412,0-17.067,7.654-17.067,17.067v93.867
				C136.533,115.644,140.356,119.467,145.067,119.467z"/>
			<path d="M409.6,281.6v187.733c0,4.71,3.814,8.533,8.533,8.533s8.533-3.823,8.533-8.533V281.6c0-4.71-3.814-8.533-8.533-8.533
				S409.6,276.89,409.6,281.6z"/>
			<path d="M102.4,469.333V281.6c0-4.71-3.823-8.533-8.533-8.533c-4.71,0-8.533,3.823-8.533,8.533v187.733
				c0,4.71,3.823,8.533,8.533,8.533C98.577,477.867,102.4,474.044,102.4,469.333z"/>
			<path d="M460.8,247.467c0-4.71-3.814-8.533-8.533-8.533H307.2c0-9.412-7.663-17.067-17.067-17.067h-68.267
				c-9.412,0-17.067,7.654-17.067,17.067V307.2c0,28.237,22.963,51.2,51.2,51.2s51.2-22.963,51.2-51.2V256h145.067
				C456.986,256,460.8,252.177,460.8,247.467z M290.133,307.2c0,18.825-15.309,34.133-34.133,34.133
				c-18.825,0-34.133-15.309-34.133-34.133v-68.267h68.267V307.2z"/>
			<path d="M256,324.267c9.412,0,17.067-7.654,17.067-17.067s-7.654-17.067-17.067-17.067c-9.412,0-17.067,7.654-17.067,17.067
				S246.588,324.267,256,324.267z"/>
		</g>
	</g>
</g>
<g>
</g>
<g>
</g>
<g>
</g>
<g>
</g>
<g>
</g>
<g>
</g>
<g>
</g>
<g>
</g>
<g>
</g>
<g>
</g>
<g>
</g>
<g>
</g>
<g>
</g>
<g>
</g>
<g>
</g>
</svg>
