<?xml version="1.0" encoding="UTF-8"?>
<svg width="336px" height="72px" viewBox="0 0 336 72" version="1.1" xmlns="http://www.w3.org/2000/svg" xmlns:xlink="http://www.w3.org/1999/xlink">
    <!-- Generator: Sketch 56.3 (81716) - https://sketch.com -->
    <title>logo</title>
    <desc>Created with Sketch.</desc>
    <g id="Layout" stroke="none" stroke-width="1" fill="none" fill-rule="evenodd">
        <g id="italia-Layout-Header" transform="translate(-109.000000, -70.000000)">
            <g id="header" transform="translate(109.000000, 62.000000)">
                <g id="logo" transform="translate(0.000000, 8.000000)">
                    <path d="M119.94966,32.3002629 L131.347054,4.20252 L136.01682,5.86464 L124.619426,33.9623829 L119.94966,32.3002629 Z M156.437151,4.91485714 L156.437151,32.6168571 L151.173771,32.6168571 L151.173771,31.7857971 C149.326962,32.6564358 147.730815,33.0917486 146.385283,33.0917486 C143.509537,33.0917486 141.50446,32.2606969 140.369991,30.5985686 C139.235523,28.9364403 138.668297,26.3047766 138.668297,22.7034986 C138.668297,19.1022206 139.347649,16.4771525 140.706373,14.8282157 C142.065097,13.1792789 144.116343,12.3548229 146.860174,12.3548229 C147.70443,12.3548229 148.878455,12.4867358 150.382286,12.7505657 L151.134197,12.9088629 L151.134197,4.91485714 L156.437151,4.91485714 Z M150.580157,27.8679429 L151.134197,27.74922 L151.134197,17.3411829 C149.683133,17.077353 148.390386,16.94544 147.255917,16.94544 C145.118895,16.94544 144.0504,18.8449867 144.0504,22.6441371 C144.0504,24.7020103 144.287843,26.1662442 144.762737,27.0368829 C145.237631,27.9075215 146.022513,28.3428343 147.117407,28.3428343 C148.212301,28.3428343 149.36654,28.1845387 150.580157,27.8679429 Z M165.697534,24.97902 C165.723917,26.1926375 166.047104,27.0698587 166.667104,27.61071 C167.287105,28.1515613 168.177517,28.4219829 169.338369,28.4219829 C171.791987,28.4219829 173.981742,28.3428351 175.9077,28.1845371 L177.01578,28.0658143 L177.094929,31.9836686 C174.060885,32.7223923 171.317095,33.0917486 168.863477,33.0917486 C165.882199,33.0917486 163.718827,32.3002708 162.373294,30.7172914 C161.027762,29.1343121 160.355006,26.5620092 160.355006,23.0003057 C160.355006,15.9032817 163.270282,12.3548229 169.100923,12.3548229 C174.852414,12.3548229 177.728117,15.3360559 177.728117,21.2986114 L177.332374,24.97902 L165.697534,24.97902 Z M172.504311,20.9424429 C172.504311,19.3594635 172.253677,18.2579902 171.7524,17.63799 C171.251123,17.0179898 170.373902,16.7079943 169.12071,16.7079943 C167.867518,16.7079943 166.983701,17.0311811 166.469233,17.6775643 C165.954765,18.3239475 165.684343,19.4122295 165.65796,20.9424429 L172.504311,20.9424429 Z M195.734417,17.7765 C192.462926,17.3543722 190.174237,17.1433114 188.868279,17.1433114 C187.562321,17.1433114 186.718078,17.2620331 186.335524,17.49948 C185.952971,17.7369269 185.761697,18.1128789 185.761697,18.6273471 C185.761697,19.1418154 186.018927,19.4979804 186.533396,19.6958529 C187.047864,19.8937253 188.366994,20.1839338 190.490824,20.5664871 C192.614655,20.9490405 194.125058,21.5756271 195.02208,22.4462657 C195.919102,23.3169044 196.367606,24.7283731 196.367606,26.6807143 C196.367606,30.9547585 193.716155,33.0917486 188.413174,33.0917486 C186.671897,33.0917486 184.56129,32.8543052 182.081289,32.3794114 L180.814911,32.1419657 L180.973209,27.7096457 C184.244699,28.1317735 186.520198,28.3428343 187.799773,28.3428343 C189.079348,28.3428343 189.949973,28.217517 190.411676,27.9668786 C190.873378,27.7162402 191.104226,27.3402882 191.104226,26.8390114 C191.104226,26.3377346 190.860187,25.9683783 190.372101,25.7309314 C189.884016,25.4934845 188.617652,25.203276 186.57297,24.8602971 C184.528288,24.5173183 183.004694,23.9369012 182.00214,23.1190286 C180.999586,22.3011559 180.498317,20.8435176 180.498317,18.74607 C180.498317,16.6486224 181.210647,15.0656668 182.635329,13.9971557 C184.06001,12.9286447 185.8936,12.3943971 188.136154,12.3943971 C189.692751,12.3943971 191.816549,12.6450318 194.507614,13.1463086 L195.813566,13.3837543 L195.734417,17.7765 Z M200.206311,32.6168571 L200.206311,12.8297143 L205.509266,12.8297143 L205.509266,32.6168571 L200.206311,32.6168571 Z M200.206311,10.29696 L200.206311,4.91485714 L205.509266,4.91485714 L205.509266,10.29696 L200.206311,10.29696 Z M228.343629,35.0704629 C228.343629,37.3393999 227.473003,39.0146946 225.731726,40.0963971 C223.990448,41.1780997 221.635802,41.7189429 218.667716,41.7189429 C215.699629,41.7189429 213.417535,41.323204 211.821364,40.5317143 C210.225193,39.7402246 209.42712,38.3023733 209.42712,36.2181171 C209.42712,34.5559888 210.376893,32.9862245 212.276469,31.5087771 C211.300298,30.8492024 210.81222,29.8466639 210.81222,28.5011314 C210.81222,27.9734716 211.207959,27.1028461 211.999449,25.8892286 L212.355617,25.3351886 C210.561574,24.0424221 209.664566,22.1362797 209.664566,19.6167043 C209.664566,17.0971288 210.423065,15.2701342 211.940087,14.1356657 C213.457109,13.0011972 215.468782,12.4339714 217.975166,12.4339714 C219.109634,12.4339714 220.230894,12.5658844 221.33898,12.8297143 L221.972169,12.9484371 L228.343629,12.7505657 L228.343629,16.9850143 L225.375557,16.7475686 C225.955983,17.6445902 226.246191,18.5415984 226.246191,19.43862 C226.246191,22.0769189 225.573435,23.8973178 224.227903,24.8998714 C222.88237,25.902425 220.771763,26.4036943 217.896017,26.4036943 C217.289208,26.4036943 216.748365,26.3509291 216.273471,26.2453971 C216.009642,26.9313549 215.877729,27.491985 215.877729,27.9273043 C215.877729,28.3626236 216.101981,28.6594278 216.550491,28.8177257 C216.999002,28.9760236 218.054306,29.0683627 219.716434,29.0947457 C223.040691,29.1211287 225.309594,29.5630371 226.523211,30.4204843 C227.736829,31.2779314 228.343629,32.8279088 228.343629,35.0704629 Z M214.650926,35.6640771 C214.650926,36.7985457 216.042608,37.3657714 218.826013,37.3657714 C221.609418,37.3657714 223.0011,36.7062066 223.0011,35.3870571 C223.0011,34.6747164 222.763657,34.2196167 222.288763,34.0217443 C221.813869,33.8238719 220.811331,33.7117458 219.281117,33.6853629 L215.719431,33.4083429 C215.007091,34.1206836 214.650926,34.8725875 214.650926,35.6640771 Z M214.96752,19.4781943 C214.96752,21.4041525 215.976654,22.3671171 217.994953,22.3671171 C220.013252,22.3671171 221.022386,21.3975568 221.022386,19.4584071 C221.022386,17.5192574 220.013252,16.5496971 217.994953,16.5496971 C215.976654,16.5496971 214.96752,17.5258531 214.96752,19.4781943 Z M236.8521,32.6168571 L231.549146,32.6168571 L231.549146,12.8297143 L236.812526,12.8297143 L236.812526,13.9377943 C238.606569,12.8824747 240.255481,12.3548229 241.759311,12.3548229 C244.39761,12.3548229 246.218009,13.1331094 247.220563,14.6897057 C248.223116,16.2463021 248.724386,18.6471181 248.724386,21.8922257 L248.724386,32.6168571 L243.421431,32.6168571 L243.421431,22.0505229 C243.421431,20.3620116 243.223562,19.115434 242.827817,18.3107529 C242.432072,17.5060717 241.640595,17.1037371 240.45336,17.1037371 C239.371657,17.1037371 238.329545,17.2884153 237.326991,17.6577771 L236.8521,17.8160743 L236.8521,32.6168571 Z M257.786897,24.97902 C257.81328,26.1926375 258.136467,27.0698587 258.756467,27.61071 C259.376467,28.1515613 260.26688,28.4219829 261.427731,28.4219829 C263.881349,28.4219829 266.071105,28.3428351 267.997063,28.1845371 L269.105143,28.0658143 L269.184291,31.9836686 C266.150248,32.7223923 263.406458,33.0917486 260.95284,33.0917486 C257.971562,33.0917486 255.80819,32.3002708 254.462657,30.7172914 C253.117125,29.1343121 252.444369,26.5620092 252.444369,23.0003057 C252.444369,15.9032817 255.359645,12.3548229 261.190286,12.3548229 C266.941777,12.3548229 269.81748,15.3360559 269.81748,21.2986114 L269.421737,24.97902 L257.786897,24.97902 Z M264.593674,20.9424429 C264.593674,19.3594635 264.34304,18.2579902 263.841763,17.63799 C263.340486,17.0179898 262.463265,16.7079943 261.210073,16.7079943 C259.956881,16.7079943 259.073064,17.0311811 258.558596,17.6775643 C258.044127,18.3239475 257.773706,19.4122295 257.747323,20.9424429 L264.593674,20.9424429 Z M273.616611,32.6168571 L273.616611,12.8297143 L278.879991,12.8297143 L278.879991,14.9271514 C281.096163,13.608002 283.20677,12.7505677 285.211877,12.3548229 L285.211877,17.6973514 C283.074855,18.1458622 281.241265,18.6075576 279.711051,19.0824514 L278.919566,19.3594714 L278.919566,32.6168571 L273.616611,32.6168571 Z M302.545414,17.7765 C299.273924,17.3543722 296.985234,17.1433114 295.679276,17.1433114 C294.373318,17.1433114 293.529075,17.2620331 293.146521,17.49948 C292.763968,17.7369269 292.572694,18.1128789 292.572694,18.6273471 C292.572694,19.1418154 292.829925,19.4979804 293.344393,19.6958529 C293.858861,19.8937253 295.177991,20.1839338 297.301821,20.5664871 C299.425652,20.9490405 300.936056,21.5756271 301.833077,22.4462657 C302.730099,23.3169044 303.178603,24.7283731 303.178603,26.6807143 C303.178603,30.9547585 300.527152,33.0917486 295.224171,33.0917486 C293.482894,33.0917486 291.372287,32.8543052 288.892286,32.3794114 L287.625909,32.1419657 L287.784206,27.7096457 C291.055696,28.1317735 293.331195,28.3428343 294.61077,28.3428343 C295.890345,28.3428343 296.760971,28.217517 297.222673,27.9668786 C297.684375,27.7162402 297.915223,27.3402882 297.915223,26.8390114 C297.915223,26.3377346 297.671184,25.9683783 297.183099,25.7309314 C296.695013,25.4934845 295.428649,25.203276 293.383967,24.8602971 C291.339285,24.5173183 289.815691,23.9369012 288.813137,23.1190286 C287.810584,22.3011559 287.309314,20.8435176 287.309314,18.74607 C287.309314,16.6486224 288.021644,15.0656668 289.446326,13.9971557 C290.871007,12.9286447 292.704597,12.3943971 294.947151,12.3943971 C296.503748,12.3943971 298.627547,12.6450318 301.318611,13.1463086 L302.624563,13.3837543 L302.545414,17.7765 Z" id="/designers" fill="#FFFFFF" fill-rule="nonzero"></path>
                    <path d="M28.2568202,66.0102325 L28.2568202,15.1872395 L41.6743669,15.1872395 L41.6743669,66.1006649 L28.2568202,66.1006649 L28.2568202,66.0102325 Z M80.9495699,26.7625831 L68.6871762,26.7625831 L68.6871762,47.652461 C68.6871762,49.7324056 68.7760341,51.0888912 68.864892,51.9932149 C68.95375,52.8071062 69.3091817,53.5305652 69.9311871,54.1635918 C70.5531926,54.7966184 71.5306298,55.0679155 72.8634987,55.0679155 L80.5052802,54.8870508 L81.1272857,65.7389354 C76.6843895,66.7336915 73.2189304,67.2762857 70.9086243,67.2762857 C64.8662854,67.2762857 60.7788208,65.9198001 58.6462306,63.1163966 C56.4247825,60.4034255 55.3584874,55.3392126 55.3584874,47.9237581 L55.3584874,0.989357143 L68.7760341,0.989357143 L68.7760341,15.0968072 L81.0384278,15.0968072 L81.0384278,26.7625831 L80.9495699,26.7625831 Z M8.08607119,30.6511751 C5.77576514,30.6511751 3.82089078,29.8372838 2.31030606,28.2095011 C0.799721327,26.5817184 0,24.5922062 0,22.2409645 C0,19.8897229 0.799721327,17.9002107 2.22144813,16.272428 C3.73203286,14.6446453 5.68690721,13.9211863 7.99721327,13.9211863 C10.3075193,13.9211863 12.2623937,14.7350777 13.7729784,16.3628604 C15.2835631,17.9906431 15.9944265,19.9801552 15.9944265,22.4218293 C15.9944265,24.8635033 15.2835631,26.7625831 13.7729784,28.3903658 C12.3512516,29.8372838 10.4852352,30.6511751 8.08607119,30.6511751 L8.08607119,30.6511751 Z" id="Shape" fill="#FFFFFF"></path>
                    <path d="M129.498857,48.8997857 L129.498857,66.2277857 L128.058857,66.2277857 L128.058857,65.3397857 C126.794851,66.0917895 125.514864,66.4677857 124.218857,66.4677857 C123.626854,66.4677857 123.114859,66.3997857 122.682857,66.2637857 C122.250855,66.127785 121.810859,65.8597877 121.362857,65.4597857 C120.450853,64.6437816 119.994857,63.0477976 119.994857,60.6717857 C119.994857,58.2957738 120.378853,56.5877909 121.146857,55.5477857 C121.914861,54.5077805 123.210848,53.9877857 125.034857,53.9877857 C125.738861,53.9877857 126.746851,54.0917847 128.058857,54.2997857 L128.058857,48.8997857 L129.498857,48.8997857 Z M122.418857,64.3797857 C122.722859,64.6837872 123.022856,64.8917852 123.318857,65.0037857 C123.614859,65.1157863 123.998855,65.1717857 124.470857,65.1717857 C124.94286,65.1717857 125.486854,65.0837866 126.102857,64.9077857 C126.71886,64.7317848 127.202855,64.5637865 127.554857,64.4037857 L128.058857,64.1397857 L128.058857,55.5477857 C126.778851,55.3557848 125.786861,55.2597857 125.082857,55.2597857 C123.72285,55.2597857 122.78286,55.6757816 122.262857,56.5077857 C121.742855,57.3397899 121.482857,58.627777 121.482857,60.3717857 C121.482857,62.419796 121.794854,63.7557826 122.418857,64.3797857 Z M141.057524,57.8037857 L141.057524,64.2357857 C141.121524,64.8277887 141.641519,65.1797852 142.617524,65.2917857 L142.545524,66.4437857 C141.313518,66.4437857 140.409527,66.1237889 139.833524,65.4837857 C138.329516,66.139789 136.825531,66.4677857 135.321524,66.4677857 C134.249518,66.4677857 133.433527,66.1597888 132.873524,65.5437857 C132.313521,64.9277826 132.033524,64.0477914 132.033524,62.9037857 C132.033524,61.75978 132.317521,60.9117885 132.885524,60.3597857 C133.453527,59.807783 134.345518,59.4677864 135.561524,59.3397857 L139.641524,58.9317857 L139.641524,57.8037857 C139.641524,56.9077812 139.445526,56.2637877 139.053524,55.8717857 C138.661522,55.4797838 138.137527,55.2837857 137.481524,55.2837857 C136.457519,55.2837857 135.129532,55.3797848 133.497524,55.5717857 L132.753524,55.6437857 L132.681524,54.4917857 C134.441533,54.155784 135.981517,53.9877857 137.301524,53.9877857 C138.62153,53.9877857 139.577521,54.2997826 140.169524,54.9237857 C140.761527,55.5477888 141.057524,56.5077792 141.057524,57.8037857 Z M133.521524,62.8197857 C133.521524,64.4357938 134.185517,65.2437857 135.513524,65.2437857 C136.089527,65.2437857 136.72152,65.1757864 137.409524,65.0397857 C138.097527,64.903785 138.641522,64.7637864 139.041524,64.6197857 L139.641524,64.4037857 L139.641524,60.0597857 L135.729524,60.4677857 C134.94552,60.531786 134.381526,60.7557838 134.037524,61.1397857 C133.693522,61.5237876 133.521524,62.083782 133.521524,62.8197857 Z M144.648191,66.2277857 L144.648191,48.8997857 L146.064191,48.8997857 L146.064191,66.2277857 L144.648191,66.2277857 Z M149.678857,66.2277857 L149.678857,48.8997857 L151.094857,48.8997857 L151.094857,66.2277857 L149.678857,66.2277857 Z M162.821524,57.8037857 L162.821524,64.2357857 C162.885524,64.8277887 163.405519,65.1797852 164.381524,65.2917857 L164.309524,66.4437857 C163.077518,66.4437857 162.173527,66.1237889 161.597524,65.4837857 C160.093516,66.139789 158.589531,66.4677857 157.085524,66.4677857 C156.013519,66.4677857 155.197527,66.1597888 154.637524,65.5437857 C154.077521,64.9277826 153.797524,64.0477914 153.797524,62.9037857 C153.797524,61.75978 154.081521,60.9117885 154.649524,60.3597857 C155.217527,59.807783 156.109518,59.4677864 157.325524,59.3397857 L161.405524,58.9317857 L161.405524,57.8037857 C161.405524,56.9077812 161.209526,56.2637877 160.817524,55.8717857 C160.425522,55.4797838 159.901527,55.2837857 159.245524,55.2837857 C158.221519,55.2837857 156.893532,55.3797848 155.261524,55.5717857 L154.517524,55.6437857 L154.445524,54.4917857 C156.205533,54.155784 157.745517,53.9877857 159.065524,53.9877857 C160.385531,53.9877857 161.341521,54.2997826 161.933524,54.9237857 C162.525527,55.5477888 162.821524,56.5077792 162.821524,57.8037857 Z M155.285524,62.8197857 C155.285524,64.4357938 155.949517,65.2437857 157.277524,65.2437857 C157.853527,65.2437857 158.485521,65.1757864 159.173524,65.0397857 C159.861527,64.903785 160.405522,64.7637864 160.805524,64.6197857 L161.405524,64.4037857 L161.405524,60.0597857 L157.493524,60.4677857 C156.70952,60.531786 156.145526,60.7557838 155.801524,61.1397857 C155.457522,61.5237876 155.285524,62.083782 155.285524,62.8197857 Z M171.274857,71.6277857 L171.274857,54.2277857 L172.690857,54.2277857 L172.690857,55.1397857 C173.938864,54.3717819 175.25485,53.9877857 176.638857,53.9877857 C178.022864,53.9877857 179.054854,54.4757808 179.734857,55.4517857 C180.414861,56.4277906 180.754857,58.0157747 180.754857,60.2157857 C180.754857,62.4157967 180.354861,64.0077808 179.554857,64.9917857 C178.754853,65.9757906 177.426867,66.4677857 175.570857,66.4677857 C174.578852,66.4677857 173.618862,66.3637868 172.690857,66.1557857 L172.690857,71.6277857 L171.274857,71.6277857 Z M176.338857,55.2837857 C175.810855,55.2837857 175.24286,55.3717848 174.634857,55.5477857 C174.026854,55.7237866 173.554859,55.9077848 173.218857,56.0997857 L172.690857,56.3637857 L172.690857,64.9077857 C173.778863,65.0997867 174.722853,65.1957857 175.522857,65.1957857 C176.898864,65.1957857 177.866855,64.8077896 178.426857,64.0317857 C178.98686,63.2557818 179.266857,61.9757946 179.266857,60.1917857 C179.266857,58.4077768 179.02286,57.1437894 178.534857,56.3997857 C178.046855,55.655782 177.314862,55.2837857 176.338857,55.2837857 Z M191.809524,57.8037857 L191.809524,64.2357857 C191.873524,64.8277887 192.393519,65.1797852 193.369524,65.2917857 L193.297524,66.4437857 C192.065518,66.4437857 191.161527,66.1237889 190.585524,65.4837857 C189.081517,66.139789 187.577532,66.4677857 186.073524,66.4677857 C185.001519,66.4677857 184.185527,66.1597888 183.625524,65.5437857 C183.065521,64.9277826 182.785524,64.0477914 182.785524,62.9037857 C182.785524,61.75978 183.069521,60.9117885 183.637524,60.3597857 C184.205527,59.807783 185.097518,59.4677864 186.313524,59.3397857 L190.393524,58.9317857 L190.393524,57.8037857 C190.393524,56.9077812 190.197526,56.2637877 189.805524,55.8717857 C189.413522,55.4797838 188.889527,55.2837857 188.233524,55.2837857 C187.209519,55.2837857 185.881532,55.3797848 184.249524,55.5717857 L183.505524,55.6437857 L183.433524,54.4917857 C185.193533,54.155784 186.733517,53.9877857 188.053524,53.9877857 C189.373531,53.9877857 190.329521,54.2997826 190.921524,54.9237857 C191.513527,55.5477888 191.809524,56.5077792 191.809524,57.8037857 Z M184.273524,62.8197857 C184.273524,64.4357938 184.937517,65.2437857 186.265524,65.2437857 C186.841527,65.2437857 187.473521,65.1757864 188.161524,65.0397857 C188.849527,64.903785 189.393522,64.7637864 189.793524,64.6197857 L190.393524,64.4037857 L190.393524,60.0597857 L186.481524,60.4677857 C185.69752,60.531786 185.133526,60.7557838 184.789524,61.1397857 C184.445522,61.5237876 184.273524,62.083782 184.273524,62.8197857 Z M195.256191,66.2277857 L195.256191,54.2277857 L196.672191,54.2277857 L196.672191,55.9557857 C197.264194,55.5397836 197.988186,55.1397876 198.844191,54.7557857 C199.700195,54.3717838 200.488187,54.1157864 201.208191,53.9877857 L201.208191,55.4277857 C200.520187,55.5717864 199.800195,55.7917842 199.048191,56.0877857 C198.296187,56.3837872 197.712193,56.6437846 197.296191,56.8677857 L196.672191,57.2277857 L196.672191,66.2277857 L195.256191,66.2277857 Z M209.190857,55.4997857 L205.182857,55.4997857 L205.182857,61.4277857 C205.182857,62.9797935 205.294856,63.9957833 205.518857,64.4757857 C205.742859,64.9557881 206.270853,65.1957857 207.102857,65.1957857 L209.310857,65.0277857 L209.406857,66.2517857 C208.350852,66.4117865 207.54286,66.4917857 206.982857,66.4917857 C205.766851,66.4917857 204.92286,66.1917887 204.450857,65.5917857 C203.978855,64.9917827 203.742857,63.8437942 203.742857,62.1477857 L203.742857,55.4997857 L201.966857,55.4997857 L201.966857,54.2277857 L203.742857,54.2277857 L203.742857,50.4597857 L205.182857,50.4597857 L205.182857,54.2277857 L209.190857,54.2277857 L209.190857,55.4997857 Z M219.117524,65.0277857 L219.837524,64.9557857 L219.885524,66.1317857 C218.077515,66.3557868 216.54953,66.4677857 215.301524,66.4677857 C213.573516,66.4517856 212.365528,65.9397908 211.677524,64.9317857 C210.989521,63.9237807 210.645524,62.3717962 210.645524,60.2757857 C210.645524,56.0837648 212.293508,53.9877857 215.589524,53.9877857 C217.173532,53.9877857 218.35752,54.4397812 219.141524,55.3437857 C219.925528,56.2477902 220.317524,57.6917758 220.317524,59.6757857 L220.269524,60.8277857 L212.109524,60.8277857 C212.109524,62.2997931 212.361522,63.3917822 212.865524,64.1037857 C213.369527,64.8157893 214.233518,65.1717857 215.457524,65.1717857 C216.68153,65.1717857 217.901518,65.1237862 219.117524,65.0277857 Z M212.109524,59.6277857 L218.877524,59.6277857 C218.877524,58.0437778 218.617527,56.9157891 218.097524,56.2437857 C217.577522,55.5717824 216.74553,55.2357857 215.601524,55.2357857 C214.457518,55.2357857 213.589527,55.5837822 212.997524,56.2797857 C212.405521,56.9757892 212.109524,58.091778 212.109524,59.6277857 Z M236.978858,48.8997857 L236.978858,66.2277857 L235.538858,66.2277857 L235.538858,65.3397857 C234.274851,66.0917895 232.994864,66.4677857 231.698858,66.4677857 C231.106855,66.4677857 230.59486,66.3997857 230.162858,66.2637857 C229.730855,66.127785 229.29086,65.8597877 228.842858,65.4597857 C227.930853,64.6437816 227.474858,63.0477976 227.474858,60.6717857 C227.474858,58.2957738 227.858854,56.5877909 228.626858,55.5477857 C229.394861,54.5077805 230.690848,53.9877857 232.514858,53.9877857 C233.218861,53.9877857 234.226851,54.0917847 235.538858,54.2997857 L235.538858,48.8997857 L236.978858,48.8997857 Z M229.898858,64.3797857 C230.202859,64.6837872 230.502856,64.8917852 230.798858,65.0037857 C231.094859,65.1157863 231.478855,65.1717857 231.950858,65.1717857 C232.42286,65.1717857 232.966854,65.0837866 233.582858,64.9077857 C234.198861,64.7317848 234.682856,64.5637865 235.034858,64.4037857 L235.538858,64.1397857 L235.538858,55.5477857 C234.258851,55.3557848 233.266861,55.2597857 232.562858,55.2597857 C231.202851,55.2597857 230.26286,55.6757816 229.742858,56.5077857 C229.222855,57.3397899 228.962858,58.627777 228.962858,60.3717857 C228.962858,62.419796 229.274854,63.7557826 229.898858,64.3797857 Z M248.225524,65.0277857 L248.945524,64.9557857 L248.993524,66.1317857 C247.185515,66.3557868 245.65753,66.4677857 244.409524,66.4677857 C242.681516,66.4517856 241.473528,65.9397908 240.785524,64.9317857 C240.097521,63.9237807 239.753524,62.3717962 239.753524,60.2757857 C239.753524,56.0837648 241.401508,53.9877857 244.697524,53.9877857 C246.281532,53.9877857 247.46552,54.4397812 248.249524,55.3437857 C249.033528,56.2477902 249.425524,57.6917758 249.425524,59.6757857 L249.377524,60.8277857 L241.217524,60.8277857 C241.217524,62.2997931 241.469522,63.3917822 241.973524,64.1037857 C242.477527,64.8157893 243.341518,65.1717857 244.565524,65.1717857 C245.78953,65.1717857 247.009518,65.1237862 248.225524,65.0277857 Z M241.217524,59.6277857 L247.985524,59.6277857 C247.985524,58.0437778 247.725527,56.9157891 247.205524,56.2437857 C246.685522,55.5717824 245.85353,55.2357857 244.709524,55.2357857 C243.565519,55.2357857 242.697527,55.5837822 242.105524,56.2797857 C241.513521,56.9757892 241.217524,58.091778 241.217524,59.6277857 Z M252.104191,66.2277857 L252.104191,54.2277857 L253.520191,54.2277857 L253.520191,66.2277857 L252.104191,66.2277857 Z M252.104191,51.2277857 L252.104191,49.4277857 L253.520191,49.4277857 L253.520191,51.2277857 L252.104191,51.2277857 Z M266.317524,53.9877857 C267.037528,53.9877857 267.893519,54.0677849 268.885524,54.2277857 L269.437524,54.2997857 L269.365524,55.5237857 C268.101518,55.3637849 267.165527,55.2837857 266.557524,55.2837857 C265.133517,55.2837857 264.157527,55.6317822 263.629524,56.3277857 C263.101522,57.0237892 262.837524,58.3037764 262.837524,60.1677857 C262.837524,62.031795 263.077522,63.331782 263.557524,64.0677857 C264.037527,64.8037894 265.037517,65.1717857 266.557524,65.1717857 L269.413524,64.9557857 L269.461524,66.1797857 C268.037517,66.3717867 266.981528,66.4677857 266.293524,66.4677857 C264.389515,66.4677857 263.089528,65.9957904 262.393524,65.0517857 C261.697521,64.107781 261.349524,62.4837972 261.349524,60.1797857 C261.349524,57.8757742 261.729521,56.2677903 262.489524,55.3557857 C263.249528,54.4437812 264.525515,53.9877857 266.317524,53.9877857 Z M271.972191,66.2277857 L271.972191,54.2277857 L273.388191,54.2277857 L273.388191,66.2277857 L271.972191,66.2277857 Z M271.972191,51.2277857 L271.972191,49.4277857 L273.388191,49.4277857 L273.388191,51.2277857 L271.972191,51.2277857 Z M282.786858,55.4997857 L278.778858,55.4997857 L278.778858,61.4277857 C278.778858,62.9797935 278.890857,63.9957833 279.114858,64.4757857 C279.338859,64.9557881 279.866854,65.1957857 280.698858,65.1957857 L282.906858,65.0277857 L283.002858,66.2517857 C281.946852,66.4117865 281.138861,66.4917857 280.578858,66.4917857 C279.362852,66.4917857 278.51886,66.1917887 278.046858,65.5917857 C277.574855,64.9917827 277.338858,63.8437942 277.338858,62.1477857 L277.338858,55.4997857 L275.562858,55.4997857 L275.562858,54.2277857 L277.338858,54.2277857 L277.338858,50.4597857 L278.778858,50.4597857 L278.778858,54.2277857 L282.786858,54.2277857 L282.786858,55.4997857 Z M290.841524,55.4997857 L286.833524,55.4997857 L286.833524,61.4277857 C286.833524,62.9797935 286.945523,63.9957833 287.169524,64.4757857 C287.393526,64.9557881 287.92152,65.1957857 288.753524,65.1957857 L290.961524,65.0277857 L291.057524,66.2517857 C290.001519,66.4117865 289.193527,66.4917857 288.633524,66.4917857 C287.417518,66.4917857 286.573527,66.1917887 286.101524,65.5917857 C285.629522,64.9917827 285.393524,63.8437942 285.393524,62.1477857 L285.393524,55.4997857 L283.617524,55.4997857 L283.617524,54.2277857 L285.393524,54.2277857 L285.393524,50.4597857 L286.833524,50.4597857 L286.833524,54.2277857 L290.841524,54.2277857 L290.841524,55.4997857 Z M301.080191,57.8037857 L301.080191,64.2357857 C301.144191,64.8277887 301.664186,65.1797852 302.640191,65.2917857 L302.568191,66.4437857 C301.336185,66.4437857 300.432194,66.1237889 299.856191,65.4837857 C298.352184,66.139789 296.848199,66.4677857 295.344191,66.4677857 C294.272186,66.4677857 293.456194,66.1597888 292.896191,65.5437857 C292.336188,64.9277826 292.056191,64.0477914 292.056191,62.9037857 C292.056191,61.75978 292.340188,60.9117885 292.908191,60.3597857 C293.476194,59.807783 294.368185,59.4677864 295.584191,59.3397857 L299.664191,58.9317857 L299.664191,57.8037857 C299.664191,56.9077812 299.468193,56.2637877 299.076191,55.8717857 C298.684189,55.4797838 298.160194,55.2837857 297.504191,55.2837857 C296.480186,55.2837857 295.152199,55.3797848 293.520191,55.5717857 L292.776191,55.6437857 L292.704191,54.4917857 C294.4642,54.155784 296.004185,53.9877857 297.324191,53.9877857 C298.644198,53.9877857 299.600188,54.2997826 300.192191,54.9237857 C300.784194,55.5477888 301.080191,56.5077792 301.080191,57.8037857 Z M293.544191,62.8197857 C293.544191,64.4357938 294.208185,65.2437857 295.536191,65.2437857 C296.112194,65.2437857 296.744188,65.1757864 297.432191,65.0397857 C298.120195,64.903785 298.664189,64.7637864 299.064191,64.6197857 L299.664191,64.4037857 L299.664191,60.0597857 L295.752191,60.4677857 C294.968187,60.531786 294.404193,60.7557838 294.060191,61.1397857 C293.716189,61.5237876 293.544191,62.083782 293.544191,62.8197857 Z M313.502858,48.8997857 L313.502858,66.2277857 L312.062858,66.2277857 L312.062858,65.3397857 C310.798852,66.0917895 309.518864,66.4677857 308.222858,66.4677857 C307.630855,66.4677857 307.11886,66.3997857 306.686858,66.2637857 C306.254856,66.127785 305.81486,65.8597877 305.366858,65.4597857 C304.454853,64.6437816 303.998858,63.0477976 303.998858,60.6717857 C303.998858,58.2957738 304.382854,56.5877909 305.150858,55.5477857 C305.918862,54.5077805 307.214849,53.9877857 309.038858,53.9877857 C309.742861,53.9877857 310.750851,54.0917847 312.062858,54.2997857 L312.062858,48.8997857 L313.502858,48.8997857 Z M306.422858,64.3797857 C306.726859,64.6837872 307.026856,64.8917852 307.322858,65.0037857 C307.618859,65.1157863 308.002855,65.1717857 308.474858,65.1717857 C308.94686,65.1717857 309.490855,65.0837866 310.106858,64.9077857 C310.722861,64.7317848 311.206856,64.5637865 311.558858,64.4037857 L312.062858,64.1397857 L312.062858,55.5477857 C310.782851,55.3557848 309.790861,55.2597857 309.086858,55.2597857 C307.726851,55.2597857 306.78686,55.6757816 306.266858,56.5077857 C305.746855,57.3397899 305.486858,58.627777 305.486858,60.3717857 C305.486858,62.419796 305.798855,63.7557826 306.422858,64.3797857 Z M316.805525,66.2277857 L316.805525,54.2277857 L318.221525,54.2277857 L318.221525,66.2277857 L316.805525,66.2277857 Z M316.805525,51.2277857 L316.805525,49.4277857 L318.221525,49.4277857 L318.221525,51.2277857 L316.805525,51.2277857 Z M322.964191,66.2277857 L321.548191,66.2277857 L321.548191,54.2277857 L322.964191,54.2277857 L322.964191,55.1157857 C324.308198,54.363782 325.612185,53.9877857 326.876191,53.9877857 C328.476199,53.9877857 329.544189,54.4117815 330.080191,55.2597857 C330.616194,56.10779 330.884191,57.6597744 330.884191,59.9157857 L330.884191,66.2277857 L329.444191,66.2277857 L329.444191,59.9877857 C329.444191,58.1477765 329.268193,56.903789 328.916191,56.2557857 C328.564189,55.6077825 327.812197,55.2837857 326.660191,55.2837857 C326.100188,55.2837857 325.512194,55.3677849 324.896191,55.5357857 C324.280188,55.7037866 323.804193,55.8757848 323.468191,56.0517857 L322.964191,56.2917857 L322.964191,66.2277857 Z M334.066858,66.2277857 L334.066858,54.2277857 L335.482858,54.2277857 L335.482858,66.2277857 L334.066858,66.2277857 Z M334.066858,51.2277857 L334.066858,49.4277857 L335.482858,49.4277857 L335.482858,51.2277857 L334.066858,51.2277857 Z" id="dallapartedeicittadini" fill="#EFEFEF" fill-rule="nonzero"></path>
                </g>
            </g>
        </g>
    </g>
</svg>