<svg xmlns="http://www.w3.org/2000/svg" width="273" height="401" viewBox="0 0 273 401">
  <g fill="#06C" fill-rule="evenodd">
    <path d="M262.688,302.088 C268.893,286.77 272.082,270.399 272.08,253.872 L272.08,152.608 L272.08,105.218444 L213.336,87.808 L239.648,10.616 C241.071,6.433 238.833,1.889 234.65,0.466 C233.822,0.185 232.954,0.041 232.079999,0.04 L200.079999,0.04 C197.562,0.04 195.191,1.226 193.68,3.24 L176.08,26.704 L158.48,3.24 C156.969,1.226 154.598,0.04 152.079999,0.04 L120.079999,0.04 C117.562,0.04 115.191,1.226 113.68,3.24 L96.08,26.704 L78.48,3.24 C76.969,1.226 74.598,0.04 72.0799991,0.04 L40.0799991,0.04 C35.662,0.043 32.083,3.628 32.086,8.046 C32.087,8.92 32.231,9.788 32.512,10.616 L58.824,87.808 L0.08,105.218444 L0.08,167.546444 L0.08,253.872 C0.078,270.399 3.267,286.77 9.472,302.088 C24.548,332.785947 45.004,354.876614 70.84,368.36 L132.504,399.24 C134.755,400.365 137.405,400.365 139.656,399.24 L201.32,368.4 C226.872,357.382976 247.328,335.278976 262.688,302.088 Z M51.28,16.04 L68.08,16.04 L89.68,44.84 C92.588,48.375 97.811,48.882 101.346,45.974 C101.76,45.634 102.14,45.254 102.48,44.84 L124.08,16.04 L148.08,16.04 L169.68,44.84 C172.588,48.375 177.811,48.882 181.346,45.974 C181.76,45.634 182.14,45.254 182.48,44.84 L204.08,16.04 L220.88,16.04 L198.04,83.032 L138.48,64.408 C136.918,63.913 135.242,63.913 133.68,64.408 L74.08,83.032 L51.28,16.04 Z M194.168,354.048 L194.168,354.056 L136.08,383.096 L77.992,354.048 C39.944,335.191 15.931,296.337 16.08,253.872 L16.08,117.92 L136.08,80.424 L256.08,117.92 L256.08,253.872 C256.229,296.336 232.216,335.19 194.168,354.048 Z"/>
    <g transform="translate(77 188)">
      <polygon points="34.524 81.289 34.524 17.956 51.19 17.956 51.19 81.401 34.524 81.401"/>
      <path d="M99.778325 31.8826741L84.4827583 31.8826741 84.4827583 57.7244202C84.4827583 60.2974078 84.5935958 61.9754438 84.7044333 63.0941339 84.8152708 64.100955 85.2586208 64.9959072 86.0344827 65.778991 86.8103446 66.5620737 88.0295565 66.8976811 89.6921179 66.8976811L99.2241381 66.6739432 100 80.0982267C94.458128 81.3287857 90.1354679 82 87.253694 82 79.7167488 82 74.6182262 80.3219646 71.958128 76.8540248 69.1871923 73.4979539 67.8571429 67.233288 67.8571429 58.0600276L67.8571429 0 84.5935958 0 84.5935958 17.4515689 99.8891625 17.4515689 99.8891625 31.8826741 99.778325 31.8826741zM10.2314815 36.5109489C7.30820113 36.5109489 4.83465599 35.5209313 2.92328038 33.5408957 1.01190476 31.5608601 0 29.1408169 0 26.2807655 0 23.4207141 1.01190476 21.0006709 2.81084646 19.0206353 4.72222208 17.0405997 7.19576726 16.1605839 10.1190476 16.1605839 13.042328 16.1605839 15.5158732 17.1506015 17.4272488 19.1306371 19.3386244 21.1106727 20.2380952 23.530716 20.2380952 26.5007696 20.2380952 29.4708227 19.3386244 31.7808642 17.4272488 33.7608998 15.6283066 35.5209313 13.2671958 36.5109489 10.2314815 36.5109489z"/>
    </g>
  </g>
</svg>
