<?xml version="1.0" encoding="UTF-8"?>
<svg width="336px" height="73px" viewBox="0 0 336 73" version="1.1" xmlns="http://www.w3.org/2000/svg" xmlns:xlink="http://www.w3.org/1999/xlink">
    <!-- Generator: Sketch 56.3 (81716) - https://sketch.com -->
    <title>logo</title>
    <desc>Created with Sketch.</desc>
    <g id="Layout" stroke="none" stroke-width="1" fill="none" fill-rule="evenodd">
        <g id="italia-Layout-Header" transform="translate(-109.000000, -70.000000)">
            <g id="header" transform="translate(109.000000, 62.000000)">
                <g id="logo" transform="translate(0.000000, 8.000000)">
                    <text id="/designers" font-family="TitilliumWeb-Bold, Titillium Web" font-size="39.5742857" font-weight="bold" line-spacing="35.6168571" fill="#FFFFFF">
                        <tspan x="118.722857" y="45">/designers</tspan>
                    </text>
                    <path d="M28.2568202,66.0102325 L28.2568202,15.1872395 L41.6743669,15.1872395 L41.6743669,66.1006649 L28.2568202,66.1006649 L28.2568202,66.0102325 Z M80.9495699,26.7625831 L68.6871762,26.7625831 L68.6871762,47.652461 C68.6871762,49.7324056 68.7760341,51.0888912 68.864892,51.9932149 C68.95375,52.8071062 69.3091817,53.5305652 69.9311871,54.1635918 C70.5531926,54.7966184 71.5306298,55.0679155 72.8634987,55.0679155 L80.5052802,54.8870508 L81.1272857,65.7389354 C76.6843895,66.7336915 73.2189304,67.2762857 70.9086243,67.2762857 C64.8662854,67.2762857 60.7788208,65.9198001 58.6462306,63.1163966 C56.4247825,60.4034255 55.3584874,55.3392126 55.3584874,47.9237581 L55.3584874,0.989357143 L68.7760341,0.989357143 L68.7760341,15.0968072 L81.0384278,15.0968072 L81.0384278,26.7625831 L80.9495699,26.7625831 Z M8.08607119,30.6511751 C5.77576514,30.6511751 3.82089078,29.8372838 2.31030606,28.2095011 C0.799721327,26.5817184 0,24.5922062 0,22.2409645 C0,19.8897229 0.799721327,17.9002107 2.22144813,16.272428 C3.73203286,14.6446453 5.68690721,13.9211863 7.99721327,13.9211863 C10.3075193,13.9211863 12.2623937,14.7350777 13.7729784,16.3628604 C15.2835631,17.9906431 15.9944265,19.9801552 15.9944265,22.4218293 C15.9944265,24.8635033 15.2835631,26.7625831 13.7729784,28.3903658 C12.3512516,29.8372838 10.4852352,30.6511751 8.08607119,30.6511751 L8.08607119,30.6511751 Z" id="Shape" fill="#FFFFFF"></path>
                    <text id="dalla-parte-dei-citt" font-family="TitilliumWeb-Light, Titillium Web" font-size="24" font-weight="300" letter-spacing="-0.2733333" fill="#EFEFEF">
                        <tspan x="118.722857" y="66.2277857">dalla parte dei cittadini</tspan>
                    </text>
                </g>
            </g>
        </g>
    </g>
</svg>