<?xml version="1.0" encoding="UTF-8"?>
<svg width="1398px" height="414px" viewBox="0 0 1398 414" version="1.1" xmlns="http://www.w3.org/2000/svg" xmlns:xlink="http://www.w3.org/1999/xlink">
    <!-- Generator: Sketch 56.3 (81716) - https://sketch.com -->
    <title>logo-team-digitale-full</title>
    <desc>Created with Sketch.</desc>
    <defs>
        <path d="M1.378,57.884 L1.378,47.39 L54.378,47.39 L54.378,57.884 L33.92,57.884 L33.92,120 L22.048,120 L22.048,57.884 L1.378,57.884 Z M64.13,120 L64.13,47.39 L109.922,47.39 L109.922,57.672 L75.896,57.672 L75.896,78.236 L103.562,78.236 L103.562,88.412 L75.896,88.412 L75.896,109.612 L109.922,109.612 L109.922,120 L64.13,120 Z M116.494,120 L134.408,47.39 L157.834,47.39 L175.854,120 L163.982,120 L160.06,104.418 L132.182,104.418 L128.26,120 L116.494,120 Z M143.524,57.248 L134.514,94.03 L157.728,94.03 L148.824,57.248 L143.524,57.248 Z M186.242,120 L186.242,47.39 L206.7,47.39 L222.918,104.1 L239.136,47.39 L259.7,47.39 L259.7,120 L247.828,120 L247.828,60.428 L246.238,60.428 L229.066,117.032 L216.77,117.032 L199.598,60.428 L198.008,60.428 L198.008,120 L186.242,120 Z M326.268,97.422 L311.428,97.422 L311.428,120 L299.662,120 L299.662,47.39 L326.268,47.39 C342.733416,47.39 350.966,55.5165854 350.966,71.77 C350.966,80.1087084 348.899021,86.4686448 344.765,90.85 C340.630979,95.2313552 334.465374,97.422 326.268,97.422 Z M311.428,87.246 L326.162,87.246 C334.642042,87.246 338.882,82.0873849 338.882,71.77 C338.882,66.8233086 337.857344,63.2193446 335.808,60.958 C333.758656,58.6966554 330.543355,57.566 326.162,57.566 L311.428,57.566 L311.428,87.246 Z M362.308,120 L362.308,47.39 L408.1,47.39 L408.1,57.672 L374.074,57.672 L374.074,78.236 L401.74,78.236 L401.74,88.412 L374.074,88.412 L374.074,109.612 L408.1,109.612 L408.1,120 L362.308,120 Z M432.692,94.136 L432.692,120 L420.926,120 L420.926,47.39 L448.486,47.39 C464.880749,47.39 473.078,55.0925896 473.078,70.498 C473.078,80.8153849 469.120706,87.811315 461.206,91.486 L473.184,120 L460.252,120 L449.758,94.136 L432.692,94.136 Z M460.994,70.604 C460.994,61.9119565 456.824708,57.566 448.486,57.566 L432.692,57.566 L432.692,83.96 L448.698,83.96 C452.938021,83.96 456.047323,82.7410122 458.026,80.303 C460.004677,77.8649878 460.994,74.6320201 460.994,70.604 Z M550.458,120 L509.754,120 L509.754,47.39 L521.52,47.39 L521.52,109.506 L550.458,109.506 L550.458,120 Z M553.85,120 L571.764,47.39 L595.19,47.39 L613.21,120 L601.338,120 L597.416,104.418 L569.538,104.418 L565.616,120 L553.85,120 Z M580.88,57.248 L571.87,94.03 L595.084,94.03 L586.18,57.248 L580.88,57.248 Z" id="path-1"></path>
        <path d="M1.378,218.884 L1.378,208.39 L54.378,208.39 L54.378,218.884 L33.92,218.884 L33.92,281 L22.048,281 L22.048,218.884 L1.378,218.884 Z M75.896,255.136 L75.896,281 L64.13,281 L64.13,208.39 L91.69,208.39 C108.084749,208.39 116.282,216.09259 116.282,231.498 C116.282,241.815385 112.324706,248.811315 104.41,252.486 L116.388,281 L103.456,281 L92.962,255.136 L75.896,255.136 Z M104.198,231.604 C104.198,222.911957 100.028708,218.566 91.69,218.566 L75.896,218.566 L75.896,244.96 L91.902,244.96 C96.1420212,244.96 99.2513234,243.741012 101.23,241.303 C103.208677,238.864988 104.198,235.63202 104.198,231.604 Z M122.642,281 L140.556,208.39 L163.982,208.39 L182.002,281 L170.13,281 L166.208,265.418 L138.33,265.418 L134.408,281 L122.642,281 Z M149.672,218.248 L140.662,255.03 L163.876,255.03 L154.972,218.248 L149.672,218.248 Z M212.954,217.506 C203.979288,217.506 199.492,220.650635 199.492,226.94 C199.492,230.190683 200.551989,232.504993 202.672,233.883 C204.792011,235.261007 209.47363,236.95699 216.717,238.971 C223.96037,240.98501 229.065985,243.387653 232.034,246.179 C235.002015,248.970347 236.486,253.369303 236.486,259.376 C236.486,267.008038 234.313022,272.714314 229.967,276.495 C225.620978,280.275686 219.702704,282.166 212.212,282.166 C206.205303,282.166 199.562703,281.45934 192.284,280.046 L188.468,279.304 L189.634,269.87 C199.174048,271.142006 206.452642,271.778 211.47,271.778 C220.23271,271.778 224.614,267.891372 224.614,260.118 C224.614,257.079318 223.624677,254.835674 221.646,253.387 C219.667323,251.938326 215.215368,250.348342 208.29,248.617 C201.364632,246.885658 196.206017,244.500682 192.814,241.462 C189.421983,238.423318 187.726,233.618033 187.726,227.046 C187.726,220.473967 189.863645,215.509683 194.139,212.153 C198.414355,208.796317 204.332629,207.118 211.894,207.118 C217.335361,207.118 223.765963,207.753994 231.186,209.026 L234.896,209.662 L233.942,219.202 C224.048617,218.071328 217.052687,217.506 212.954,217.506 Z M249.206,281 L249.206,208.39 L294.256,208.39 L294.256,218.672 L260.972,218.672 L260.972,243.158 L288.638,243.158 L288.638,253.44 L260.972,253.44 L260.972,281 L249.206,281 Z M317.47,265.63 C319.872679,269.799354 324.465966,271.884 331.25,271.884 C338.034034,271.884 342.609655,269.834687 344.977,265.736 C347.344345,261.637313 348.528,254.765048 348.528,245.119 C348.528,235.472952 347.309012,228.459355 344.871,224.078 C342.432988,219.696645 337.8927,217.506 331.25,217.506 C324.6073,217.506 320.049346,219.696645 317.576,224.078 C315.102654,228.459355 313.866,235.437619 313.866,245.013 C313.866,254.588381 315.067321,261.460646 317.47,265.63 Z M354.146,273.262 C349.835312,279.19803 342.203388,282.166 331.25,282.166 C320.296612,282.166 312.629355,279.180363 308.248,273.209 C303.866645,267.237637 301.676,257.856731 301.676,245.066 C301.676,232.275269 303.884311,222.770698 308.301,216.552 C312.717689,210.333302 320.367279,207.224 331.25,207.224 C342.132721,207.224 349.764645,210.315636 354.146,216.499 C358.527355,222.682364 360.718,232.204602 360.718,245.066 C360.718,257.927398 358.527355,267.32597 354.146,273.262 Z M386.158,255.136 L386.158,281 L374.392,281 L374.392,208.39 L401.952,208.39 C418.346749,208.39 426.544,216.09259 426.544,231.498 C426.544,241.815385 422.586706,248.811315 414.672,252.486 L426.65,281 L413.718,281 L403.224,255.136 L386.158,255.136 Z M414.46,231.604 C414.46,222.911957 410.290708,218.566 401.952,218.566 L386.158,218.566 L386.158,244.96 L402.164,244.96 C406.404021,244.96 409.513323,243.741012 411.492,241.303 C413.470677,238.864988 414.46,235.63202 414.46,231.604 Z M439.9,281 L439.9,208.39 L460.358,208.39 L476.576,265.1 L492.794,208.39 L513.358,208.39 L513.358,281 L501.486,281 L501.486,221.428 L499.896,221.428 L482.724,278.032 L470.428,278.032 L453.256,221.428 L451.666,221.428 L451.666,281 L439.9,281 Z M523.746,281 L541.66,208.39 L565.086,208.39 L583.106,281 L571.234,281 L567.312,265.418 L539.434,265.418 L535.512,281 L523.746,281 Z M550.776,218.248 L541.766,255.03 L564.98,255.03 L556.076,218.248 L550.776,218.248 Z M589.572,218.672 L589.572,208.39 L637.272,208.39 L637.272,219.732 L603.564,268.704 L603.564,270.718 L637.272,270.718 L637.272,281 L589.572,281 L589.572,269.764 L623.174,220.792 L623.174,218.672 L589.572,218.672 Z M650.098,281 L650.098,208.39 L661.864,208.39 L661.864,281 L650.098,281 Z M691.226,265.63 C693.628679,269.799354 698.221966,271.884 705.006,271.884 C711.790034,271.884 716.365655,269.834687 718.733,265.736 C721.100345,261.637313 722.284,254.765048 722.284,245.119 C722.284,235.472952 721.065012,228.459355 718.627,224.078 C716.188988,219.696645 711.6487,217.506 705.006,217.506 C698.3633,217.506 693.805346,219.696645 691.332,224.078 C688.858654,228.459355 687.622,235.437619 687.622,245.013 C687.622,254.588381 688.823321,261.460646 691.226,265.63 Z M727.902,273.262 C723.591312,279.19803 715.959388,282.166 705.006,282.166 C694.052612,282.166 686.385355,279.180363 682.004,273.209 C677.622645,267.237637 675.432,257.856731 675.432,245.066 C675.432,232.275269 677.640311,222.770698 682.057,216.552 C686.473689,210.333302 694.123279,207.224 705.006,207.224 C715.888721,207.224 723.520645,210.315636 727.902,216.499 C732.283355,222.682364 734.474,232.204602 734.474,245.066 C734.474,257.927398 732.283355,267.32597 727.902,273.262 Z M748.148,281 L748.148,208.39 L768.712,208.39 L790.76,270.612 L792.35,270.612 L792.35,208.39 L804.116,208.39 L804.116,281 L783.976,281 L761.398,218.672 L759.914,218.672 L759.914,281 L748.148,281 Z M820.864,281 L820.864,208.39 L866.656,208.39 L866.656,218.672 L832.63,218.672 L832.63,239.236 L860.296,239.236 L860.296,249.412 L832.63,249.412 L832.63,270.612 L866.656,270.612 L866.656,281 L820.864,281 Z" id="path-2"></path>
        <path d="M33.496,442 L8.374,442 L8.374,369.39 L33.496,369.39 C44.6613892,369.39 52.2933128,372.216638 56.392,377.87 C60.4906872,383.523362 62.54,392.39194 62.54,404.476 C62.54,410.624031 62.1336707,415.835645 61.321,420.111 C60.5083293,424.386355 59.0773436,428.255316 57.028,431.718 C52.9999799,438.572701 45.1560583,442 33.496,442 Z M50.35,404.476 C50.35,395.71329 49.2546776,389.388686 47.064,385.502 C44.8733224,381.615314 40.3507009,379.672 33.496,379.672 L20.14,379.672 L20.14,431.612 L33.496,431.612 C40.492035,431.612 45.1559883,429.032692 47.488,423.874 C48.6186723,421.25932 49.3783314,418.468015 49.767,415.5 C50.1556686,412.531985 50.35,408.857355 50.35,404.476 Z M76.32,442 L76.32,369.39 L88.086,369.39 L88.086,442 L76.32,442 Z M134.408,414.228 L134.408,403.84 L155.078,403.84 L155.078,440.728 C153.16999,441.222669 149.301029,441.752664 143.471,442.318 C137.640971,442.883336 133.41868,443.166 130.804,443.166 C119.779945,443.166 112.183354,440.127364 108.014,434.05 C103.844646,427.972636 101.76,418.450398 101.76,405.483 C101.76,392.515602 103.897645,383.06403 108.173,377.128 C112.448355,371.19197 119.850614,368.224 130.38,368.224 C136.598698,368.224 143.594628,368.93066 151.368,370.344 L155.078,371.086 L154.654,380.414 C146.103291,379.283328 138.436034,378.718 131.652,378.718 C124.867966,378.718 120.221679,380.625981 117.713,384.442 C115.204321,388.258019 113.95,395.324615 113.95,405.642 C113.95,415.959385 115.133655,423.07898 117.501,427.001 C119.868345,430.92302 124.655964,432.884 131.864,432.884 C137.022692,432.884 140.873987,432.566003 143.418,431.93 L143.418,414.228 L134.408,414.228 Z M169.812,442 L169.812,369.39 L181.578,369.39 L181.578,442 L169.812,442 Z M191.33,379.884 L191.33,369.39 L244.33,369.39 L244.33,379.884 L223.872,379.884 L223.872,442 L212,442 L212,379.884 L191.33,379.884 Z M243.482,442 L261.396,369.39 L284.822,369.39 L302.842,442 L290.97,442 L287.048,426.418 L259.17,426.418 L255.248,442 L243.482,442 Z M270.512,379.248 L261.502,416.03 L284.716,416.03 L275.812,379.248 L270.512,379.248 Z M353.934,442 L313.23,442 L313.23,369.39 L324.996,369.39 L324.996,431.506 L353.934,431.506 L353.934,442 Z M363.58,442 L363.58,369.39 L409.372,369.39 L409.372,379.672 L375.346,379.672 L375.346,400.236 L403.012,400.236 L403.012,410.412 L375.346,410.412 L375.346,431.612 L409.372,431.612 L409.372,442 L363.58,442 Z" id="path-3"></path>
    </defs>
    <g id="Page-1" stroke="none" stroke-width="1" fill="none" fill-rule="evenodd">
        <g id="logo-team-digitale-full" transform="translate(0.000000, -42.000000)">
            <g id="logo-team-digitale" transform="translate(0.000000, 44.000000)" fill="#FFFFFF" fill-rule="nonzero">
                <path d="M403.1,409.1 L6,409.1 C2.7,409.1 0,406.4 0,403.1 L0,6 C0,2.7 2.7,0 6,0 L403.1,0 C406.4,0 409.1,2.7 409.1,6 L409.1,403.1 C409.1,406.4 406.4,409.1 403.1,409.1 Z M99.1,201 C114.122145,201 126.3,188.822145 126.3,173.8 C126.3,158.777855 114.122145,146.6 99.1,146.6 C84.0778548,146.6 71.9,158.777855 71.9,173.8 C71.9,188.822145 84.0778548,201 99.1,201 Z M164.9,316 L164.9,316.1 L240.1,316.1 C320.3,316.1 335.1,276.3 335.1,200.1 C335.1,125.8 318,92.6 240.1,92.6 L164.9,92.6 L164.9,316 Z M240.1,132 C284.1,132 288.4,151.1 288.4,200 C288.4,249.7 284.1,276.6 240.1,276.6 L210.2,276.6 L210.2,132 L240.1,132 Z" id="Combined-Shape"></path>
            </g>
            <path d="M470.5,44 L470.5,453.1" id="Line" stroke="#FFFFFF" stroke-width="4" stroke-linecap="square"></path>
            <g id="TEAM-PER-LA-TRASFORM" transform="translate(531.000000, 0.000000)" fill-rule="nonzero">
                <g id="TEAMPERLA">
                    <use fill="#000000" xlink:href="#path-1"></use>
                    <use fill="#FFFFFF" xlink:href="#path-1"></use>
                </g>
                <g id="TRASFORMAZIONE">
                    <use fill="#000000" xlink:href="#path-2"></use>
                    <use fill="#FFFFFF" xlink:href="#path-2"></use>
                </g>
                <g id="DIGITALE">
                    <use fill="#000000" xlink:href="#path-3"></use>
                    <use fill="#FFFFFF" xlink:href="#path-3"></use>
                </g>
            </g>
        </g>
    </g>
</svg>