<svg version="1.1"
      xmlns="http://www.w3.org/2000/svg"
      xmlns:xlink="http://www.w3.org/1999/xlink"  id="snapshot-75347" width="200" height="100" viewBox="0 0 200 100"><desc>This image was made on Patterninja.com</desc><defs>
<!-- image 28879 -->
<g id="transformed-28879" data-image="28879" transform="translate(79, 32.000000000000014) rotate(0, 24, 23.999999999999986)"><g><svg version="1.1" width="48px" height="47.99999999999997px" viewBox="0 0 48 47.99999999999997"><g id="original-28879"><svg xmlns="http://www.w3.org/2000/svg" viewBox="0 0 512 512" xmlns:xlink="http://www.w3.org/1999/xlink" version="1.1" preserveAspectRatio="xMidYMid meet">
  <path d="M76.8 409.6c-4.71 0-8.533 3.823-8.533 8.533s3.823 8.533 8.533 8.533h34.133c4.71 0 8.533-3.823 8.533-8.533s-3.823-8.533-8.533-8.533H76.8z" fill="rgba(255, 255, 255, 0.5)" stroke="none"/>
  <path d="M332.8 273.067H39.526C17.732 273.067 0 292.207 0 315.733v153.6C0 492.86 17.732 512 39.526 512h207.488c22.972 0 43.119-19.934 43.119-42.709v-93.858c-.026-4.702-3.84-8.499-8.533-8.499h-.043c-4.71.026-8.516 3.866-8.491 8.576v93.824c0 14.421-14.003 25.6-26.052 25.6H39.526c-12.382 0-22.46-11.486-22.46-25.6v-153.6c0-14.114 10.078-25.6 22.46-25.6h272.768l-53.367 53.717c-3.319 3.345-3.302 8.747.043 12.066 3.345 3.328 8.747 3.311 12.066-.034l67.814-68.267a8.532 8.532 0 0 0 1.826-9.293 8.518 8.518 0 0 0-7.876-5.256z" fill="rgba(255, 255, 255, 0.5)" stroke="none"/>
  <path d="M187.733 366.933a8.536 8.536 0 0 0-8.533-8.533H76.8c-4.71 0-8.533 3.823-8.533 8.533s3.823 8.533 8.533 8.533h102.4c4.71.001 8.533-3.822 8.533-8.533z" fill="rgba(255, 255, 255, 0.5)" stroke="none"/>
  <path d="M8.866 100.292c1.63 16.401 8.755 30.839 9.096 31.522 7.74 15.471 19.43 38.852 58.837 38.852s51.098-23.381 58.829-38.852c.35-.683 7.484-15.121 9.105-31.522 5.282-2.901 8.866-8.525 8.866-14.959V68.267c0-6.306-3.439-11.819-8.533-14.771V51.2c0-28.237-22.963-51.2-51.2-51.2H59.733c-28.237 0-51.2 22.963-51.2 51.2v2.295C3.439 56.448 0 61.961 0 68.267v17.067c0 6.433 3.584 12.057 8.866 14.958zm8.201-32.025a8.536 8.536 0 0 0 8.533-8.533V51.2c0-18.825 15.309-34.133 34.133-34.133h34.133C112.691 17.067 128 32.375 128 51.2v8.533a8.536 8.536 0 0 0 8.533 8.533v17.067A8.536 8.536 0 0 0 128 93.866c0 14.763-7.561 30.174-7.637 30.319-8.875 17.767-16.717 29.415-43.563 29.415-26.854 0-34.688-11.648-43.563-29.406-.077-.154-7.637-15.565-7.637-30.327a8.536 8.536 0 0 0-8.533-8.533V68.267z" fill="rgba(255, 255, 255, 0.5)" stroke="none"/>
  <path d="M93.867 85.333h8.533c4.71 0 8.533-3.823 8.533-8.533s-3.823-8.533-8.533-8.533h-8.533c-4.71 0-8.533 3.823-8.533 8.533s3.822 8.533 8.533 8.533z" fill="rgba(255, 255, 255, 0.5)" stroke="none"/>
  <path d="M51.2 85.333h8.533c4.71 0 8.533-3.823 8.533-8.533s-3.823-8.533-8.533-8.533H51.2c-4.71 0-8.533 3.823-8.533 8.533s3.823 8.533 8.533 8.533z" fill="rgba(255, 255, 255, 0.5)" stroke="none"/>
  <path d="M298.667 153.6H332.8a8.53 8.53 0 0 0 8.533-8.533 8.53 8.53 0 0 0-8.533-8.533h-34.133a8.53 8.53 0 0 0-8.533 8.533 8.53 8.53 0 0 0 8.533 8.533z" fill="rgba(255, 255, 255, 0.5)" stroke="none"/>
  <path d="M401.067 85.333h-102.4a8.53 8.53 0 0 0-8.533 8.533 8.53 8.53 0 0 0 8.533 8.533h102.4a8.53 8.53 0 0 0 8.533-8.533 8.53 8.53 0 0 0-8.533-8.533z" fill="rgba(255, 255, 255, 0.5)" stroke="none"/>
  <path d="M469.325 0H179.2a8.548 8.548 0 0 0-7.885 5.265 8.53 8.53 0 0 0 1.852 9.301l68.275 68.267c3.337 3.337 8.73 3.337 12.066 0s3.337-8.73 0-12.066l-53.7-53.7h269.517c14.114 0 25.609 11.486 25.609 25.6v153.6c0 14.114-11.494 25.6-25.609 25.6h-204.8c-14.114 0-25.591-11.486-25.591-25.6V102.4c0-4.71-3.823-8.533-8.533-8.533s-8.533 3.823-8.533 8.533v93.867c0 23.526 19.14 42.667 42.658 42.667h204.8c23.526 0 42.675-19.14 42.675-42.667v-153.6C512 19.14 492.851 0 469.325 0z" fill="rgba(255, 255, 255, 0.5)" stroke="none"/>
  <path d="M358.4 145.067a8.53 8.53 0 0 0 8.533 8.533H435.2a8.53 8.53 0 0 0 8.533-8.533 8.53 8.53 0 0 0-8.533-8.533h-68.267a8.53 8.53 0 0 0-8.533 8.533z" fill="rgba(255, 255, 255, 0.5)" stroke="none"/>
  <path d="M460.8 341.333h-8.533c-4.719 0-8.533 3.823-8.533 8.533s3.814 8.533 8.533 8.533h8.533c4.719 0 8.533-3.823 8.533-8.533s-3.814-8.533-8.533-8.533z" fill="rgba(255, 255, 255, 0.5)" stroke="none"/>
  <path d="M418.133 341.333H409.6c-4.719 0-8.533 3.823-8.533 8.533s3.814 8.533 8.533 8.533h8.533c4.719 0 8.533-3.823 8.533-8.533s-3.814-8.533-8.533-8.533z" fill="rgba(255, 255, 255, 0.5)" stroke="none"/>
  <path d="M145.067 426.667h68.267c4.71 0 8.533-3.823 8.533-8.533s-3.823-8.533-8.533-8.533h-68.267c-4.71 0-8.533 3.823-8.533 8.533s3.822 8.533 8.533 8.533z" fill="rgba(255, 255, 255, 0.5)" stroke="none"/>
  <path d="M503.467 326.562v-2.295c0-28.237-22.963-51.2-51.2-51.2h-34.133c-28.237 0-51.2 22.963-51.2 51.2v2.295c-5.103 2.953-8.533 8.465-8.533 14.771V358.4c0 6.434 3.584 12.058 8.858 14.959 1.63 16.401 8.764 30.839 9.105 31.522 7.74 15.471 19.43 38.852 58.837 38.852s51.098-23.381 58.829-38.852c.35-.683 7.484-15.121 9.114-31.522 5.274-2.901 8.858-8.525 8.858-14.959v-17.067c-.002-6.306-3.432-11.818-8.535-14.771zm-8.534 31.838a8.53 8.53 0 0 0-8.533 8.533c0 14.763-7.561 30.174-7.637 30.319-8.875 17.766-16.708 29.414-43.563 29.414-26.854 0-34.688-11.648-43.563-29.406-.077-.154-7.637-15.565-7.637-30.327a8.53 8.53 0 0 0-8.533-8.533v-17.067A8.53 8.53 0 0 0 384 332.8v-8.533c0-18.825 15.309-34.133 34.133-34.133h34.133c18.825 0 34.133 15.309 34.133 34.133v8.533a8.53 8.53 0 0 0 8.533 8.533V358.4z" fill="rgba(255, 255, 255, 0.5)" stroke="none"/>
</svg>
</g></svg></g></g>
<!-- /image 28879 -->

<!-- image 74409 -->
<g id="transformed-74409" data-image="74409" transform="translate(-24.020824298928627, -24.020824298928623) rotate(0, 24.020824298928627, 24.020824298928623)"><g><svg version="1.1" width="48.041648597857254px" height="48.04164859785725px" viewBox="0 0 48.041648597857254 48.04164859785725"><g id="original-74409"><svg xmlns="http://www.w3.org/2000/svg" viewBox="0 0 512 512" xmlns:xlink="http://www.w3.org/1999/xlink" version="1.1" preserveAspectRatio="xMidYMid meet">
  <path d="M170.624 314.906c-1.399-14.353-12.143-24.772-25.557-24.772h-102.4c-13.201 0-23.697 10.086-25.566 24.832L6.263 434.142c-.418 4.693 3.038 8.849 7.731 9.276 4.668.375 8.841-3.038 9.276-7.731l10.795-118.878c.563-4.437 3.149-9.609 8.602-9.609h102.4c5.299 0 8.124 4.702 8.568 9.301l16.222 178.432H17.834l1.468-17.067h125.764c4.71 0 8.533-3.823 8.533-8.533s-3.823-8.533-8.533-8.533H11.469a8.527 8.527 0 0 0-8.499 7.808L.035 502.741a8.503 8.503 0 0 0 2.21 6.494A8.56 8.56 0 0 0 8.534 512H179.2a8.505 8.505 0 0 0 6.298-2.782 8.523 8.523 0 0 0 2.202-6.519l-17.076-187.793z" fill="rgba(255, 255, 255, 0.5)" stroke="none"/>
  <path d="M509.798 2.816A8.522 8.522 0 0 0 503.466 0H332.8a8.505 8.505 0 0 0-6.298 2.782 8.48 8.48 0 0 0-2.202 6.519l17.075 187.793c1.391 14.353 12.143 24.772 25.557 24.772h102.4c13.193 0 23.936-10.359 25.566-24.832L505.736 77.85c.418-4.685-3.038-8.841-7.731-9.267-4.753-.384-8.841 3.038-9.276 7.731l-10.812 118.997c-.529 4.719-3.396 9.489-8.585 9.489h-102.4c-5.291 0-8.115-4.702-8.567-9.301L342.144 17.067h151.885l-1.741 17.067H366.933a8.53 8.53 0 0 0-8.533 8.533 8.53 8.53 0 0 0 8.533 8.533h133.069a8.54 8.54 0 0 0 8.491-7.671l3.465-34.133a8.538 8.538 0 0 0-2.16-6.58z" fill="rgba(255, 255, 255, 0.5)" stroke="none"/>
  <path d="M418.133 238.933a8.53 8.53 0 0 0-8.533 8.533v128c0 28.237-22.963 51.2-51.2 51.2s-51.2-22.963-51.2-51.2V230.4c0-14.114-11.486-25.6-25.6-25.6S256 216.286 256 230.4v51.2c0 4.702-3.831 8.533-8.533 8.533s-8.533-3.831-8.533-8.533V145.067c0-42.342-34.458-76.8-76.8-76.8s-76.8 34.458-76.8 76.8v119.467a8.536 8.536 0 0 0 8.533 8.533 8.536 8.536 0 0 0 8.533-8.533V145.067c0-32.939 26.795-59.733 59.733-59.733s59.733 26.795 59.733 59.733V281.6c0 14.114 11.486 25.6 25.6 25.6s25.6-11.486 25.6-25.6v-51.2c0-4.702 3.823-8.533 8.533-8.533s8.533 3.831 8.533 8.533v145.067c0 37.641 30.626 68.267 68.267 68.267 37.641 0 68.267-30.626 68.267-68.267v-128a8.53 8.53 0 0 0-8.533-8.534z" fill="rgba(255, 255, 255, 0.5)" stroke="none"/>
</svg>
</g></svg></g></g>
<!-- /image 74409 -->
</defs><rect x="0" y="0" width="200" height="100" fill="rgba(0, 102, 204, 1)"></rect><use xlink:href="#transformed-28879" transform="translate(-200, -100)"></use><use xlink:href="#transformed-28879" transform="translate(0, -100)"></use><use xlink:href="#transformed-28879" transform="translate(200, -100)"></use><use xlink:href="#transformed-28879" transform="translate(-200, 0)"></use><use xlink:href="#transformed-28879" transform="translate(0, 0)"></use><use xlink:href="#transformed-28879" transform="translate(200, 0)"></use><use xlink:href="#transformed-28879" transform="translate(-200, 100)"></use><use xlink:href="#transformed-28879" transform="translate(0, 100)"></use><use xlink:href="#transformed-28879" transform="translate(200, 100)"></use><use xlink:href="#transformed-74409" transform="translate(-200, -100)"></use><use xlink:href="#transformed-74409" transform="translate(0, -100)"></use><use xlink:href="#transformed-74409" transform="translate(200, -100)"></use><use xlink:href="#transformed-74409" transform="translate(-200, 0)"></use><use xlink:href="#transformed-74409" transform="translate(0, 0)"></use><use xlink:href="#transformed-74409" transform="translate(200, 0)"></use><use xlink:href="#transformed-74409" transform="translate(-200, 100)"></use><use xlink:href="#transformed-74409" transform="translate(0, 100)"></use><use xlink:href="#transformed-74409" transform="translate(200, 100)"></use></svg>