<svg version="1.1"
      xmlns="http://www.w3.org/2000/svg"
      xmlns:xlink="http://www.w3.org/1999/xlink"  id="snapshot-28061" width="200" height="100" viewBox="0 0 200 100"><desc>This image was made on Patterninja.com</desc><defs>
<!-- image 71612 -->
<g id="transformed-71612" data-image="71612" transform="translate(-23.999999999999996, -24) rotate(0, 23.999999999999996, 24)"><g><svg version="1.1" width="47.99999999999999px" height="48px" viewBox="0 0 47.99999999999999 48"><g id="original-71612"><svg xmlns="http://www.w3.org/2000/svg" viewBox="0 0 512 512" xmlns:xlink="http://www.w3.org/1999/xlink" version="1.1" preserveAspectRatio="xMidYMid meet">
  <path d="M230.656 366.933a8.536 8.536 0 0 0-8.533-8.533h-.085c-4.71 0-8.491 3.823-8.491 8.533s3.866 8.533 8.576 8.533 8.533-3.822 8.533-8.533z" fill="rgba(255, 255, 255, 0.5)" stroke="none"/>
  <path d="M418.133 477.867a8.53 8.53 0 0 0 8.533-8.533v-51.2a8.53 8.53 0 0 0-8.533-8.533H332.8a8.53 8.53 0 0 0-8.533 8.533v51.2a8.53 8.53 0 0 0 8.533 8.533 8.53 8.53 0 0 0 8.533-8.533v-42.667H409.6v42.667a8.53 8.53 0 0 0 8.533 8.533z" fill="rgba(255, 255, 255, 0.5)" stroke="none"/>
  <path d="M384 153.6a8.53 8.53 0 0 0 8.533-8.533 8.53 8.53 0 0 0-8.533-8.533h-34.133a8.53 8.53 0 0 0-8.533 8.533 8.53 8.53 0 0 0 8.533 8.533H384z" fill="rgba(255, 255, 255, 0.5)" stroke="none"/>
  <path d="M298.667 477.867a8.53 8.53 0 0 0 8.533-8.533v-51.2a8.53 8.53 0 0 0-8.533-8.533h-85.333a8.536 8.536 0 0 0-8.533 8.533v51.2a8.536 8.536 0 0 0 8.533 8.533 8.536 8.536 0 0 0 8.533-8.533v-42.667h68.267v42.667a8.53 8.53 0 0 0 8.533 8.533z" fill="rgba(255, 255, 255, 0.5)" stroke="none"/>
  <path d="M452.267 153.6a8.53 8.53 0 0 0 8.533-8.533 8.53 8.53 0 0 0-8.533-8.533h-34.133a8.53 8.53 0 0 0-8.533 8.533 8.53 8.53 0 0 0 8.533 8.533h34.133z" fill="rgba(255, 255, 255, 0.5)" stroke="none"/>
  <path d="M469.333 0H42.667C19.14 0 0 19.14 0 42.667v51.2a8.536 8.536 0 0 0 8.533 8.533h460.8a8.53 8.53 0 0 0 8.533-8.533 8.53 8.53 0 0 0-8.533-8.533H17.067V42.667c0-14.114 11.486-25.6 25.6-25.6h426.667c14.114 0 25.6 11.486 25.6 25.6v426.667c0 14.114-11.486 25.6-25.6 25.6H42.667c-14.114 0-25.6-11.486-25.6-25.6V128c0-4.71-3.823-8.533-8.533-8.533S0 123.29 0 128v341.333C0 492.86 19.14 512 42.667 512h426.667C492.86 512 512 492.86 512 469.333V42.667C512 19.14 492.86 0 469.333 0z" fill="rgba(255, 255, 255, 0.5)" stroke="none"/>
  <path d="M85.333 196.267V332.8a8.536 8.536 0 0 0 8.533 8.533H179.2a8.526 8.526 0 0 0 6.033-2.5l62.234-62.234 28.1 28.1a8.525 8.525 0 0 0 12.066 0l45.167-45.167 45.167 45.167a8.525 8.525 0 0 0 12.066 0 8.523 8.523 0 0 0 0-12.066l-51.2-51.2a8.525 8.525 0 0 0-12.066 0L281.6 286.601l-28.1-28.1a8.525 8.525 0 0 0-12.066 0l-65.766 65.766H102.4V204.8h307.2v119.467H230.4a8.536 8.536 0 0 0-8.533 8.533 8.536 8.536 0 0 0 8.533 8.533h187.733a8.53 8.53 0 0 0 8.533-8.533V196.267a8.53 8.53 0 0 0-8.533-8.533H93.867c-4.711-.001-8.534 3.822-8.534 8.533z" fill="rgba(255, 255, 255, 0.5)" stroke="none"/>
  <path d="M315.733 153.6a8.53 8.53 0 0 0 8.533-8.533 8.53 8.53 0 0 0-8.533-8.533H281.6a8.53 8.53 0 0 0-8.533 8.533 8.53 8.53 0 0 0 8.533 8.533h34.133z" fill="rgba(255, 255, 255, 0.5)" stroke="none"/>
  <path d="M153.6 51.2c0 9.412 7.654 17.067 17.067 17.067 9.412 0 17.067-7.654 17.067-17.067 0-9.412-7.654-17.067-17.067-17.067S153.6 41.788 153.6 51.2z" fill="rgba(255, 255, 255, 0.5)" stroke="none"/>
  <path d="M179.2 477.867a8.536 8.536 0 0 0 8.533-8.533v-51.2a8.536 8.536 0 0 0-8.533-8.533H93.867a8.536 8.536 0 0 0-8.533 8.533v51.2a8.536 8.536 0 0 0 8.533 8.533 8.536 8.536 0 0 0 8.533-8.533v-42.667h68.267v42.667a8.536 8.536 0 0 0 8.533 8.533z" fill="rgba(255, 255, 255, 0.5)" stroke="none"/>
  <path d="M128 136.533H59.733a8.536 8.536 0 0 0-8.533 8.533 8.536 8.536 0 0 0 8.533 8.533H128a8.536 8.536 0 0 0 8.533-8.533 8.536 8.536 0 0 0-8.533-8.533z" fill="rgba(255, 255, 255, 0.5)" stroke="none"/>
  <path d="M102.4 51.2c0 9.412 7.654 17.067 17.067 17.067s17.067-7.654 17.067-17.067c0-9.412-7.654-17.067-17.067-17.067S102.4 41.788 102.4 51.2z" fill="rgba(255, 255, 255, 0.5)" stroke="none"/>
  <path d="M51.2 51.2c0 9.412 7.654 17.067 17.067 17.067 9.412 0 17.067-7.654 17.067-17.067 0-9.412-7.654-17.067-17.067-17.067S51.2 41.788 51.2 51.2z" fill="rgba(255, 255, 255, 0.5)" stroke="none"/>
  <path d="M298.923 366.933a8.536 8.536 0 0 0-8.533-8.533h-.085c-4.71 0-8.491 3.823-8.491 8.533s3.866 8.533 8.576 8.533 8.533-3.822 8.533-8.533z" fill="rgba(255, 255, 255, 0.5)" stroke="none"/>
  <path d="M264.789 366.933a8.536 8.536 0 0 0-8.533-8.533h-.085c-4.71 0-8.491 3.823-8.491 8.533s3.857 8.533 8.576 8.533c4.71.001 8.533-3.822 8.533-8.533z" fill="rgba(255, 255, 255, 0.5)" stroke="none"/>
  <path d="M136.533 247.467c0 14.114 11.486 25.6 25.6 25.6s25.6-11.486 25.6-25.6-11.486-25.6-25.6-25.6-25.6 11.486-25.6 25.6zm34.134 0c0 4.702-3.831 8.533-8.533 8.533s-8.533-3.831-8.533-8.533 3.831-8.533 8.533-8.533c4.701-.001 8.533 3.831 8.533 8.533z" fill="rgba(255, 255, 255, 0.5)" stroke="none"/>
</svg>
</g></svg></g></g>
<!-- /image 71612 -->

<!-- image 66233 -->
<g id="transformed-66233" data-image="66233" transform="translate(77.00000000000001, 32) rotate(0, 23.99999999999999, 24)"><g><svg version="1.1" width="47.99999999999998px" height="48px" viewBox="0 0 47.99999999999998 48"><g id="original-66233"><svg xmlns="http://www.w3.org/2000/svg" viewBox="0 0 512 512" xmlns:xlink="http://www.w3.org/1999/xlink" version="1.1" preserveAspectRatio="xMidYMid meet">
  <path d="M315.733 307.2H25.6C11.486 307.2 0 318.686 0 332.8v153.6C0 500.514 11.486 512 25.6 512h290.133c14.114 0 25.6-11.486 25.6-25.6V332.8c0-14.114-11.486-25.6-25.6-25.6zm8.534 179.2c0 4.702-3.831 8.533-8.533 8.533H25.6c-4.702 0-8.533-3.831-8.533-8.533V332.8c0-4.702 3.831-8.533 8.533-8.533h290.133c4.702 0 8.533 3.831 8.533 8.533v153.6z" fill="rgba(255, 255, 255, 0.5)" stroke="none"/>
  <path d="M213.333 204.8H281.6c4.71 0 8.533-3.823 8.533-8.533s-3.823-8.533-8.533-8.533h-68.267c-4.71 0-8.533 3.823-8.533 8.533s3.823 8.533 8.533 8.533z" fill="rgba(255, 255, 255, 0.5)" stroke="none"/>
  <path d="M162.133 409.6H230.4c4.71 0 8.533-3.823 8.533-8.533s-3.823-8.533-8.533-8.533h-68.267c-4.71 0-8.533 3.823-8.533 8.533s3.823 8.533 8.533 8.533z" fill="rgba(255, 255, 255, 0.5)" stroke="none"/>
  <path d="M59.733 290.133c14.114 0 25.6-11.486 25.6-25.6V42.667c0-1.289-.333-2.483-.845-3.576-.034-.077-.017-.162-.06-.239L67.362 4.719c-2.884-5.786-12.373-5.786-15.266 0L35.029 38.852c-.034.077-.017.162-.051.239-.512 1.092-.845 2.287-.845 3.576v221.867c0 14.113 11.486 25.599 25.6 25.599zm0-262.519l3.26 6.519h-6.519l3.259-6.519zM51.2 51.2h17.067v187.733H51.2V51.2zm0 204.8h17.067v8.533c0 4.702-3.831 8.533-8.533 8.533s-8.533-3.831-8.533-8.533V256z" fill="rgba(255, 255, 255, 0.5)" stroke="none"/>
  <path d="M281.6 443.733H162.133a8.536 8.536 0 0 0-8.533 8.533 8.536 8.536 0 0 0 8.533 8.533H281.6a8.536 8.536 0 0 0 8.533-8.533 8.536 8.536 0 0 0-8.533-8.533z" fill="rgba(255, 255, 255, 0.5)" stroke="none"/>
  <path d="M162.133 375.467h51.2c4.71 0 8.533-3.823 8.533-8.533s-3.823-8.533-8.533-8.533h-51.2c-4.71 0-8.533 3.823-8.533 8.533s3.823 8.533 8.533 8.533z" fill="rgba(255, 255, 255, 0.5)" stroke="none"/>
  <path d="M85.333 358.4c-18.825 0-34.133 15.309-34.133 34.133 0 18.825 15.309 34.133 34.133 34.133 18.825 0 34.133-15.309 34.133-34.133.001-18.824-15.308-34.133-34.133-34.133zm0 51.2c-9.412 0-17.067-7.654-17.067-17.067 0-9.412 7.654-17.067 17.067-17.067 9.412 0 17.067 7.654 17.067 17.067S94.746 409.6 85.333 409.6z" fill="rgba(255, 255, 255, 0.5)" stroke="none"/>
  <path d="M349.867 119.467H435.2c4.71 0 8.533-3.823 8.533-8.533s-3.823-8.533-8.533-8.533h-85.333c-4.71 0-8.533 3.823-8.533 8.533s3.822 8.533 8.533 8.533z" fill="rgba(255, 255, 255, 0.5)" stroke="none"/>
  <path d="M460.8 409.6c-9.412 0-17.067 7.654-17.067 17.067s7.654 17.067 17.067 17.067c9.412 0 17.067-7.654 17.067-17.067S470.212 409.6 460.8 409.6z" fill="rgba(255, 255, 255, 0.5)" stroke="none"/>
  <path d="M384 341.333h-17.067c-4.71 0-8.533 3.823-8.533 8.533s3.823 8.533 8.533 8.533H384c4.71 0 8.533-3.823 8.533-8.533s-3.823-8.533-8.533-8.533z" fill="rgba(255, 255, 255, 0.5)" stroke="none"/>
  <path d="M384 375.467h-17.067c-4.71 0-8.533 3.823-8.533 8.533s3.823 8.533 8.533 8.533H384c4.71 0 8.533-3.823 8.533-8.533s-3.823-8.533-8.533-8.533z" fill="rgba(255, 255, 255, 0.5)" stroke="none"/>
  <path d="M486.4 341.333h-51.2c-14.114 0-25.6 11.486-25.6 25.6V486.4c0 14.114 11.486 25.6 25.6 25.6h51.2c14.114 0 25.6-11.486 25.6-25.6V366.933c0-14.114-11.486-25.6-25.6-25.6zm8.533 145.067c0 4.702-3.831 8.533-8.533 8.533h-51.2c-4.702 0-8.533-3.831-8.533-8.533V366.933c0-4.702 3.831-8.533 8.533-8.533h51.2c4.702 0 8.533 3.831 8.533 8.533V486.4z" fill="rgba(255, 255, 255, 0.5)" stroke="none"/>
  <path d="M486.4 0H162.133c-14.114 0-25.6 11.486-25.6 25.6v256a8.536 8.536 0 0 0 8.533 8.533 8.536 8.536 0 0 0 8.533-8.533v-256c0-4.702 3.831-8.533 8.533-8.533H486.4c4.702 0 8.533 3.831 8.533 8.533v290.133c0 4.71 3.823 8.533 8.533 8.533s8.533-3.823 8.533-8.533V25.6C512 11.486 500.514 0 486.4 0z" fill="rgba(255, 255, 255, 0.5)" stroke="none"/>
  <path d="M384 494.933h-17.067c-4.71 0-8.533 3.823-8.533 8.533s3.823 8.533 8.533 8.533H384c4.71 0 8.533-3.823 8.533-8.533s-3.823-8.533-8.533-8.533z" fill="rgba(255, 255, 255, 0.5)" stroke="none"/>
  <path d="M213.333 256H332.8c4.71 0 8.533-3.823 8.533-8.533s-3.823-8.533-8.533-8.533H213.333c-4.71 0-8.533 3.823-8.533 8.533s3.823 8.533 8.533 8.533z" fill="rgba(255, 255, 255, 0.5)" stroke="none"/>
  <path d="M213.333 290.133H281.6c4.71 0 8.533-3.823 8.533-8.533s-3.823-8.533-8.533-8.533h-68.267c-4.71 0-8.533 3.823-8.533 8.533s3.823 8.533 8.533 8.533z" fill="rgba(255, 255, 255, 0.5)" stroke="none"/>
  <path d="M435.2 238.933h-68.267c-4.71 0-8.533 3.823-8.533 8.533s3.823 8.533 8.533 8.533H435.2c4.71 0 8.533-3.823 8.533-8.533s-3.823-8.533-8.533-8.533z" fill="rgba(255, 255, 255, 0.5)" stroke="none"/>
  <path d="M238.933 136.533c18.825 0 34.133-15.309 34.133-34.133 0-18.825-15.309-34.133-34.133-34.133S204.8 83.575 204.8 102.4c0 18.825 15.309 34.133 34.133 34.133zm0-51.2c9.412 0 17.067 7.654 17.067 17.067 0 9.412-7.654 17.067-17.067 17.067s-17.067-7.654-17.067-17.067c.001-9.412 7.655-17.067 17.067-17.067z" fill="rgba(255, 255, 255, 0.5)" stroke="none"/>
  <path d="M349.867 85.333h68.267c4.71 0 8.533-3.823 8.533-8.533s-3.823-8.533-8.533-8.533h-68.267c-4.71 0-8.533 3.823-8.533 8.533s3.822 8.533 8.533 8.533z" fill="rgba(255, 255, 255, 0.5)" stroke="none"/>
  <path d="M435.2 307.2h-68.267c-4.71 0-8.533 3.823-8.533 8.533s3.823 8.533 8.533 8.533H435.2c4.71 0 8.533-3.823 8.533-8.533s-3.823-8.533-8.533-8.533z" fill="rgba(255, 255, 255, 0.5)" stroke="none"/>
  <path d="M307.2 281.6a8.536 8.536 0 0 0 8.533 8.533h102.4c4.71 0 8.533-3.823 8.533-8.533s-3.823-8.533-8.533-8.533h-102.4a8.536 8.536 0 0 0-8.533 8.533z" fill="rgba(255, 255, 255, 0.5)" stroke="none"/>
</svg>
</g></svg></g></g>
<!-- /image 66233 -->
</defs><rect x="0" y="0" width="200" height="100" fill="rgba(0, 102, 204, 1)"></rect><use xlink:href="#transformed-71612" transform="translate(-200, -100)"></use><use xlink:href="#transformed-71612" transform="translate(0, -100)"></use><use xlink:href="#transformed-71612" transform="translate(200, -100)"></use><use xlink:href="#transformed-71612" transform="translate(-200, 0)"></use><use xlink:href="#transformed-71612" transform="translate(0, 0)"></use><use xlink:href="#transformed-71612" transform="translate(200, 0)"></use><use xlink:href="#transformed-71612" transform="translate(-200, 100)"></use><use xlink:href="#transformed-71612" transform="translate(0, 100)"></use><use xlink:href="#transformed-71612" transform="translate(200, 100)"></use><use xlink:href="#transformed-66233" transform="translate(-200, -100)"></use><use xlink:href="#transformed-66233" transform="translate(0, -100)"></use><use xlink:href="#transformed-66233" transform="translate(200, -100)"></use><use xlink:href="#transformed-66233" transform="translate(-200, 0)"></use><use xlink:href="#transformed-66233" transform="translate(0, 0)"></use><use xlink:href="#transformed-66233" transform="translate(200, 0)"></use><use xlink:href="#transformed-66233" transform="translate(-200, 100)"></use><use xlink:href="#transformed-66233" transform="translate(0, 100)"></use><use xlink:href="#transformed-66233" transform="translate(200, 100)"></use></svg>