<svg version="1.1"
      xmlns="http://www.w3.org/2000/svg"
      xmlns:xlink="http://www.w3.org/1999/xlink"  id="snapshot-23624" width="200" height="100" viewBox="0 0 200 100"><desc>This image was made on Patterninja.com</desc><defs>
<!-- image 11836 -->
<g id="transformed-11836" data-image="11836" transform="translate(-24, -24) rotate(0, 24, 24)"><g><svg version="1.1" width="48px" height="48px" viewBox="0 0 48 48"><g id="original-11836"><svg xmlns="http://www.w3.org/2000/svg" viewBox="0 0 512 512" xmlns:xlink="http://www.w3.org/1999/xlink" version="1.1" preserveAspectRatio="xMidYMid meet">
  <path d="M469.333 290.133a8.53 8.53 0 0 0 8.533-8.533v-34.133a8.53 8.53 0 0 0-8.533-8.533h-42.667V230.4c0-4.71-3.814-8.533-8.533-8.533s-8.533 3.823-8.533 8.533v8.533H170.667V230.4a8.536 8.536 0 0 0-8.533-8.533 8.536 8.536 0 0 0-8.533 8.533v8.533h-42.667a8.536 8.536 0 0 0-8.533 8.533V281.6a8.536 8.536 0 0 0 8.533 8.533h358.399zm-349.866-17.066V256H460.8v17.067H119.467z" fill="rgba(255, 255, 255, 0.5)" stroke="none"/>
  <path d="M307.2 187.733c-13.798 0-22.716 10.487-23.689 11.691-2.953 3.627-2.406 8.926 1.203 11.913 3.618 2.995 8.969 2.475 11.998-1.092.034-.06 4.659-5.444 10.487-5.444s10.445 5.385 10.445 5.385a8.525 8.525 0 0 0 6.63 3.149 8.487 8.487 0 0 0 5.376-1.911c3.661-2.97 4.207-8.346 1.237-11.998-.971-1.205-9.889-11.693-23.687-11.693z" fill="rgba(255, 255, 255, 0.5)" stroke="none"/>
  <path d="M469.333 358.4a8.53 8.53 0 0 0 8.533-8.533v-34.133a8.53 8.53 0 0 0-8.533-8.533h-42.667v-8.533c0-4.71-3.814-8.533-8.533-8.533s-8.533 3.823-8.533 8.533v8.533H170.667v-8.533a8.536 8.536 0 0 0-8.533-8.533 8.536 8.536 0 0 0-8.533 8.533v8.533h-42.667a8.536 8.536 0 0 0-8.533 8.533v34.133a8.536 8.536 0 0 0 8.533 8.533h358.399zm-349.866-17.067v-17.067H460.8v17.067H119.467z" fill="rgba(255, 255, 255, 0.5)" stroke="none"/>
  <path d="M351.778 167.509a8.508 8.508 0 0 0 6.63 3.157 8.487 8.487 0 0 0 5.376-1.911c3.661-2.97 4.207-8.346 1.237-11.998-.973-1.203-9.89-11.691-23.689-11.691s-22.716 10.487-23.689 11.691c-2.953 3.627-2.406 8.926 1.203 11.913 3.618 3.004 8.969 2.475 11.989-1.092.043-.06 4.668-5.444 10.496-5.444 5.831-.001 10.447 5.375 10.447 5.375z" fill="rgba(255, 255, 255, 0.5)" stroke="none"/>
  <path d="M8.576 111.787a8.528 8.528 0 0 0 8.491 7.68h51.2a8.53 8.53 0 0 0 8.491-7.68l8.533-85.333a8.532 8.532 0 0 0-2.167-6.579 8.523 8.523 0 0 0-6.323-2.807H51.2V8.533A8.536 8.536 0 0 0 42.667 0a8.536 8.536 0 0 0-8.533 8.533v8.533h-25.6a8.527 8.527 0 0 0-6.323 2.807 8.532 8.532 0 0 0-2.167 6.579l8.532 85.335zm58.795-77.654L60.544 102.4H24.789l-6.827-68.267h49.409z" fill="rgba(255, 255, 255, 0.5)" stroke="none"/>
  <path d="M238.933 196.267c0 9.54 3.9 18.415 10.982 24.977a8.512 8.512 0 0 0 5.803 2.278 8.525 8.525 0 0 0 6.255-2.731c3.2-3.456 3.004-8.858-.452-12.066-3.567-3.294-5.521-7.723-5.521-12.459 0-7.066 4.497-13.474 11.204-15.94a8.518 8.518 0 0 0 5.41-6.332 8.548 8.548 0 0 0-2.56-7.936c-3.567-3.294-5.521-7.723-5.521-12.459 0-8.875 6.989-16.299 15.906-16.913a8.526 8.526 0 0 0 5.709-14.276c-2.935-3.2-4.548-7.279-4.548-11.477 0-8.875 6.989-16.299 15.906-16.913a8.526 8.526 0 0 0 5.709-14.276c-2.927-3.2-4.548-7.279-4.548-11.477 0-7.629 5.197-14.362 12.629-16.375a8.525 8.525 0 0 0 5.41-4.429 8.483 8.483 0 0 0 .282-6.98c-.828-2.091-1.254-4.224-1.254-6.349 0-9.412 7.654-17.067 17.067-17.067 9.412 0 17.067 7.654 17.067 17.067 0 2.125-.427 4.258-1.254 6.349a8.48 8.48 0 0 0 .282 6.98 8.525 8.525 0 0 0 5.41 4.429c7.433 2.014 12.629 8.747 12.629 16.375 0 4.198-1.621 8.277-4.548 11.477a8.528 8.528 0 0 0 5.709 14.276c8.917.614 15.906 8.038 15.906 16.913 0 4.198-1.621 8.277-4.548 11.477a8.528 8.528 0 0 0 5.709 14.276c8.917.614 15.906 8.038 15.906 16.913 0 4.736-1.954 9.165-5.521 12.459a8.548 8.548 0 0 0-2.56 7.936 8.512 8.512 0 0 0 5.419 6.332c6.699 2.466 11.196 8.875 11.196 15.94 0 4.71 3.814 8.533 8.533 8.533s8.533-3.823 8.533-8.533c0-10.394-4.821-20.062-12.663-26.428 2.697-4.924 4.13-10.462 4.13-16.239 0-13.346-7.851-25.071-19.302-30.618a33.6 33.6 0 0 0 2.236-12.049c0-13.346-7.851-25.071-19.302-30.618a33.6 33.6 0 0 0 2.236-12.049c0-12.442-6.844-23.68-17.374-29.628.205-1.493.307-2.995.307-4.506C366.933 15.309 351.625 0 332.8 0c-18.825 0-34.133 15.309-34.133 34.133 0 1.51.102 3.012.307 4.506-10.53 5.948-17.374 17.186-17.374 29.628a33.6 33.6 0 0 0 2.236 12.049c-11.452 5.547-19.302 17.271-19.302 30.618a33.6 33.6 0 0 0 2.236 12.049c-11.452 5.547-19.302 17.271-19.302 30.618 0 5.777 1.434 11.315 4.13 16.239-7.843 6.365-12.665 16.033-12.665 26.427z" fill="rgba(255, 255, 255, 0.5)" stroke="none"/>
  <path d="M321.016 118.793c4.335 1.792 9.327-.273 11.145-4.608.162-.41.401-.862.64-1.306.239.427.461.87.623 1.271a8.545 8.545 0 0 0 7.91 5.325 8.342 8.342 0 0 0 3.208-.64c4.369-1.766 6.477-6.75 4.702-11.11-.947-2.313-6.152-13.858-16.444-13.858-10.291 0-15.497 11.546-16.444 13.858-1.766 4.343.325 9.276 4.66 11.068z" fill="rgba(255, 255, 255, 0.5)" stroke="none"/>
  <path d="M503.467 494.933H366.933c-4.719 0-8.533 3.823-8.533 8.533s3.814 8.533 8.533 8.533h136.533c4.719 0 8.533-3.823 8.533-8.533s-3.813-8.533-8.532-8.533z" fill="rgba(255, 255, 255, 0.5)" stroke="none"/>
  <path d="M503.467 375.467h-76.8v-8.533c0-4.71-3.814-8.533-8.533-8.533s-8.533 3.823-8.533 8.533v8.533H170.667v-8.533a8.536 8.536 0 0 0-8.533-8.533 8.536 8.536 0 0 0-8.533 8.533v8.533H76.8A8.536 8.536 0 0 0 68.267 384v34.133a8.536 8.536 0 0 0 8.533 8.533h25.6v42.667c0 4.71 3.823 8.533 8.533 8.533s8.533-3.823 8.533-8.533v-42.667H460.8v42.667c0 4.71 3.814 8.533 8.533 8.533s8.533-3.823 8.533-8.533v-42.667h25.6a8.53 8.53 0 0 0 8.533-8.533V384a8.53 8.53 0 0 0-8.532-8.533zm-8.534 34.133h-409.6v-17.067h409.6V409.6z" fill="rgba(255, 255, 255, 0.5)" stroke="none"/>
  <path d="M128 494.933H51.2V145.067a8.536 8.536 0 0 0-8.533-8.533 8.536 8.536 0 0 0-8.533 8.533v349.867h-25.6c-4.71 0-8.533 3.823-8.533 8.533S3.823 512 8.533 512H128c4.71 0 8.533-3.823 8.533-8.533s-3.823-8.534-8.533-8.534z" fill="rgba(255, 255, 255, 0.5)" stroke="none"/>
  <path d="M332.8 494.933h-17.067c-4.719 0-8.533 3.823-8.533 8.533s3.814 8.533 8.533 8.533H332.8c4.719 0 8.533-3.823 8.533-8.533s-3.814-8.533-8.533-8.533z" fill="rgba(255, 255, 255, 0.5)" stroke="none"/>
  <path d="M264.533 494.933H179.2c-4.71 0-8.533 3.823-8.533 8.533S174.49 512 179.2 512h85.333c4.719 0 8.533-3.823 8.533-8.533s-3.814-8.534-8.533-8.534z" fill="rgba(255, 255, 255, 0.5)" stroke="none"/>
</svg>
</g></svg></g></g>
<!-- /image 11836 -->

<!-- image 47787 -->
<g id="transformed-47787" data-image="47787" transform="translate(70, 23) rotate(0, 24, 24)"><g><svg version="1.1" width="48px" height="48px" viewBox="0 0 48 48"><g id="original-47787"><svg xmlns="http://www.w3.org/2000/svg" viewBox="0 0 512 512" xmlns:xlink="http://www.w3.org/1999/xlink" version="1.1" preserveAspectRatio="xMidYMid meet">
  <path d="M110.933 324.267c-14.114 0-25.6 11.486-25.6 25.6s11.486 25.6 25.6 25.6 25.6-11.486 25.6-25.6-11.486-25.6-25.6-25.6zm0 34.133c-4.702 0-8.533-3.831-8.533-8.533s3.831-8.533 8.533-8.533 8.533 3.831 8.533 8.533c.001 4.702-3.831 8.533-8.533 8.533z" fill="rgba(255, 255, 255, 0.5)" stroke="none"/>
  <path d="M452.267 68.267H25.6c-14.114 0-25.6 11.486-25.6 25.6V332.8c0 14.114 11.486 25.6 25.6 25.6 4.71 0 8.533-3.823 8.533-8.533s-3.823-8.533-8.533-8.533c-4.702 0-8.533-3.831-8.533-8.533v-25.6H25.6c4.71 0 8.533-3.823 8.533-8.533s-3.823-8.533-8.533-8.533h-8.533V93.867c0-4.702 3.831-8.533 8.533-8.533h366.933V102.4H42.667a8.536 8.536 0 0 0-8.533 8.533 8.536 8.536 0 0 0 8.533 8.533H51.2v102.4h-8.533c-4.71 0-8.533 3.823-8.533 8.533s3.823 8.533 8.533 8.533h349.867v34.133c0 4.71 3.823 8.533 8.533 8.533s8.533-3.823 8.533-8.533v-34.133h85.333v51.2H486.4c-4.71 0-8.533 3.823-8.533 8.533s3.823 8.533 8.533 8.533h8.533v25.6c0 4.702-3.831 8.533-8.533 8.533h-26.283c-4.156-28.902-29.013-51.2-59.051-51.2-32.939 0-59.733 26.795-59.733 59.733 0 32.939 26.795 59.733 59.733 59.733 30.037 0 54.895-22.298 59.051-51.2H486.4c14.114 0 25.6-11.486 25.6-25.6V128c0-33.493-26.24-59.733-59.733-59.733zm-315.734 153.6H68.267v-102.4h68.267v102.4zm85.334 0H153.6v-102.4h68.267v102.4zm85.333 0h-68.267v-102.4H307.2v102.4zm85.333 0h-68.267v-102.4h68.267v102.4zm8.534 170.666c-23.526 0-42.667-19.14-42.667-42.667 0-23.526 19.14-42.667 42.667-42.667 23.526 0 42.667 19.14 42.667 42.667-.001 23.527-19.141 42.667-42.667 42.667zm93.866-170.666h-28.86l10.897-21.786c2.108-4.215.393-9.335-3.823-11.443-4.224-2.125-9.344-.401-11.452 3.814l-14.703 29.414H409.6V85.333h42.667c24.329 0 42.667 18.338 42.667 42.667v93.867z" fill="rgba(255, 255, 255, 0.5)" stroke="none"/>
  <path d="M324.267 349.867a8.536 8.536 0 0 0-8.533-8.533h-145.75c-4.156-28.902-29.013-51.2-59.051-51.2-32.939 0-59.733 26.795-59.733 59.733 0 32.939 26.795 59.733 59.733 59.733 30.037 0 54.895-22.298 59.051-51.2h145.749c4.711 0 8.534-3.823 8.534-8.533zm-213.334 42.666c-23.526 0-42.667-19.14-42.667-42.667 0-23.526 19.14-42.667 42.667-42.667 23.526 0 42.667 19.14 42.667 42.667s-19.14 42.667-42.667 42.667z" fill="rgba(255, 255, 255, 0.5)" stroke="none"/>
  <path d="M401.067 324.267c-14.114 0-25.6 11.486-25.6 25.6s11.486 25.6 25.6 25.6 25.6-11.486 25.6-25.6-11.486-25.6-25.6-25.6zm0 34.133c-4.702 0-8.533-3.831-8.533-8.533s3.831-8.533 8.533-8.533 8.533 3.831 8.533 8.533-3.831 8.533-8.533 8.533z" fill="rgba(255, 255, 255, 0.5)" stroke="none"/>
  <path d="M128 426.667H8.533C3.823 426.667 0 430.49 0 435.2s3.823 8.533 8.533 8.533H128c4.71 0 8.533-3.823 8.533-8.533s-3.823-8.533-8.533-8.533z" fill="rgba(255, 255, 255, 0.5)" stroke="none"/>
  <path d="M332.8 426.667h-17.067c-4.71 0-8.533 3.823-8.533 8.533s3.823 8.533 8.533 8.533H332.8c4.71 0 8.533-3.823 8.533-8.533s-3.823-8.533-8.533-8.533z" fill="rgba(255, 255, 255, 0.5)" stroke="none"/>
  <path d="M503.467 426.667H366.933c-4.71 0-8.533 3.823-8.533 8.533s3.823 8.533 8.533 8.533h136.533c4.71 0 8.533-3.823 8.533-8.533s-3.822-8.533-8.532-8.533z" fill="rgba(255, 255, 255, 0.5)" stroke="none"/>
  <path d="M264.533 426.667H179.2c-4.71 0-8.533 3.823-8.533 8.533s3.823 8.533 8.533 8.533h85.333c4.71 0 8.533-3.823 8.533-8.533s-3.822-8.533-8.533-8.533z" fill="rgba(255, 255, 255, 0.5)" stroke="none"/>
  <path d="M332.8 307.2c4.71 0 8.533-3.823 8.533-8.533s-3.823-8.533-8.533-8.533H179.2c-4.71 0-8.533 3.823-8.533 8.533s3.823 8.533 8.533 8.533h153.6z" fill="rgba(255, 255, 255, 0.5)" stroke="none"/>
</svg>
</g></svg></g></g>
<!-- /image 47787 -->
</defs><rect x="0" y="0" width="200" height="100" fill="rgba(0, 102, 204, 1)"></rect><use xlink:href="#transformed-11836" transform="translate(-200, -100)"></use><use xlink:href="#transformed-11836" transform="translate(0, -100)"></use><use xlink:href="#transformed-11836" transform="translate(200, -100)"></use><use xlink:href="#transformed-11836" transform="translate(-200, 0)"></use><use xlink:href="#transformed-11836" transform="translate(0, 0)"></use><use xlink:href="#transformed-11836" transform="translate(200, 0)"></use><use xlink:href="#transformed-11836" transform="translate(-200, 100)"></use><use xlink:href="#transformed-11836" transform="translate(0, 100)"></use><use xlink:href="#transformed-11836" transform="translate(200, 100)"></use><use xlink:href="#transformed-47787" transform="translate(-200, -100)"></use><use xlink:href="#transformed-47787" transform="translate(0, -100)"></use><use xlink:href="#transformed-47787" transform="translate(200, -100)"></use><use xlink:href="#transformed-47787" transform="translate(-200, 0)"></use><use xlink:href="#transformed-47787" transform="translate(0, 0)"></use><use xlink:href="#transformed-47787" transform="translate(200, 0)"></use><use xlink:href="#transformed-47787" transform="translate(-200, 100)"></use><use xlink:href="#transformed-47787" transform="translate(0, 100)"></use><use xlink:href="#transformed-47787" transform="translate(200, 100)"></use></svg>