<svg version="1.1"
      xmlns="http://www.w3.org/2000/svg"
      xmlns:xlink="http://www.w3.org/1999/xlink"  id="snapshot-35102" width="200" height="100" viewBox="0 0 200 100"><desc>This image was made on Patterninja.com</desc><defs>
<!-- image 62485 -->
<g id="transformed-62485" data-image="62485" transform="translate(-24.08318915758459, -24.083189157584577) rotate(0, 24.08318915758459, 24.083189157584577)"><g><svg version="1.1" width="48.16637831516918px" height="48.166378315169155px" viewBox="0 0 48.16637831516918 48.166378315169155"><g id="original-62485"><svg xmlns="http://www.w3.org/2000/svg" viewBox="0 0 512 512" xmlns:xlink="http://www.w3.org/1999/xlink" version="1.1" preserveAspectRatio="xMidYMid meet">
  <path d="M93.867 358.4H59.733a8.53 8.53 0 0 0-8.533 8.533v51.2a8.53 8.53 0 0 0 8.533 8.533h34.133a8.53 8.53 0 0 0 8.533-8.533v-51.2a8.53 8.53 0 0 0-8.532-8.533zm-8.534 51.2H68.267v-34.133h17.067V409.6z" fill="rgba(255, 255, 255, 0.5)" stroke="none"/>
  <path d="M187.733 315.733V281.6c0-14.114-11.486-25.6-25.6-25.6s-25.6 11.486-25.6 25.6v34.133a8.53 8.53 0 0 0 8.533 8.533H179.2a8.53 8.53 0 0 0 8.533-8.533zm-17.066-8.533H153.6v-25.6c0-4.702 3.823-8.533 8.533-8.533 4.71 0 8.533 3.831 8.533 8.533v25.6z" fill="rgba(255, 255, 255, 0.5)" stroke="none"/>
  <path d="M332.8 358.4H179.2c-4.719 0-8.533 3.823-8.533 8.533s3.814 8.533 8.533 8.533h8.533v76.8c0 4.71 3.814 8.533 8.533 8.533s8.533-3.823 8.533-8.533v-76.8h42.667V409.6c-4.719 0-8.533 3.823-8.533 8.533s3.814 8.533 8.533 8.533v25.6c0 4.71 3.814 8.533 8.533 8.533s8.533-3.823 8.533-8.533v-25.6c4.719 0 8.533-3.823 8.533-8.533s-3.814-8.533-8.533-8.533v-34.133H307.2v76.8c0 4.71 3.814 8.533 8.533 8.533s8.533-3.823 8.533-8.533v-76.8h8.533c4.719 0 8.533-3.823 8.533-8.533s-3.813-8.534-8.532-8.534z" fill="rgba(255, 255, 255, 0.5)" stroke="none"/>
  <path d="M162.133 187.733a8.53 8.53 0 0 0 8.533-8.533c0-36.446 24.098-64.683 59.981-73.719C218.18 120.346 204.8 144.35 204.8 179.2a8.53 8.53 0 0 0 8.533 8.533 8.53 8.53 0 0 0 8.533-8.533c0-43.358 23.936-66.825 34.099-74.846 10.069 8.004 34.167 31.65 34.167 74.846 0 4.71 3.814 8.533 8.533 8.533s8.533-3.823 8.533-8.533c0-34.85-13.38-58.854-25.847-73.719 35.883 9.037 59.981 37.274 59.981 73.719 0 4.71 3.814 8.533 8.533 8.533s8.533-3.823 8.533-8.533c0-50.859-39.799-89.762-93.867-93.5V17.067h51.2v17.067h-25.6a8.53 8.53 0 0 0-8.533 8.533 8.53 8.53 0 0 0 8.533 8.533h34.133a8.53 8.53 0 0 0 8.533-8.533V8.533A8.53 8.53 0 0 0 324.264 0H256a8.53 8.53 0 0 0-8.533 8.533V85.7C193.4 89.438 153.6 128.341 153.6 179.2a8.53 8.53 0 0 0 8.533 8.533z" fill="rgba(255, 255, 255, 0.5)" stroke="none"/>
  <path d="M332.8 477.867H179.2a8.53 8.53 0 0 0-8.533 8.533v17.067c0 4.71 3.814 8.533 8.533 8.533s8.533-3.823 8.533-8.533v-8.533h136.533v8.533a8.53 8.53 0 0 0 8.533 8.533 8.53 8.53 0 0 0 8.533-8.533V486.4a8.53 8.53 0 0 0-8.532-8.533z" fill="rgba(255, 255, 255, 0.5)" stroke="none"/>
  <path d="M366.933 324.267a8.53 8.53 0 0 0 8.533-8.533V281.6c0-14.114-11.486-25.6-25.6-25.6s-25.6 11.486-25.6 25.6v34.133a8.53 8.53 0 0 0 8.533 8.533h34.134zm-25.6-42.667c0-4.702 3.823-8.533 8.533-8.533s8.533 3.831 8.533 8.533v25.6h-17.067v-25.6z" fill="rgba(255, 255, 255, 0.5)" stroke="none"/>
  <path d="M418.133 324.267h34.133a8.53 8.53 0 0 0 8.533-8.533V281.6c0-14.114-11.486-25.6-25.6-25.6s-25.6 11.486-25.6 25.6v34.133a8.532 8.532 0 0 0 8.534 8.534zm8.534-42.667c0-4.702 3.823-8.533 8.533-8.533s8.533 3.831 8.533 8.533v25.6h-17.067v-25.6z" fill="rgba(255, 255, 255, 0.5)" stroke="none"/>
  <path d="M503.467 187.733a8.53 8.53 0 0 0-8.533 8.533v8.533H17.067v-8.533c0-4.71-3.814-8.533-8.533-8.533S0 191.556 0 196.267v307.2A8.53 8.53 0 0 0 8.533 512h136.533a8.53 8.53 0 0 0 8.533-8.533v-34.133c0-9.412-7.663-17.067-17.067-17.067-3.106 0-6.025.836-8.533 2.296-5.018-2.918-12.049-2.918-17.067 0-5.018-2.918-12.049-2.918-17.067 0-5.018-2.918-12.049-2.918-17.067 0-5.018-2.918-12.049-2.918-17.067 0-5.018-2.918-12.049-2.918-17.067 0-5.018-2.918-12.049-2.918-17.067 0a16.93 16.93 0 0 0-8.533-2.296v-230.4h477.867v230.4c-3.106 0-6.025.836-8.533 2.296-5.018-2.918-12.049-2.918-17.067 0-5.018-2.918-12.049-2.918-17.067 0-5.018-2.918-12.049-2.918-17.067 0-5.018-2.918-12.049-2.918-17.067 0-5.018-2.918-12.049-2.918-17.067 0-5.018-2.918-12.049-2.918-17.067 0a16.93 16.93 0 0 0-8.533-2.296c-9.412 0-17.067 7.654-17.067 17.067v34.133a8.53 8.53 0 0 0 8.533 8.533h136.533a8.53 8.53 0 0 0 8.533-8.533v-307.2a8.523 8.523 0 0 0-8.528-8.534zM25.6 477.867a8.53 8.53 0 0 0 8.533-8.533c0 4.71 3.814 8.533 8.533 8.533s8.533-3.823 8.533-8.533c0 4.71 3.814 8.533 8.533 8.533s8.533-3.823 8.533-8.533c0 4.71 3.814 8.533 8.533 8.533s8.533-3.823 8.533-8.533a8.53 8.53 0 0 0 8.533 8.533 8.53 8.53 0 0 0 8.533-8.533c0 4.71 3.814 8.533 8.533 8.533s8.533-3.823 8.533-8.533c0 4.71 3.814 8.533 8.533 8.533s8.533-3.823 8.533-8.533v25.6H17.067v-25.6a8.53 8.53 0 0 0 8.533 8.533zm469.333 17.066H375.467v-25.6a8.53 8.53 0 0 0 8.533 8.533 8.53 8.53 0 0 0 8.533-8.533 8.53 8.53 0 0 0 8.533 8.533 8.53 8.53 0 0 0 8.533-8.533c0 4.71 3.814 8.533 8.533 8.533s8.533-3.823 8.533-8.533c0 4.71 3.814 8.533 8.533 8.533s8.533-3.823 8.533-8.533a8.53 8.53 0 0 0 8.533 8.533 8.53 8.53 0 0 0 8.533-8.533c0 4.71 3.814 8.533 8.533 8.533s8.533-3.823 8.533-8.533c0 4.71 3.814 8.533 8.533 8.533s8.533-3.823 8.533-8.533v25.6z" fill="rgba(255, 255, 255, 0.5)" stroke="none"/>
  <path d="M409.6 418.133a8.53 8.53 0 0 0 8.533 8.533h34.133a8.53 8.53 0 0 0 8.533-8.533v-51.2a8.53 8.53 0 0 0-8.533-8.533h-34.133a8.53 8.53 0 0 0-8.533 8.533v51.2zm17.067-42.666h17.067V409.6h-17.067v-34.133z" fill="rgba(255, 255, 255, 0.5)" stroke="none"/>
  <path d="M273.067 324.267a8.53 8.53 0 0 0 8.533-8.533V281.6c0-14.114-11.486-25.6-25.6-25.6s-25.6 11.486-25.6 25.6v34.133a8.53 8.53 0 0 0 8.533 8.533h34.134zm-25.6-42.667c0-4.702 3.823-8.533 8.533-8.533s8.533 3.831 8.533 8.533v25.6h-17.067v-25.6z" fill="rgba(255, 255, 255, 0.5)" stroke="none"/>
  <path d="M102.4 281.6c0-14.114-11.486-25.6-25.6-25.6s-25.6 11.486-25.6 25.6v34.133a8.53 8.53 0 0 0 8.533 8.533h34.133a8.53 8.53 0 0 0 8.533-8.533V281.6zm-17.067 25.6H68.267v-25.6c0-4.702 3.823-8.533 8.533-8.533s8.533 3.831 8.533 8.533v25.6z" fill="rgba(255, 255, 255, 0.5)" stroke="none"/>
</svg>
</g></svg></g></g>
<!-- /image 62485 -->

<!-- image 51510 -->
<g id="transformed-51510" data-image="51510" transform="translate(75.9168108424154, 30.91681084241541) rotate(0, 24.08318915758459, 24.08318915758459)"><g><svg version="1.1" width="48.16637831516918px" height="48.16637831516918px" viewBox="0 0 48.16637831516918 48.16637831516918"><g id="original-51510"><svg xmlns="http://www.w3.org/2000/svg" viewBox="0 0 512.001 512.001" xmlns:xlink="http://www.w3.org/1999/xlink" version="1.1" preserveAspectRatio="xMidYMid meet">
  <path d="M341.692 29.58a8.424 8.424 0 0 0 3.482-.751 134.21 134.21 0 0 1 7.424-3.072c4.412-1.681 6.63-6.605 4.949-11.008-1.673-4.412-6.605-6.596-11-4.958a155.657 155.657 0 0 0-8.354 3.465c-4.301 1.929-6.229 6.98-4.292 11.281a8.524 8.524 0 0 0 7.791 5.043z" fill="rgba(255, 255, 255, 0.5)" stroke="none"/>
  <path d="M341.334 214.642a8.525 8.525 0 0 0 8.533-8.533v-1.476c0-2.244.145-4.446.427-6.613.614-4.676-2.68-8.96-7.339-9.574-4.813-.614-8.96 2.679-9.583 7.347a68.857 68.857 0 0 0-.572 8.841v1.476a8.526 8.526 0 0 0 8.534 8.532z" fill="rgba(255, 255, 255, 0.5)" stroke="none"/>
  <path d="M298.667 216.75a8.53 8.53 0 0 0 8.533-8.533v-8.67a8.53 8.53 0 0 0-8.533-8.533 8.53 8.53 0 0 0-8.533 8.533v8.67a8.53 8.53 0 0 0 8.533 8.533z" fill="rgba(255, 255, 255, 0.5)" stroke="none"/>
  <path d="M347.666 81.778a106.734 106.734 0 0 0-8.021 4.873c-3.917 2.62-4.975 7.927-2.355 11.844a8.528 8.528 0 0 0 7.1 3.78 8.412 8.412 0 0 0 4.736-1.442 95.464 95.464 0 0 1 6.775-4.113c4.122-2.27 5.632-7.467 3.362-11.588-2.279-4.13-7.459-5.615-11.597-3.354z" fill="rgba(255, 255, 255, 0.5)" stroke="none"/>
  <path d="M226.629 80.908a8.509 8.509 0 0 0 7.228 3.994 8.415 8.415 0 0 0 4.523-1.306c3.994-2.509 5.205-7.774 2.697-11.759a150.4 150.4 0 0 0-5.043-7.535 8.518 8.518 0 0 0-11.904-1.971 8.53 8.53 0 0 0-1.98 11.904 130.93 130.93 0 0 1 4.479 6.673z" fill="rgba(255, 255, 255, 0.5)" stroke="none"/>
  <path d="M382.644 18.06c.35 0 .717-.026 1.075-.068a143.71 143.71 0 0 1 8.004-.777 8.537 8.537 0 0 0 7.953-9.079c-.307-4.702-4.437-8.26-9.079-7.945-3.038.196-6.042.495-9.011.87-4.676.589-7.996 4.855-7.398 9.532.537 4.309 4.215 7.467 8.456 7.467z" fill="rgba(255, 255, 255, 0.5)" stroke="none"/>
  <path d="M351.002 158.22c-3.2 3.456-3.004 8.858.444 12.058a8.527 8.527 0 0 0 5.811 2.278 8.508 8.508 0 0 0 6.263-2.731 52.772 52.772 0 0 1 5.811-5.376c3.695-2.935 4.309-8.303 1.374-11.989-2.927-3.686-8.303-4.318-11.989-1.374a69.569 69.569 0 0 0-7.714 7.134z" fill="rgba(255, 255, 255, 0.5)" stroke="none"/>
  <path d="M273.613 83.596a8.47 8.47 0 0 0 4.531 1.306 8.509 8.509 0 0 0 7.228-3.994 129.64 129.64 0 0 1 4.48-6.673 8.53 8.53 0 0 0-1.98-11.904 8.518 8.518 0 0 0-11.904 1.971 144.473 144.473 0 0 0-5.043 7.535c-2.508 3.985-1.297 9.25 2.688 11.759z" fill="rgba(255, 255, 255, 0.5)" stroke="none"/>
  <path d="M341.334 255.833a8.53 8.53 0 0 0 8.533-8.533v-4.267c0-4.71-3.814-8.533-8.533-8.533s-8.533 3.823-8.533 8.533v4.267a8.53 8.53 0 0 0 8.533 8.533z" fill="rgba(255, 255, 255, 0.5)" stroke="none"/>
  <path d="M298.488 173.383c.393.06.777.085 1.161.085a8.555 8.555 0 0 0 8.456-7.39c.35-2.628.819-5.222 1.399-7.782 1.05-4.599-1.835-9.165-6.434-10.206-4.599-1.041-9.173 1.835-10.214 6.434a111.074 111.074 0 0 0-1.673 9.259c-.631 4.668 2.646 8.969 7.305 9.6z" fill="rgba(255, 255, 255, 0.5)" stroke="none"/>
  <path d="M240.393 109.947a136.016 136.016 0 0 1 2.33 7.671 8.545 8.545 0 0 0 8.226 6.298c.742 0 1.493-.102 2.244-.307 1.058-.282 1.98-.794 2.807-1.399.828.606 1.749 1.118 2.807 1.399a8.506 8.506 0 0 0 2.244.307c3.746 0 7.194-2.5 8.226-6.298a128.01 128.01 0 0 1 2.33-7.671c1.527-4.463-.87-9.31-5.325-10.829-4.096-1.399-8.414.606-10.283 4.395-1.869-3.789-6.187-5.794-10.283-4.395-4.461 1.519-6.85 6.366-5.323 10.829z" fill="rgba(255, 255, 255, 0.5)" stroke="none"/>
  <path d="M305.827 52.534a8.519 8.519 0 0 0 5.598-2.091 135.028 135.028 0 0 1 6.212-5.094c3.738-2.876 4.429-8.226 1.562-11.964-2.876-3.738-8.235-4.446-11.964-1.562a141.565 141.565 0 0 0-7.006 5.743c-3.558 3.089-3.934 8.482-.836 12.041a8.492 8.492 0 0 0 6.434 2.927z" fill="rgba(255, 255, 255, 0.5)" stroke="none"/>
  <path d="M312.457 112.268a111.623 111.623 0 0 0-5.316 7.714c-2.517 3.985-1.314 9.259 2.671 11.776a8.571 8.571 0 0 0 4.54 1.306 8.523 8.523 0 0 0 7.228-3.985 93.714 93.714 0 0 1 4.514-6.537c2.833-3.763 2.082-9.114-1.681-11.955-3.772-2.842-9.123-2.065-11.956 1.681z" fill="rgba(255, 255, 255, 0.5)" stroke="none"/>
  <path d="M392.338 68.441c-3.157.239-6.263.614-9.327 1.118a8.537 8.537 0 0 0-7.031 9.813c.683 4.181 4.292 7.142 8.405 7.142a8.54 8.54 0 0 0 1.391-.111 92.651 92.651 0 0 1 7.876-.947c4.702-.367 8.218-4.471 7.851-9.173-.368-4.694-4.37-8.243-9.165-7.842z" fill="rgba(255, 255, 255, 0.5)" stroke="none"/>
  <path d="M423.911 18.691c2.654.427 5.299.93 7.91 1.502a8.535 8.535 0 0 0 10.164-6.503c1.007-4.608-1.903-9.156-6.511-10.163a152.927 152.927 0 0 0-8.883-1.681c-4.651-.768-9.02 2.432-9.762 7.083-.743 4.651 2.423 9.028 7.082 9.762z" fill="rgba(255, 255, 255, 0.5)" stroke="none"/>
  <path d="M438.511 74.576a112.147 112.147 0 0 0-8.969-2.79c-4.531-1.178-9.216 1.51-10.436 6.067a8.541 8.541 0 0 0 6.067 10.436 87.352 87.352 0 0 1 7.569 2.355c.956.341 1.92.503 2.884.503a8.538 8.538 0 0 0 8.03-5.658c1.597-4.436-.716-9.326-5.145-10.913z" fill="rgba(255, 255, 255, 0.5)" stroke="none"/>
  <path d="M397.594 136.451c-4.71.239-8.337 4.241-8.098 8.943.23 4.71 3.925 8.294 8.943 8.098a53.362 53.362 0 0 1 7.919.213c.299.034.597.043.888.043a8.54 8.54 0 0 0 8.482-7.654 8.55 8.55 0 0 0-7.62-9.37c-3.457-.35-7.032-.46-10.514-.273z" fill="rgba(255, 255, 255, 0.5)" stroke="none"/>
  <path d="M497.161 56.784a8.52 8.52 0 0 0 6.306 2.782 8.5 8.5 0 0 0 5.751-2.227c3.482-3.174 3.729-8.576.555-12.058a141.458 141.458 0 0 0-3.115-3.294 8.532 8.532 0 0 0-12.066-.12c-3.379 3.294-3.422 8.695-.137 12.066a94.282 94.282 0 0 1 2.706 2.851z" fill="rgba(255, 255, 255, 0.5)" stroke="none"/>
  <path d="M366.934 324.099h-102.4c-4.719 0-8.533 3.823-8.533 8.533s3.814 8.533 8.533 8.533h102.4c23.927 0 42.667-18.739 42.667-42.667v-17.067a8.53 8.53 0 0 0-8.533-8.533H110.934a8.53 8.53 0 0 0-8.533 8.533v17.067c0 23.927 18.739 42.667 42.667 42.667h76.8v42.667c0 4.71 3.814 8.533 8.533 8.533s8.533-3.823 8.533-8.533v-51.2a8.53 8.53 0 0 0-8.533-8.533h-85.333c-14.362 0-25.6-11.247-25.6-25.6v-8.533h273.067v8.533c-.001 14.353-11.24 25.6-25.601 25.6z" fill="rgba(255, 255, 255, 0.5)" stroke="none"/>
  <path d="M452.139 200.972c.085 1.203.128 2.432.128 3.661 0 4.71 3.814 8.533 8.533 8.533s8.533-3.823 8.533-8.533c0-1.638-.06-3.26-.179-4.873-.333-4.693-4.326-8.243-9.114-7.91a8.538 8.538 0 0 0-7.901 9.122z" fill="rgba(255, 255, 255, 0.5)" stroke="none"/>
  <path d="M434.117 154.132a8.544 8.544 0 0 0 .759 12.049 50.682 50.682 0 0 1 5.504 5.658 8.53 8.53 0 0 0 6.571 3.072c1.92 0 3.857-.648 5.453-1.971 3.618-3.021 4.113-8.397 1.092-12.023a68.038 68.038 0 0 0-7.339-7.544c-3.524-3.106-8.917-2.782-12.04.759z" fill="rgba(255, 255, 255, 0.5)" stroke="none"/>
  <path d="M264.534 195.621c0-4.71-3.814-8.533-8.533-8.533s-8.533 3.823-8.533 8.533v9.489c0 4.71 3.814 8.533 8.533 8.533s8.533-3.823 8.533-8.533v-9.489z" fill="rgba(255, 255, 255, 0.5)" stroke="none"/>
  <path d="M256.001 234.499a8.53 8.53 0 0 0-8.533 8.533v4.267c0 4.71 3.814 8.533 8.533 8.533s8.533-3.823 8.533-8.533v-4.267a8.531 8.531 0 0 0-8.533-8.533z" fill="rgba(255, 255, 255, 0.5)" stroke="none"/>
  <path d="M290.134 247.299a8.53 8.53 0 0 0 8.533 8.533 8.53 8.53 0 0 0 8.533-8.533v-4.267a8.53 8.53 0 0 0-8.533-8.533 8.53 8.53 0 0 0-8.533 8.533v4.267z" fill="rgba(255, 255, 255, 0.5)" stroke="none"/>
  <path d="M264.534 153.433c0-1.348.017-2.679.06-4.019.102-3.644-2.125-6.775-5.316-8.081-.324-.145-.691-.145-1.033-.247-.64-.171-1.246-.427-1.937-.444-.085-.009-.162-.009-.256-.009-.017 0-.034.009-.051.009-.017 0-.034-.009-.051-.009-.094 0-.171 0-.256.009-.691.017-1.306.273-1.937.444-.341.102-.717.102-1.033.247-3.191 1.306-5.419 4.437-5.316 8.081.043 1.34.06 2.671.06 4.019v4.267c0 4.71 3.814 8.533 8.533 8.533s8.533-3.823 8.533-8.533v-4.267z" fill="rgba(255, 255, 255, 0.5)" stroke="none"/>
  <path d="M204.801 247.299c0 4.71 3.814 8.533 8.533 8.533s8.533-3.823 8.533-8.533v-4.267c0-4.71-3.814-8.533-8.533-8.533s-8.533 3.823-8.533 8.533v4.267z" fill="rgba(255, 255, 255, 0.5)" stroke="none"/>
  <path d="M213.334 216.75a8.53 8.53 0 0 0 8.533-8.533v-8.67c0-4.71-3.814-8.533-8.533-8.533s-8.533 3.823-8.533 8.533v8.67a8.53 8.53 0 0 0 8.533 8.533z" fill="rgba(255, 255, 255, 0.5)" stroke="none"/>
  <path d="M179.201 247.299v-4.267c0-4.71-3.814-8.533-8.533-8.533s-8.533 3.823-8.533 8.533v4.267c0 4.71 3.814 8.533 8.533 8.533s8.533-3.822 8.533-8.533z" fill="rgba(255, 255, 255, 0.5)" stroke="none"/>
  <path d="M59.597 172.94a8.508 8.508 0 0 0 5.453 1.971 8.53 8.53 0 0 0 6.571-3.072 50.682 50.682 0 0 1 5.504-5.658 8.543 8.543 0 0 0 .759-12.049c-3.106-3.541-8.499-3.883-12.041-.76a68.747 68.747 0 0 0-7.347 7.544c-3.012 3.627-2.517 9.003 1.101 12.024z" fill="rgba(255, 255, 255, 0.5)" stroke="none"/>
  <path d="M469.334 409.433h-179.2v-42.667c0-4.71-3.814-8.533-8.533-8.533s-8.533 3.823-8.533 8.533v51.2a8.53 8.53 0 0 0 8.533 8.533h179.2v42.667c0 14.114-11.486 25.6-25.6 25.6h-358.4c-14.114 0-25.6-11.486-25.6-25.6v-42.667h196.975a8.53 8.53 0 0 0 8.533-8.533 8.53 8.53 0 0 0-8.533-8.533H42.667a8.53 8.53 0 0 0-8.533 8.533v51.2c0 23.526 19.14 42.667 42.667 42.667h358.4c23.526 0 42.667-19.14 42.667-42.667v-51.2a8.532 8.532 0 0 0-8.534-8.533z" fill="rgba(255, 255, 255, 0.5)" stroke="none"/>
  <path d="M204.801 452.099v17.067c0 4.71 3.814 8.533 8.533 8.533s8.533-3.823 8.533-8.533v-17.067c0-4.71-3.814-8.533-8.533-8.533s-8.533 3.823-8.533 8.533z" fill="rgba(255, 255, 255, 0.5)" stroke="none"/>
  <path d="M8.918 166.241c-.102-.009-.205-.009-.307-.009-4.565 0-8.363 3.627-8.516 8.235-.06 1.519-.094 3.038-.094 4.565 0 4.71 3.814 8.533 8.533 8.533s8.533-3.823 8.533-8.533c0-1.331.034-2.645.077-3.968.162-4.71-3.516-8.661-8.226-8.823z" fill="rgba(255, 255, 255, 0.5)" stroke="none"/>
  <path d="M45.782 111.449a96.627 96.627 0 0 1 5.948-5.274c3.652-2.987 4.198-8.363 1.212-12.006-2.978-3.644-8.354-4.207-12.006-1.212a112.389 112.389 0 0 0-6.997 6.221c-3.396 3.268-3.49 8.67-.222 12.066a8.518 8.518 0 0 0 6.144 2.603 8.466 8.466 0 0 0 5.921-2.398z" fill="rgba(255, 255, 255, 0.5)" stroke="none"/>
  <path d="M23.22 125.46c-4.207-2.099-9.353-.41-11.452 3.806a108.634 108.634 0 0 0-3.857 8.55 8.536 8.536 0 0 0 4.753 11.093 8.458 8.458 0 0 0 3.166.614c3.388 0 6.596-2.031 7.927-5.367a91.997 91.997 0 0 1 3.26-7.245 8.525 8.525 0 0 0-3.797-11.451z" fill="rgba(255, 255, 255, 0.5)" stroke="none"/>
  <path d="M38.588 35.604c1.442 0 2.91-.367 4.25-1.135a116.467 116.467 0 0 1 7.057-3.755c4.224-2.082 5.965-7.202 3.891-11.426-2.082-4.233-7.211-5.965-11.426-3.891a139.252 139.252 0 0 0-8.038 4.275 8.538 8.538 0 1 0 4.266 15.932z" fill="rgba(255, 255, 255, 0.5)" stroke="none"/>
  <path d="M119.467 452.099v17.067c0 4.71 3.814 8.533 8.533 8.533s8.533-3.823 8.533-8.533v-17.067c0-4.71-3.814-8.533-8.533-8.533s-8.533 3.823-8.533 8.533z" fill="rgba(255, 255, 255, 0.5)" stroke="none"/>
  <path d="M499.337 148.91a8.536 8.536 0 0 0 4.753-11.093 108.67 108.67 0 0 0-3.857-8.55c-2.108-4.215-7.236-5.897-11.452-3.806a8.524 8.524 0 0 0-3.797 11.452 92.365 92.365 0 0 1 3.26 7.245 8.531 8.531 0 0 0 7.919 5.367 8.49 8.49 0 0 0 3.174-.615z" fill="rgba(255, 255, 255, 0.5)" stroke="none"/>
  <path d="M511.907 174.467c-.154-4.719-4.335-8.499-8.823-8.226-4.71.162-8.388 4.113-8.226 8.823.043 1.323.077 2.637.077 3.968 0 4.71 3.814 8.533 8.533 8.533s8.533-3.823 8.533-8.533c0-1.527-.035-3.046-.094-4.565z" fill="rgba(255, 255, 255, 0.5)" stroke="none"/>
  <path d="M477.671 19.673a136.45 136.45 0 0 0-8.03-4.275c-4.198-2.065-9.344-.333-11.426 3.891-2.074 4.224-.333 9.344 3.891 11.426a113.635 113.635 0 0 1 7.049 3.755 8.542 8.542 0 0 0 11.657-3.14c2.354-4.088.946-9.302-3.141-11.657z" fill="rgba(255, 255, 255, 0.5)" stroke="none"/>
  <path d="M392.534 469.166v-17.067c0-4.71-3.814-8.533-8.533-8.533s-8.533 3.823-8.533 8.533v17.067c0 4.71 3.814 8.533 8.533 8.533s8.533-3.823 8.533-8.533z" fill="rgba(255, 255, 255, 0.5)" stroke="none"/>
  <path d="M307.201 469.166v-17.067a8.53 8.53 0 0 0-8.533-8.533 8.53 8.53 0 0 0-8.533 8.533v17.067a8.53 8.53 0 0 0 8.533 8.533 8.531 8.531 0 0 0 8.533-8.533z" fill="rgba(255, 255, 255, 0.5)" stroke="none"/>
  <path d="M471.066 92.957a8.523 8.523 0 0 0-12.006 1.212c-2.987 3.644-2.441 9.02 1.203 12.006a93.882 93.882 0 0 1 5.956 5.274 8.463 8.463 0 0 0 5.922 2.398c2.236 0 4.463-.87 6.144-2.603 3.268-3.396 3.174-8.798-.222-12.066a112.389 112.389 0 0 0-6.997-6.221z" fill="rgba(255, 255, 255, 0.5)" stroke="none"/>
  <path d="M51.96 191.85c-4.873-.324-8.781 3.217-9.122 7.91a70.88 70.88 0 0 0-.171 4.873c0 4.71 3.814 8.533 8.533 8.533s8.533-3.823 8.533-8.533c0-1.229.043-2.458.128-3.661a8.536 8.536 0 0 0-7.901-9.122z" fill="rgba(255, 255, 255, 0.5)" stroke="none"/>
  <path d="M169.046 188.445c-4.659.614-7.953 4.898-7.339 9.574.282 2.167.427 4.369.427 6.613v1.476c0 4.719 3.814 8.533 8.533 8.533s8.533-3.814 8.533-8.533v-1.476c0-2.978-.188-5.956-.572-8.841-.622-4.667-4.821-7.969-9.582-7.346z" fill="rgba(255, 255, 255, 0.5)" stroke="none"/>
  <path d="M159.403 25.757a134.53 134.53 0 0 1 7.424 3.072 8.424 8.424 0 0 0 3.482.751 8.53 8.53 0 0 0 7.791-5.043c1.937-4.301.009-9.353-4.292-11.281a156.827 156.827 0 0 0-8.354-3.465c-4.378-1.638-9.327.546-10.999 4.958-1.682 4.403.536 9.327 4.948 11.008z" fill="rgba(255, 255, 255, 0.5)" stroke="none"/>
  <path d="M156.101 96.72a97.303 97.303 0 0 1 6.775 4.113 8.43 8.43 0 0 0 4.736 1.442 8.53 8.53 0 0 0 7.1-3.78c2.62-3.917 1.562-9.224-2.355-11.844a109.476 109.476 0 0 0-8.021-4.873c-4.139-2.261-9.318-.776-11.597 3.354-2.27 4.121-.76 9.318 3.362 11.588z" fill="rgba(255, 255, 255, 0.5)" stroke="none"/>
  <path d="M8.534 59.566a8.519 8.519 0 0 0 6.306-2.782 95.547 95.547 0 0 1 2.705-2.85c3.285-3.371 3.234-8.772-.137-12.066-3.354-3.294-8.747-3.234-12.066.12a141.458 141.458 0 0 0-3.115 3.294C-.947 48.764-.7 54.165 2.782 57.34a8.508 8.508 0 0 0 5.752 2.226z" fill="rgba(255, 255, 255, 0.5)" stroke="none"/>
  <path d="M142.669 164.449a52.772 52.772 0 0 1 5.811 5.376 8.51 8.51 0 0 0 6.263 2.731 8.54 8.54 0 0 0 5.811-2.278c3.448-3.2 3.644-8.602.444-12.058a69.665 69.665 0 0 0-7.714-7.134c-3.712-2.935-9.071-2.313-11.989 1.374-2.935 3.686-2.321 9.054 1.374 11.989z" fill="rgba(255, 255, 255, 0.5)" stroke="none"/>
  <path d="M190.422 129.078a8.521 8.521 0 0 0 7.228 3.985 8.571 8.571 0 0 0 4.54-1.306c3.985-2.517 5.188-7.791 2.671-11.776a118.304 118.304 0 0 0-5.316-7.714c-2.842-3.746-8.183-4.523-11.955-1.681-3.763 2.842-4.514 8.192-1.681 11.955a94.633 94.633 0 0 1 4.513 6.537z" fill="rgba(255, 255, 255, 0.5)" stroke="none"/>
  <path d="M194.364 45.349a136.35 136.35 0 0 1 6.212 5.094 8.477 8.477 0 0 0 5.598 2.091c2.381 0 4.753-.99 6.434-2.927 3.098-3.558 2.722-8.951-.836-12.041-2.27-1.988-4.608-3.9-7.006-5.743-3.729-2.884-9.079-2.176-11.964 1.562-2.867 3.738-2.175 9.089 1.562 11.964z" fill="rgba(255, 255, 255, 0.5)" stroke="none"/>
  <path d="M78.345 20.389c.606 0 1.212-.06 1.826-.196 2.62-.572 5.265-1.075 7.919-1.502 4.659-.734 7.825-5.111 7.083-9.762-.734-4.651-5.094-7.859-9.762-7.083a151.66 151.66 0 0 0-8.883 1.681C71.92 4.534 69.01 9.082 70.017 13.69a8.532 8.532 0 0 0 8.328 6.699z" fill="rgba(255, 255, 255, 0.5)" stroke="none"/>
  <path d="M120.278 17.215c2.697.188 5.367.444 8.004.777.358.043.725.068 1.075.068 4.241 0 7.919-3.157 8.456-7.467.597-4.676-2.722-8.943-7.398-9.532-2.97-.375-5.973-.674-9.003-.87-4.599-.341-8.781 3.243-9.088 7.945a8.538 8.538 0 0 0 7.954 9.079z" fill="rgba(255, 255, 255, 0.5)" stroke="none"/>
  <path d="M208.931 148.091a8.532 8.532 0 0 0-6.443 10.206 87.12 87.12 0 0 1 1.408 7.782 8.55 8.55 0 0 0 8.457 7.39 7.57 7.57 0 0 0 1.152-.085c4.668-.631 7.945-4.932 7.313-9.6-.427-3.123-.99-6.212-1.673-9.259-1.041-4.591-5.64-7.467-10.214-6.434z" fill="rgba(255, 255, 255, 0.5)" stroke="none"/>
  <path d="M76.374 91.148c.956 0 1.929-.162 2.884-.503a87.46 87.46 0 0 1 7.569-2.355 8.541 8.541 0 0 0 6.067-10.436c-1.212-4.557-5.888-7.245-10.436-6.067a112.684 112.684 0 0 0-8.969 2.79c-4.429 1.587-6.741 6.477-5.146 10.914a8.54 8.54 0 0 0 8.031 5.657z" fill="rgba(255, 255, 255, 0.5)" stroke="none"/>
  <path d="M118.349 85.456a93.01 93.01 0 0 1 7.876.947c.469.077.93.111 1.391.111 4.105 0 7.723-2.961 8.405-7.142a8.537 8.537 0 0 0-7.031-9.813 107.67 107.67 0 0 0-9.327-1.118c-4.642-.41-8.798 3.14-9.165 7.842-.366 4.702 3.149 8.806 7.851 9.173z" fill="rgba(255, 255, 255, 0.5)" stroke="none"/>
  <path d="M104.756 153.748c.29 0 .589-.009.887-.043a53.226 53.226 0 0 1 7.919-.213c4.907.222 8.713-3.388 8.943-8.098.239-4.702-3.388-8.704-8.098-8.943-3.49-.188-7.066-.077-10.513.273a8.549 8.549 0 0 0-7.62 9.37 8.538 8.538 0 0 0 8.482 7.654z" fill="rgba(255, 255, 255, 0.5)" stroke="none"/>
</svg>
</g></svg></g></g>
<!-- /image 51510 -->
</defs><rect x="0" y="0" width="200" height="100" fill="rgba(0, 102, 204, 1)"></rect><use xlink:href="#transformed-62485" transform="translate(-200, -100)"></use><use xlink:href="#transformed-62485" transform="translate(0, -100)"></use><use xlink:href="#transformed-62485" transform="translate(200, -100)"></use><use xlink:href="#transformed-62485" transform="translate(-200, 0)"></use><use xlink:href="#transformed-62485" transform="translate(0, 0)"></use><use xlink:href="#transformed-62485" transform="translate(200, 0)"></use><use xlink:href="#transformed-62485" transform="translate(-200, 100)"></use><use xlink:href="#transformed-62485" transform="translate(0, 100)"></use><use xlink:href="#transformed-62485" transform="translate(200, 100)"></use><use xlink:href="#transformed-51510" transform="translate(-200, -100)"></use><use xlink:href="#transformed-51510" transform="translate(0, -100)"></use><use xlink:href="#transformed-51510" transform="translate(200, -100)"></use><use xlink:href="#transformed-51510" transform="translate(-200, 0)"></use><use xlink:href="#transformed-51510" transform="translate(0, 0)"></use><use xlink:href="#transformed-51510" transform="translate(200, 0)"></use><use xlink:href="#transformed-51510" transform="translate(-200, 100)"></use><use xlink:href="#transformed-51510" transform="translate(0, 100)"></use><use xlink:href="#transformed-51510" transform="translate(200, 100)"></use></svg>