<svg version="1.1"
      xmlns="http://www.w3.org/2000/svg"
      xmlns:xlink="http://www.w3.org/1999/xlink"  id="snapshot-14205" width="200" height="100" viewBox="0 0 200 100"><desc>This image was made on Patterninja.com</desc><defs>
<!-- image 18585 -->
<g id="transformed-18585" data-image="18585" transform="translate(75.97917570107137, 31.979175701071377) rotate(0, 24.020824298928627, 24.020824298928623)"><g><svg version="1.1" width="48.041648597857254px" height="48.04164859785725px" viewBox="0 0 48.041648597857254 48.04164859785725"><g id="original-18585"><svg xmlns="http://www.w3.org/2000/svg" viewBox="0 0 512 512" xmlns:xlink="http://www.w3.org/1999/xlink" version="1.1" preserveAspectRatio="xMidYMid meet">
  <path d="M324.267 332.8c0-4.71-3.823-8.533-8.533-8.533s-8.533 3.823-8.533 8.533v17.067c0 4.71 3.823 8.533 8.533 8.533s8.533-3.823 8.533-8.533V332.8z" fill="rgba(255, 255, 255, 0.5)" stroke="none"/>
  <path d="M315.733 426.667a8.536 8.536 0 0 0-8.533 8.533v34.133c0 4.71 3.823 8.533 8.533 8.533s8.533-3.823 8.533-8.533V435.2c.001-4.71-3.822-8.533-8.533-8.533z" fill="rgba(255, 255, 255, 0.5)" stroke="none"/>
  <path d="M358.4 230.4c0-4.71-3.823-8.533-8.533-8.533s-8.533 3.823-8.533 8.533v17.067c0 4.71 3.823 8.533 8.533 8.533s8.533-3.823 8.533-8.533V230.4z" fill="rgba(255, 255, 255, 0.5)" stroke="none"/>
  <path d="M324.267 281.6c0-4.71-3.823-8.533-8.533-8.533s-8.533 3.823-8.533 8.533v17.067c0 4.71 3.823 8.533 8.533 8.533s8.533-3.823 8.533-8.533V281.6z" fill="rgba(255, 255, 255, 0.5)" stroke="none"/>
  <path d="M324.267 384c0-4.71-3.823-8.533-8.533-8.533S307.2 379.29 307.2 384v17.067c0 4.71 3.823 8.533 8.533 8.533s8.533-3.823 8.533-8.533V384z" fill="rgba(255, 255, 255, 0.5)" stroke="none"/>
  <path d="M358.4 281.6c0-4.71-3.823-8.533-8.533-8.533s-8.533 3.823-8.533 8.533v17.067c0 4.71 3.823 8.533 8.533 8.533s8.533-3.823 8.533-8.533V281.6z" fill="rgba(255, 255, 255, 0.5)" stroke="none"/>
  <path d="M290.133 230.4c0-4.71-3.823-8.533-8.533-8.533s-8.533 3.823-8.533 8.533v17.067c0 4.71 3.823 8.533 8.533 8.533s8.533-3.823 8.533-8.533V230.4z" fill="rgba(255, 255, 255, 0.5)" stroke="none"/>
  <path d="M324.267 230.4c0-4.71-3.823-8.533-8.533-8.533s-8.533 3.823-8.533 8.533v17.067c0 4.71 3.823 8.533 8.533 8.533s8.533-3.823 8.533-8.533V230.4z" fill="rgba(255, 255, 255, 0.5)" stroke="none"/>
  <path d="M358.4 145.067V128c0-4.71-3.823-8.533-8.533-8.533s-8.533 3.823-8.533 8.533v17.067c0 4.71 3.823 8.533 8.533 8.533s8.533-3.823 8.533-8.533z" fill="rgba(255, 255, 255, 0.5)" stroke="none"/>
  <path d="M290.133 281.6c0-4.71-3.823-8.533-8.533-8.533s-8.533 3.823-8.533 8.533v17.067c0 4.71 3.823 8.533 8.533 8.533s8.533-3.823 8.533-8.533V281.6z" fill="rgba(255, 255, 255, 0.5)" stroke="none"/>
  <path d="M392.533 128c0-4.71-3.823-8.533-8.533-8.533s-8.533 3.823-8.533 8.533v17.067c0 4.71 3.823 8.533 8.533 8.533s8.533-3.823 8.533-8.533V128z" fill="rgba(255, 255, 255, 0.5)" stroke="none"/>
  <path d="M281.6 324.267a8.536 8.536 0 0 0-8.533 8.533v17.067c0 4.71 3.823 8.533 8.533 8.533s8.533-3.823 8.533-8.533V332.8a8.536 8.536 0 0 0-8.533-8.533z" fill="rgba(255, 255, 255, 0.5)" stroke="none"/>
  <path d="M426.667 384c0-4.71-3.823-8.533-8.533-8.533S409.6 379.29 409.6 384v17.067c0 4.71 3.823 8.533 8.533 8.533s8.533-3.823 8.533-8.533V384z" fill="rgba(255, 255, 255, 0.5)" stroke="none"/>
  <path d="M418.133 426.667a8.536 8.536 0 0 0-8.533 8.533v34.133c0 4.71 3.823 8.533 8.533 8.533s8.533-3.823 8.533-8.533V435.2c.001-4.71-3.822-8.533-8.533-8.533z" fill="rgba(255, 255, 255, 0.5)" stroke="none"/>
  <path d="M452.267 324.267a8.536 8.536 0 0 0-8.533 8.533v17.067a8.536 8.536 0 0 0 8.533 8.533 8.536 8.536 0 0 0 8.533-8.533V332.8a8.536 8.536 0 0 0-8.533-8.533z" fill="rgba(255, 255, 255, 0.5)" stroke="none"/>
  <path d="M315.733 153.6a8.536 8.536 0 0 0 8.533-8.533v-36.002L409.6 87.731V230.4a8.55 8.55 0 0 0 5.538 7.996l62.729 23.518v87.953c0 4.71 3.823 8.533 8.533 8.533s8.533-3.823 8.533-8.533V256a8.55 8.55 0 0 0-5.538-7.996l-62.729-23.518V59.733c0-4.71-3.823-8.533-8.533-8.533s-8.533 3.823-8.533 8.533v10.402l-95.94 23.987a8.528 8.528 0 0 0-6.46 8.277v42.667c0 4.711 3.823 8.534 8.533 8.534z" fill="rgba(255, 255, 255, 0.5)" stroke="none"/>
  <path d="M460.8 281.6a8.536 8.536 0 0 0-8.533-8.533 8.536 8.536 0 0 0-8.533 8.533v17.067a8.536 8.536 0 0 0 8.533 8.533 8.536 8.536 0 0 0 8.533-8.533V281.6z" fill="rgba(255, 255, 255, 0.5)" stroke="none"/>
  <path d="M426.667 281.6c0-4.71-3.823-8.533-8.533-8.533s-8.533 3.823-8.533 8.533v17.067c0 4.71 3.823 8.533 8.533 8.533s8.533-3.823 8.533-8.533V281.6z" fill="rgba(255, 255, 255, 0.5)" stroke="none"/>
  <path d="M358.4 384c0-4.71-3.823-8.533-8.533-8.533s-8.533 3.823-8.533 8.533v17.067c0 4.71 3.823 8.533 8.533 8.533s8.533-3.823 8.533-8.533V384z" fill="rgba(255, 255, 255, 0.5)" stroke="none"/>
  <path d="M426.667 332.8c0-4.71-3.823-8.533-8.533-8.533s-8.533 3.823-8.533 8.533v17.067c0 4.71 3.823 8.533 8.533 8.533s8.533-3.823 8.533-8.533V332.8z" fill="rgba(255, 255, 255, 0.5)" stroke="none"/>
  <path d="M349.867 426.667a8.536 8.536 0 0 0-8.533 8.533v34.133c0 4.71 3.823 8.533 8.533 8.533s8.533-3.823 8.533-8.533V435.2a8.536 8.536 0 0 0-8.533-8.533z" fill="rgba(255, 255, 255, 0.5)" stroke="none"/>
  <path d="M358.4 332.8c0-4.71-3.823-8.533-8.533-8.533s-8.533 3.823-8.533 8.533v17.067c0 4.71 3.823 8.533 8.533 8.533s8.533-3.823 8.533-8.533V332.8z" fill="rgba(255, 255, 255, 0.5)" stroke="none"/>
  <path d="M384 477.867a8.536 8.536 0 0 0 8.533-8.533V196.267a8.536 8.536 0 0 0-6.46-8.277L249.54 153.856a8.546 8.546 0 0 0-7.322 1.553 8.518 8.518 0 0 0-3.285 6.724v187.733c0 4.71 3.823 8.533 8.533 8.533s8.533-3.823 8.533-8.533V173.065l119.467 29.867v266.402c.001 4.71 3.824 8.533 8.534 8.533z" fill="rgba(255, 255, 255, 0.5)" stroke="none"/>
  <path d="M187.733 179.2c0-4.71-3.823-8.533-8.533-8.533s-8.533 3.823-8.533 8.533v17.067c0 4.71 3.823 8.533 8.533 8.533s8.533-3.823 8.533-8.533V179.2z" fill="rgba(255, 255, 255, 0.5)" stroke="none"/>
  <path d="M187.733 128c0-4.71-3.823-8.533-8.533-8.533s-8.533 3.823-8.533 8.533v17.067c0 4.71 3.823 8.533 8.533 8.533s8.533-3.823 8.533-8.533V128z" fill="rgba(255, 255, 255, 0.5)" stroke="none"/>
  <path d="M119.467 384c0-4.71-3.823-8.533-8.533-8.533S102.4 379.29 102.4 384v17.067c0 4.71 3.823 8.533 8.533 8.533s8.533-3.823 8.533-8.533V384z" fill="rgba(255, 255, 255, 0.5)" stroke="none"/>
  <path d="M42.667 307.2a8.536 8.536 0 0 0 8.533-8.533V256h85.333v213.333a8.536 8.536 0 0 0 8.533 8.533 8.536 8.536 0 0 0 8.533-8.533V247.467a8.536 8.536 0 0 0-8.533-8.533h-102.4a8.536 8.536 0 0 0-8.533 8.533v51.2c0 4.71 3.823 8.533 8.534 8.533z" fill="rgba(255, 255, 255, 0.5)" stroke="none"/>
  <path d="M136.533 179.2v17.067a8.536 8.536 0 0 0 8.533 8.533 8.536 8.536 0 0 0 8.533-8.533V179.2a8.536 8.536 0 0 0-8.533-8.533 8.536 8.536 0 0 0-8.533 8.533z" fill="rgba(255, 255, 255, 0.5)" stroke="none"/>
  <path d="M187.733 76.8c0-4.71-3.823-8.533-8.533-8.533s-8.533 3.823-8.533 8.533v17.067c0 4.71 3.823 8.533 8.533 8.533s8.533-3.823 8.533-8.533V76.8z" fill="rgba(255, 255, 255, 0.5)" stroke="none"/>
  <path d="M110.933 426.667a8.536 8.536 0 0 0-8.533 8.533v34.133c0 4.71 3.823 8.533 8.533 8.533s8.533-3.823 8.533-8.533V435.2c.001-4.71-3.822-8.533-8.533-8.533z" fill="rgba(255, 255, 255, 0.5)" stroke="none"/>
  <path d="M503.467 494.933H486.4v-52.412c14.677-3.814 25.6-17.067 25.6-32.922 0-18.825-15.309-34.133-34.133-34.133s-34.133 15.309-34.133 34.133c0 15.855 10.923 29.107 25.6 32.922v52.412H256v-34.995c19.447-3.968 34.133-21.197 34.133-41.805 0-23.526-19.14-42.667-42.667-42.667-23.526 0-42.667 19.14-42.667 42.667 0 20.608 14.686 37.837 34.133 41.805v34.995H51.2v-86.195c19.447-3.968 34.133-21.197 34.133-41.805 0-23.526-19.14-42.667-42.667-42.667C19.14 324.267 0 343.407 0 366.933c0 20.608 14.686 37.837 34.133 41.805v86.195h-25.6c-4.71 0-8.533 3.823-8.533 8.533S3.823 512 8.533 512h494.933c4.71 0 8.533-3.823 8.533-8.533s-3.822-8.534-8.532-8.534zm-486.4-128c0-14.114 11.486-25.6 25.6-25.6s25.6 11.486 25.6 25.6-11.486 25.6-25.6 25.6-25.6-11.486-25.6-25.6zm204.8 51.2c0-14.114 11.486-25.6 25.6-25.6s25.6 11.486 25.6 25.6-11.486 25.6-25.6 25.6-25.6-11.486-25.6-25.6zM460.8 409.6c0-9.412 7.654-17.067 17.067-17.067s17.067 7.654 17.067 17.067c0 9.412-7.654 17.067-17.067 17.067S460.8 419.012 460.8 409.6z" fill="rgba(255, 255, 255, 0.5)" stroke="none"/>
  <path d="M68.267 435.2v34.133c0 4.71 3.823 8.533 8.533 8.533s8.533-3.823 8.533-8.533V435.2c0-4.71-3.823-8.533-8.533-8.533s-8.533 3.823-8.533 8.533z" fill="rgba(255, 255, 255, 0.5)" stroke="none"/>
  <path d="M119.467 281.6c0-4.71-3.823-8.533-8.533-8.533s-8.533 3.823-8.533 8.533v17.067c0 4.71 3.823 8.533 8.533 8.533s8.533-3.823 8.533-8.533V281.6z" fill="rgba(255, 255, 255, 0.5)" stroke="none"/>
  <path d="M119.467 332.8c0-4.71-3.823-8.533-8.533-8.533s-8.533 3.823-8.533 8.533v17.067c0 4.71 3.823 8.533 8.533 8.533s8.533-3.823 8.533-8.533V332.8z" fill="rgba(255, 255, 255, 0.5)" stroke="none"/>
  <path d="M68.267 281.6v17.067c0 4.71 3.823 8.533 8.533 8.533s8.533-3.823 8.533-8.533V281.6c0-4.71-3.823-8.533-8.533-8.533s-8.533 3.823-8.533 8.533z" fill="rgba(255, 255, 255, 0.5)" stroke="none"/>
  <path d="M187.733 332.8c0-4.71-3.823-8.533-8.533-8.533s-8.533 3.823-8.533 8.533v17.067c0 4.71 3.823 8.533 8.533 8.533s8.533-3.823 8.533-8.533V332.8z" fill="rgba(255, 255, 255, 0.5)" stroke="none"/>
  <path d="M221.867 230.4a8.536 8.536 0 0 0-8.533-8.533 8.536 8.536 0 0 0-8.533 8.533v17.067a8.536 8.536 0 0 0 8.533 8.533 8.536 8.536 0 0 0 8.533-8.533V230.4z" fill="rgba(255, 255, 255, 0.5)" stroke="none"/>
  <path d="M221.867 179.2a8.536 8.536 0 0 0-8.533-8.533 8.536 8.536 0 0 0-8.533 8.533v17.067a8.536 8.536 0 0 0 8.533 8.533 8.536 8.536 0 0 0 8.533-8.533V179.2z" fill="rgba(255, 255, 255, 0.5)" stroke="none"/>
  <path d="M221.867 281.6a8.536 8.536 0 0 0-8.533-8.533 8.536 8.536 0 0 0-8.533 8.533v17.067a8.536 8.536 0 0 0 8.533 8.533 8.536 8.536 0 0 0 8.533-8.533V281.6z" fill="rgba(255, 255, 255, 0.5)" stroke="none"/>
  <path d="M213.333 324.267a8.536 8.536 0 0 0-8.533 8.533v17.067a8.536 8.536 0 0 0 8.533 8.533 8.536 8.536 0 0 0 8.533-8.533V332.8c.001-4.71-3.822-8.533-8.533-8.533z" fill="rgba(255, 255, 255, 0.5)" stroke="none"/>
  <path d="M221.867 128a8.536 8.536 0 0 0-8.533-8.533 8.536 8.536 0 0 0-8.533 8.533v17.067a8.536 8.536 0 0 0 8.533 8.533 8.536 8.536 0 0 0 8.533-8.533V128z" fill="rgba(255, 255, 255, 0.5)" stroke="none"/>
  <path d="M187.733 384c0-4.71-3.823-8.533-8.533-8.533s-8.533 3.823-8.533 8.533v17.067c0 4.71 3.823 8.533 8.533 8.533s8.533-3.823 8.533-8.533V384z" fill="rgba(255, 255, 255, 0.5)" stroke="none"/>
  <path d="M110.933 221.867a8.536 8.536 0 0 0 8.533-8.533V150.34l29.414-14.703a8.542 8.542 0 0 0 4.719-7.637V56.474l42.667-21.333 42.667 21.333V128c0 4.71 3.823 8.533 8.533 8.533S256 132.71 256 128V51.2a8.541 8.541 0 0 0-4.719-7.637L204.8 20.326V8.533c0-4.71-3.823-8.533-8.533-8.533s-8.533 3.823-8.533 8.533v11.793l-46.481 23.236a8.542 8.542 0 0 0-4.719 7.637v71.526l-29.414 14.703a8.542 8.542 0 0 0-4.719 7.637v68.267c-.001 4.712 3.822 8.535 8.532 8.535z" fill="rgba(255, 255, 255, 0.5)" stroke="none"/>
  <path d="M187.733 281.6c0-4.71-3.823-8.533-8.533-8.533s-8.533 3.823-8.533 8.533v17.067c0 4.71 3.823 8.533 8.533 8.533s8.533-3.823 8.533-8.533V281.6z" fill="rgba(255, 255, 255, 0.5)" stroke="none"/>
  <path d="M179.2 426.667a8.536 8.536 0 0 0-8.533 8.533v34.133c0 4.71 3.823 8.533 8.533 8.533s8.533-3.823 8.533-8.533V435.2a8.536 8.536 0 0 0-8.533-8.533z" fill="rgba(255, 255, 255, 0.5)" stroke="none"/>
  <path d="M221.867 76.8a8.536 8.536 0 0 0-8.533-8.533 8.536 8.536 0 0 0-8.533 8.533v17.067a8.536 8.536 0 0 0 8.533 8.533 8.536 8.536 0 0 0 8.533-8.533V76.8z" fill="rgba(255, 255, 255, 0.5)" stroke="none"/>
  <path d="M187.733 230.4c0-4.71-3.823-8.533-8.533-8.533s-8.533 3.823-8.533 8.533v17.067c0 4.71 3.823 8.533 8.533 8.533s8.533-3.823 8.533-8.533V230.4z" fill="rgba(255, 255, 255, 0.5)" stroke="none"/>
</svg>
</g></svg></g></g>
<!-- /image 18585 -->

<!-- image 74363 -->
<g id="transformed-74363" data-image="74363" transform="translate(-24.020824298928627, -24.020824298928613) rotate(0, 24.020824298928627, 24.020824298928613)"><g><svg version="1.1" width="48.041648597857254px" height="48.041648597857225px" viewBox="0 0 48.041648597857254 48.041648597857225"><g id="original-74363"><svg xmlns="http://www.w3.org/2000/svg" viewBox="0 0 512 512" xmlns:xlink="http://www.w3.org/1999/xlink" version="1.1" preserveAspectRatio="xMidYMid meet">
  <path d="M366.933 477.867H128a8.536 8.536 0 0 0-8.533 8.533v17.067c0 4.71 3.823 8.533 8.533 8.533s8.533-3.823 8.533-8.533v-8.533h230.4c4.71 0 8.533-3.823 8.533-8.533s-3.822-8.534-8.533-8.534z" fill="rgba(255, 255, 255, 0.5)" stroke="none"/>
  <path d="M187.733 213.333a8.536 8.536 0 0 0 8.533 8.533H230.4a8.536 8.536 0 0 0 8.533-8.533v-51.2a8.536 8.536 0 0 0-8.533-8.533h-34.133a8.536 8.536 0 0 0-8.533 8.533v51.2zm17.067-42.666h17.067V204.8H204.8v-34.133z" fill="rgba(255, 255, 255, 0.5)" stroke="none"/>
  <path d="M110.933 102.4H8.533A8.536 8.536 0 0 0 0 110.933V281.6c0 4.71 3.823 8.533 8.533 8.533s8.533-3.823 8.533-8.533V119.467h93.867c4.71 0 8.533-3.823 8.533-8.533s-3.822-8.534-8.533-8.534z" fill="rgba(255, 255, 255, 0.5)" stroke="none"/>
  <path d="M409.6 418.133a8.536 8.536 0 0 0 8.533 8.533h34.133a8.536 8.536 0 0 0 8.533-8.533v-51.2a8.536 8.536 0 0 0-8.533-8.533h-34.133a8.536 8.536 0 0 0-8.533 8.533v51.2zm17.067-42.666h17.067V409.6h-17.067v-34.133z" fill="rgba(255, 255, 255, 0.5)" stroke="none"/>
  <path d="M42.667 307.2C.486 307.2 0 417.024 0 418.133c0 20.608 14.686 37.837 34.133 41.805v43.529A8.536 8.536 0 0 0 42.666 512a8.536 8.536 0 0 0 8.533-8.533v-43.529c19.447-3.968 34.133-21.197 34.133-41.805.001-1.109-.485-110.933-42.665-110.933zm0 136.533c-14.114 0-25.6-11.486-25.6-25.6 0-42.513 11.418-93.867 25.6-93.867 14.182 0 25.6 51.354 25.6 93.867 0 14.114-11.486 25.6-25.6 25.6z" fill="rgba(255, 255, 255, 0.5)" stroke="none"/>
  <path d="M93.867 256H59.733a8.536 8.536 0 0 0-8.533 8.533V281.6c0 4.71 3.823 8.533 8.533 8.533s8.533-3.823 8.533-8.533v-8.533h17.067v42.667a8.536 8.536 0 0 0 8.533 8.533 8.536 8.536 0 0 0 8.533-8.533v-51.2A8.535 8.535 0 0 0 93.867 256z" fill="rgba(255, 255, 255, 0.5)" stroke="none"/>
  <path d="M418.133 221.867h34.133a8.536 8.536 0 0 0 8.533-8.533v-51.2a8.536 8.536 0 0 0-8.533-8.533h-34.133a8.536 8.536 0 0 0-8.533 8.533v51.2a8.536 8.536 0 0 0 8.533 8.533zm8.534-51.2h17.067V204.8h-17.067v-34.133z" fill="rgba(255, 255, 255, 0.5)" stroke="none"/>
  <path d="M93.867 153.6H59.733a8.536 8.536 0 0 0-8.533 8.533v51.2a8.536 8.536 0 0 0 8.533 8.533h34.133a8.536 8.536 0 0 0 8.533-8.533v-51.2c.001-4.71-3.822-8.533-8.532-8.533zm-8.534 51.2H68.267v-34.133h17.067V204.8z" fill="rgba(255, 255, 255, 0.5)" stroke="none"/>
  <path d="M273.067 213.333a8.536 8.536 0 0 0 8.533 8.533h34.133a8.536 8.536 0 0 0 8.533-8.533v-51.2a8.536 8.536 0 0 0-8.533-8.533H281.6a8.536 8.536 0 0 0-8.533 8.533v51.2zm17.066-42.666H307.2V204.8h-17.067v-34.133z" fill="rgba(255, 255, 255, 0.5)" stroke="none"/>
  <path d="M503.467 102.4h-102.4c-4.71 0-8.533 3.823-8.533 8.533s3.823 8.533 8.533 8.533h93.867V462.37c-2.679-.956-5.521-1.57-8.533-1.57-1.476 0-2.944.128-4.386.384-5.888-10.607-17.092-17.451-29.747-17.451-12.655 0-23.859 6.844-29.747 17.451a25.094 25.094 0 0 0-4.386-.384c-14.114 0-25.6 11.486-25.6 25.6s11.486 25.6 25.6 25.6H486.4c14.114 0 25.6-11.486 25.6-25.6V110.933a8.536 8.536 0 0 0-8.533-8.533zM486.4 494.933h-68.267c-4.702 0-8.533-3.831-8.533-8.533s3.831-8.533 8.533-8.533c1.638 0 3.191.469 4.625 1.391a8.558 8.558 0 0 0 7.834.734 8.51 8.51 0 0 0 5.103-5.982c1.801-7.774 8.619-13.21 16.572-13.21 7.953 0 14.771 5.436 16.572 13.21a8.51 8.51 0 0 0 5.103 5.982 8.56 8.56 0 0 0 7.834-.734c5.555-3.584 13.158.802 13.158 7.142-.001 4.702-3.832 8.533-8.534 8.533z" fill="rgba(255, 255, 255, 0.5)" stroke="none"/>
  <path d="M281.6 119.467h34.133a8.536 8.536 0 0 0 8.533-8.533v-51.2a8.536 8.536 0 0 0-8.533-8.533H281.6a8.536 8.536 0 0 0-8.533 8.533v51.2a8.536 8.536 0 0 0 8.533 8.533zm8.533-51.2H307.2V102.4h-17.067V68.267z" fill="rgba(255, 255, 255, 0.5)" stroke="none"/>
  <path d="M273.067 315.733a8.536 8.536 0 0 0 8.533 8.533h34.133a8.536 8.536 0 0 0 8.533-8.533v-51.2a8.536 8.536 0 0 0-8.533-8.533H281.6a8.536 8.536 0 0 0-8.533 8.533v51.2zm17.066-42.666H307.2V307.2h-17.067v-34.133z" fill="rgba(255, 255, 255, 0.5)" stroke="none"/>
  <path d="M196.267 119.467H230.4a8.536 8.536 0 0 0 8.533-8.533v-51.2a8.536 8.536 0 0 0-8.533-8.533h-34.133a8.536 8.536 0 0 0-8.533 8.533v51.2c-.001 4.71 3.822 8.533 8.533 8.533zm8.533-51.2h17.067V102.4H204.8V68.267z" fill="rgba(255, 255, 255, 0.5)" stroke="none"/>
  <path d="M249.941 412.075c-1.536 1.621-2.475 3.84-2.475 6.059 0 2.219.939 4.437 2.475 6.059 1.621 1.536 3.84 2.475 6.059 2.475 2.219 0 4.437-.939 6.059-2.475 1.536-1.621 2.475-3.84 2.475-6.059 0-2.219-.939-4.437-2.475-6.059-3.243-3.158-8.875-3.158-12.118 0z" fill="rgba(255, 255, 255, 0.5)" stroke="none"/>
  <path d="M187.733 315.733a8.536 8.536 0 0 0 8.533 8.533H230.4a8.536 8.536 0 0 0 8.533-8.533v-51.2A8.536 8.536 0 0 0 230.4 256h-34.133a8.536 8.536 0 0 0-8.533 8.533v51.2zm17.067-42.666h17.067V307.2H204.8v-34.133z" fill="rgba(255, 255, 255, 0.5)" stroke="none"/>
  <path d="M170.667 366.933a8.536 8.536 0 0 0 8.533 8.533h25.6v76.8a8.536 8.536 0 0 0 8.533 8.533 8.536 8.536 0 0 0 8.533-8.533v-76.8h68.267v76.8c0 4.71 3.823 8.533 8.533 8.533s8.533-3.823 8.533-8.533v-76.8h25.6c4.71 0 8.533-3.823 8.533-8.533s-3.823-8.533-8.533-8.533H179.2a8.536 8.536 0 0 0-8.533 8.533z" fill="rgba(255, 255, 255, 0.5)" stroke="none"/>
  <path d="M409.6 315.733a8.536 8.536 0 0 0 8.533 8.533h34.133a8.536 8.536 0 0 0 8.533-8.533v-51.2a8.536 8.536 0 0 0-8.533-8.533h-34.133a8.536 8.536 0 0 0-8.533 8.533v51.2zm17.067-42.666h17.067V307.2h-17.067v-34.133z" fill="rgba(255, 255, 255, 0.5)" stroke="none"/>
  <path d="M366.933 0H145.067a8.536 8.536 0 0 0-8.533 8.533v443.733a8.536 8.536 0 0 0 8.533 8.533 8.536 8.536 0 0 0 8.533-8.533v-435.2h204.8v435.2c0 4.71 3.823 8.533 8.533 8.533s8.533-3.823 8.533-8.533V8.533c.001-4.71-3.822-8.533-8.533-8.533z" fill="rgba(255, 255, 255, 0.5)" stroke="none"/>
</svg>
</g></svg></g></g>
<!-- /image 74363 -->
</defs><rect x="0" y="0" width="200" height="100" fill="rgba(0, 102, 204, 1)"></rect><use xlink:href="#transformed-18585" transform="translate(-200, -100)"></use><use xlink:href="#transformed-18585" transform="translate(0, -100)"></use><use xlink:href="#transformed-18585" transform="translate(200, -100)"></use><use xlink:href="#transformed-18585" transform="translate(-200, 0)"></use><use xlink:href="#transformed-18585" transform="translate(0, 0)"></use><use xlink:href="#transformed-18585" transform="translate(200, 0)"></use><use xlink:href="#transformed-18585" transform="translate(-200, 100)"></use><use xlink:href="#transformed-18585" transform="translate(0, 100)"></use><use xlink:href="#transformed-18585" transform="translate(200, 100)"></use><use xlink:href="#transformed-74363" transform="translate(-200, -100)"></use><use xlink:href="#transformed-74363" transform="translate(0, -100)"></use><use xlink:href="#transformed-74363" transform="translate(200, -100)"></use><use xlink:href="#transformed-74363" transform="translate(-200, 0)"></use><use xlink:href="#transformed-74363" transform="translate(0, 0)"></use><use xlink:href="#transformed-74363" transform="translate(200, 0)"></use><use xlink:href="#transformed-74363" transform="translate(-200, 100)"></use><use xlink:href="#transformed-74363" transform="translate(0, 100)"></use><use xlink:href="#transformed-74363" transform="translate(200, 100)"></use></svg>