<svg version="1.1"
      xmlns="http://www.w3.org/2000/svg"
      xmlns:xlink="http://www.w3.org/1999/xlink"  id="snapshot-95792" width="200" height="100" viewBox="0 0 200 100"><desc>This image was made on Patterninja.com</desc><defs>
<!-- image 27904 -->
<g id="transformed-27904" data-image="27904" transform="translate(-23.769728648009416, -23.769728648009426) rotate(0, 23.769728648009416, 23.769728648009426)"><g><svg version="1.1" width="47.53945729601883px" height="47.53945729601885px" viewBox="0 0 47.53945729601883 47.53945729601885"><g id="original-27904"><svg xmlns="http://www.w3.org/2000/svg" viewBox="0 0 512 512" xmlns:xlink="http://www.w3.org/1999/xlink" version="1.1" preserveAspectRatio="xMidYMid meet">
  <path d="M76.8 443.733h17.067c4.719 0 8.533-3.823 8.533-8.533s-3.814-8.533-8.533-8.533H76.8c-4.719 0-8.533 3.823-8.533 8.533s3.814 8.533 8.533 8.533z" fill="rgba(255, 255, 255, 0.5)" stroke="none"/>
  <path d="M315.733 366.933a8.53 8.53 0 0 0-8.533-8.533h-25.6c-4.719 0-8.533 3.823-8.533 8.533s3.814 8.533 8.533 8.533h25.6a8.53 8.53 0 0 0 8.533-8.533z" fill="rgba(255, 255, 255, 0.5)" stroke="none"/>
  <path d="M128 170.667h85.333a8.53 8.53 0 0 0 8.533-8.533 8.53 8.53 0 0 0-8.533-8.533H128a8.53 8.53 0 0 0-8.533 8.533 8.53 8.53 0 0 0 8.533 8.533z" fill="rgba(255, 255, 255, 0.5)" stroke="none"/>
  <path d="M264.533 409.6H281.6c4.719 0 8.533-3.823 8.533-8.533s-3.814-8.533-8.533-8.533h-17.067c-4.719 0-8.533 3.823-8.533 8.533s3.814 8.533 8.533 8.533z" fill="rgba(255, 255, 255, 0.5)" stroke="none"/>
  <path d="M290.133 196.267a8.53 8.53 0 0 0 8.533 8.533H384c4.719 0 8.533-3.823 8.533-8.533s-3.814-8.533-8.533-8.533h-85.333a8.53 8.53 0 0 0-8.534 8.533z" fill="rgba(255, 255, 255, 0.5)" stroke="none"/>
  <path d="M204.8 435.2a8.53 8.53 0 0 0 8.533 8.533h85.333c4.719 0 8.533-3.823 8.533-8.533s-3.814-8.533-8.533-8.533h-85.333a8.53 8.53 0 0 0-8.533 8.533z" fill="rgba(255, 255, 255, 0.5)" stroke="none"/>
  <path d="M366.933 170.667a8.53 8.53 0 0 0 8.533-8.533 8.53 8.53 0 0 0-8.533-8.533H332.8a8.53 8.53 0 0 0-8.533 8.533 8.53 8.53 0 0 0 8.533 8.533h34.133z" fill="rgba(255, 255, 255, 0.5)" stroke="none"/>
  <path d="M247.467 358.4h-51.2c-4.719 0-8.533 3.823-8.533 8.533s3.814 8.533 8.533 8.533h51.2c4.719 0 8.533-3.823 8.533-8.533s-3.814-8.533-8.533-8.533z" fill="rgba(255, 255, 255, 0.5)" stroke="none"/>
  <path d="M128 204.8h136.533c4.719 0 8.533-3.823 8.533-8.533s-3.814-8.533-8.533-8.533H128c-4.719 0-8.533 3.823-8.533 8.533s3.814 8.533 8.533 8.533z" fill="rgba(255, 255, 255, 0.5)" stroke="none"/>
  <path d="M76.8 204.8h17.067c4.719 0 8.533-3.823 8.533-8.533s-3.814-8.533-8.533-8.533H76.8c-4.719 0-8.533 3.823-8.533 8.533s3.814 8.533 8.533 8.533z" fill="rgba(255, 255, 255, 0.5)" stroke="none"/>
  <path d="M76.8 170.667h17.067a8.53 8.53 0 0 0 8.533-8.533 8.53 8.53 0 0 0-8.533-8.533H76.8a8.53 8.53 0 0 0-8.533 8.533 8.53 8.53 0 0 0 8.533 8.533z" fill="rgba(255, 255, 255, 0.5)" stroke="none"/>
  <path d="M76.8 238.933h17.067c4.719 0 8.533-3.823 8.533-8.533s-3.814-8.533-8.533-8.533H76.8c-4.719 0-8.533 3.823-8.533 8.533s3.814 8.533 8.533 8.533z" fill="rgba(255, 255, 255, 0.5)" stroke="none"/>
  <path d="M332.8 494.933H42.667c-14.114 0-25.6-11.486-25.6-25.6V128c0-4.71-3.814-8.533-8.533-8.533S0 123.29 0 128v341.333C0 492.86 19.14 512 42.667 512H332.8c4.719 0 8.533-3.823 8.533-8.533s-3.814-8.534-8.533-8.534z" fill="rgba(255, 255, 255, 0.5)" stroke="none"/>
  <path d="M76.8 409.6h17.067c4.719 0 8.533-3.823 8.533-8.533s-3.814-8.533-8.533-8.533H76.8c-4.719 0-8.533 3.823-8.533 8.533s3.814 8.533 8.533 8.533z" fill="rgba(255, 255, 255, 0.5)" stroke="none"/>
  <path d="M76.8 273.067h17.067a8.53 8.53 0 0 0 8.533-8.533 8.53 8.53 0 0 0-8.533-8.533H76.8a8.53 8.53 0 0 0-8.533 8.533 8.53 8.53 0 0 0 8.533 8.533z" fill="rgba(255, 255, 255, 0.5)" stroke="none"/>
  <path d="M76.8 341.333h17.067a8.53 8.53 0 0 0 8.533-8.533 8.53 8.53 0 0 0-8.533-8.533H76.8a8.53 8.53 0 0 0-8.533 8.533 8.53 8.53 0 0 0 8.533 8.533z" fill="rgba(255, 255, 255, 0.5)" stroke="none"/>
  <path d="M76.8 375.467h17.067c4.719 0 8.533-3.823 8.533-8.533s-3.814-8.533-8.533-8.533H76.8c-4.719 0-8.533 3.823-8.533 8.533s3.814 8.533 8.533 8.533z" fill="rgba(255, 255, 255, 0.5)" stroke="none"/>
  <path d="M76.8 307.2h17.067c4.719 0 8.533-3.823 8.533-8.533s-3.814-8.533-8.533-8.533H76.8c-4.719 0-8.533 3.823-8.533 8.533s3.814 8.533 8.533 8.533z" fill="rgba(255, 255, 255, 0.5)" stroke="none"/>
  <path d="M128 238.933h34.133c4.719 0 8.533-3.823 8.533-8.533s-3.814-8.533-8.533-8.533H128c-4.719 0-8.533 3.823-8.533 8.533s3.814 8.533 8.533 8.533z" fill="rgba(255, 255, 255, 0.5)" stroke="none"/>
  <path d="M332.8 332.8a8.53 8.53 0 0 0-8.533-8.533h-59.733a8.53 8.53 0 0 0-8.533 8.533 8.53 8.53 0 0 0 8.533 8.533h59.733a8.53 8.53 0 0 0 8.533-8.533z" fill="rgba(255, 255, 255, 0.5)" stroke="none"/>
  <path d="M128 375.467h34.133c4.719 0 8.533-3.823 8.533-8.533s-3.814-8.533-8.533-8.533H128c-4.719 0-8.533 3.823-8.533 8.533s3.814 8.533 8.533 8.533z" fill="rgba(255, 255, 255, 0.5)" stroke="none"/>
  <path d="M503.467 392.533H490.47a76.514 76.514 0 0 0-3.081-7.458l9.182-9.182c3.336-3.337 3.336-8.738 0-12.066l-24.132-24.132c-3.328-3.337-8.73-3.328-12.066-.009l-9.19 9.182a75.942 75.942 0 0 0-7.45-3.081V332.8a8.53 8.53 0 0 0-8.533-8.533h-34.125a8.53 8.53 0 0 0-8.533 8.533v12.988a75 75 0 0 0-7.458 3.089l-9.19-9.19c-3.2-3.2-8.866-3.2-12.066 0l-24.124 24.132c-3.337 3.328-3.337 8.73 0 12.066l9.182 9.182a75.813 75.813 0 0 0-3.089 7.467H332.8a8.53 8.53 0 0 0-8.533 8.533V435.2a8.53 8.53 0 0 0 8.533 8.533h12.996a78.677 78.677 0 0 0 3.081 7.45l-9.182 9.182c-3.337 3.337-3.337 8.738 0 12.066l24.132 24.132c3.2 3.2 8.866 3.2 12.066 0l9.182-9.182a76.331 76.331 0 0 0 7.45 3.089v12.996a8.53 8.53 0 0 0 8.533 8.533h34.133a8.53 8.53 0 0 0 8.533-8.533V490.47a76.867 76.867 0 0 0 7.45-3.081l9.19 9.19a8.526 8.526 0 0 0 6.033 2.5c2.27 0 4.437-.896 6.033-2.5l24.132-24.132c3.337-3.328 3.337-8.73 0-12.066l-9.182-9.182a75.813 75.813 0 0 0 3.089-7.467h12.996a8.53 8.53 0 0 0 8.533-8.533v-34.133a8.528 8.528 0 0 0-8.531-8.533zm-8.534 34.134h-10.778a8.534 8.534 0 0 0-8.26 6.409 58.83 58.83 0 0 1-6.357 15.343 8.534 8.534 0 0 0 1.314 10.385l7.612 7.612-12.066 12.066-7.612-7.62a8.535 8.535 0 0 0-10.377-1.314 59.398 59.398 0 0 1-15.343 6.349 8.526 8.526 0 0 0-6.409 8.26v10.778H409.59v-10.786a8.525 8.525 0 0 0-6.417-8.26 59.245 59.245 0 0 1-15.326-6.349c-3.337-1.98-7.612-1.442-10.377 1.314l-7.612 7.612-12.066-12.066 7.612-7.612a8.55 8.55 0 0 0 1.323-10.377 58.83 58.83 0 0 1-6.357-15.343 8.536 8.536 0 0 0-8.26-6.4h-10.778V409.6h10.778a8.534 8.534 0 0 0 8.26-6.409 58.642 58.642 0 0 1 6.357-15.351 8.548 8.548 0 0 0-1.323-10.377l-7.603-7.612 12.058-12.066 7.612 7.612c2.765 2.765 7.031 3.302 10.368 1.323a59.679 59.679 0 0 1 15.369-6.357 8.536 8.536 0 0 0 6.4-8.26v-10.769h17.058v10.769a8.536 8.536 0 0 0 6.4 8.26 59.703 59.703 0 0 1 15.351 6.349c3.337 1.98 7.612 1.442 10.377-1.306l7.612-7.612 12.066 12.066-7.612 7.612a8.55 8.55 0 0 0-1.323 10.377 58.83 58.83 0 0 1 6.357 15.343 8.534 8.534 0 0 0 8.26 6.409h10.778v17.066z" fill="rgba(255, 255, 255, 0.5)" stroke="none"/>
  <path d="M128 409.6h102.4c4.719 0 8.533-3.823 8.533-8.533s-3.814-8.533-8.533-8.533H128c-4.719 0-8.533 3.823-8.533 8.533s3.814 8.533 8.533 8.533z" fill="rgba(255, 255, 255, 0.5)" stroke="none"/>
  <path d="M418.133 392.533c-14.114 0-25.6 11.486-25.6 25.6s11.486 25.6 25.6 25.6 25.6-11.486 25.6-25.6-11.486-25.6-25.6-25.6zm0 34.134c-4.71 0-8.533-3.831-8.533-8.533s3.823-8.533 8.533-8.533 8.533 3.831 8.533 8.533-3.822 8.533-8.533 8.533z" fill="rgba(255, 255, 255, 0.5)" stroke="none"/>
  <path d="M469.333 0H42.667C19.14 0 0 19.14 0 42.667v51.2a8.53 8.53 0 0 0 8.533 8.533h460.8a8.53 8.53 0 0 0 8.533-8.533 8.53 8.53 0 0 0-8.533-8.533H17.067V42.667c0-14.114 11.486-25.6 25.6-25.6h426.667c14.114 0 25.6 11.486 25.6 25.6V332.8a8.53 8.53 0 0 0 8.533 8.533A8.53 8.53 0 0 0 512 332.8V42.667C512 19.14 492.86 0 469.333 0z" fill="rgba(255, 255, 255, 0.5)" stroke="none"/>
  <path d="M51.2 51.2c0 9.412 7.654 17.067 17.067 17.067 9.404 0 17.067-7.654 17.067-17.067 0-9.412-7.663-17.067-17.067-17.067-9.413 0-17.067 7.655-17.067 17.067z" fill="rgba(255, 255, 255, 0.5)" stroke="none"/>
  <path d="M102.4 51.2c0 9.412 7.654 17.067 17.067 17.067 9.404 0 17.067-7.654 17.067-17.067 0-9.412-7.663-17.067-17.067-17.067-9.413 0-17.067 7.655-17.067 17.067z" fill="rgba(255, 255, 255, 0.5)" stroke="none"/>
  <path d="M153.6 51.2c0 9.412 7.654 17.067 17.067 17.067 9.404 0 17.067-7.654 17.067-17.067 0-9.412-7.663-17.067-17.067-17.067-9.413 0-17.067 7.655-17.067 17.067z" fill="rgba(255, 255, 255, 0.5)" stroke="none"/>
  <path d="M128 443.733h51.2c4.719 0 8.533-3.823 8.533-8.533s-3.814-8.533-8.533-8.533H128c-4.719 0-8.533 3.823-8.533 8.533s3.814 8.533 8.533 8.533z" fill="rgba(255, 255, 255, 0.5)" stroke="none"/>
  <path d="M366.933 273.067a8.53 8.53 0 0 0 8.533-8.533 8.53 8.53 0 0 0-8.533-8.533h-68.267a8.53 8.53 0 0 0-8.533 8.533 8.53 8.53 0 0 0 8.533 8.533h68.267z" fill="rgba(255, 255, 255, 0.5)" stroke="none"/>
  <path d="M426.667 230.4a8.53 8.53 0 0 0-8.533-8.533H281.6c-4.719 0-8.533 3.823-8.533 8.533s3.814 8.533 8.533 8.533h136.533a8.531 8.531 0 0 0 8.534-8.533z" fill="rgba(255, 255, 255, 0.5)" stroke="none"/>
  <path d="M298.667 153.6h-51.2a8.53 8.53 0 0 0-8.533 8.533 8.53 8.53 0 0 0 8.533 8.533h51.2a8.53 8.53 0 0 0 8.533-8.533 8.53 8.53 0 0 0-8.533-8.533z" fill="rgba(255, 255, 255, 0.5)" stroke="none"/>
  <path d="M392.533 298.667a8.53 8.53 0 0 0-8.533-8.533H247.467c-4.719 0-8.533 3.823-8.533 8.533s3.814 8.533 8.533 8.533H384a8.53 8.53 0 0 0 8.533-8.533z" fill="rgba(255, 255, 255, 0.5)" stroke="none"/>
  <path d="M128 341.333h102.4a8.53 8.53 0 0 0 8.533-8.533 8.53 8.53 0 0 0-8.533-8.533H128a8.53 8.53 0 0 0-8.533 8.533 8.53 8.53 0 0 0 8.533 8.533z" fill="rgba(255, 255, 255, 0.5)" stroke="none"/>
  <path d="M196.267 221.867c-4.719 0-8.533 3.823-8.533 8.533s3.814 8.533 8.533 8.533h51.2c4.719 0 8.533-3.823 8.533-8.533s-3.814-8.533-8.533-8.533h-51.2z" fill="rgba(255, 255, 255, 0.5)" stroke="none"/>
  <path d="M128 307.2h85.333c4.719 0 8.533-3.823 8.533-8.533s-3.814-8.533-8.533-8.533H128c-4.719 0-8.533 3.823-8.533 8.533s3.814 8.533 8.533 8.533z" fill="rgba(255, 255, 255, 0.5)" stroke="none"/>
  <path d="M128 273.067h136.533a8.53 8.53 0 0 0 8.533-8.533 8.53 8.53 0 0 0-8.533-8.533H128a8.53 8.53 0 0 0-8.533 8.533 8.53 8.53 0 0 0 8.533 8.533z" fill="rgba(255, 255, 255, 0.5)" stroke="none"/>
</svg>
</g></svg></g></g>
<!-- /image 27904 -->

<!-- image 73894 -->
<g id="transformed-73894" data-image="73894" transform="translate(77, 32) rotate(0, 24, 23.999999999999996)"><g><svg version="1.1" width="48px" height="47.99999999999999px" viewBox="0 0 48 47.99999999999999"><g id="original-73894"><svg xmlns="http://www.w3.org/2000/svg" viewBox="0 0 512 512" xmlns:xlink="http://www.w3.org/1999/xlink" version="1.1" preserveAspectRatio="xMidYMid meet">
  <path d="M128 273.067h51.2a8.536 8.536 0 0 0 8.533-8.533 8.536 8.536 0 0 0-8.533-8.533h-42.667v-17.067h8.533c4.71 0 8.533-3.823 8.533-8.533s-3.823-8.533-8.533-8.533h-8.533V204.8h8.533c4.71 0 8.533-3.823 8.533-8.533s-3.823-8.533-8.533-8.533h-8.533v-17.067H179.2a8.536 8.536 0 0 0 8.533-8.533 8.536 8.536 0 0 0-8.533-8.533h-42.667v-17.067h8.533c4.71 0 8.533-3.823 8.533-8.533s-3.823-8.533-8.533-8.533h-8.533V102.4h8.533a8.536 8.536 0 0 0 8.533-8.533 8.536 8.536 0 0 0-8.533-8.533h-8.533V68.267H179.2c4.71 0 8.533-3.823 8.533-8.533S183.91 51.2 179.2 51.2h-42.667V17.067H256v247.467a8.536 8.536 0 0 0 8.533 8.533 8.536 8.536 0 0 0 8.533-8.533v-256a8.536 8.536 0 0 0-8.533-8.533H128a8.536 8.536 0 0 0-8.533 8.533v256a8.536 8.536 0 0 0 8.533 8.533z" fill="rgba(255, 255, 255, 0.5)" stroke="none"/>
  <path d="M8.533 273.067a8.536 8.536 0 0 0 8.533-8.533V42.667c0-12.442 13.158-25.6 25.6-25.6h51.2c4.71 0 8.533-3.823 8.533-8.533S98.577 0 93.867 0h-51.2C20.736 0 0 20.736 0 42.667v221.867a8.536 8.536 0 0 0 8.533 8.533z" fill="rgba(255, 255, 255, 0.5)" stroke="none"/>
  <path d="M384 102.4a8.536 8.536 0 0 0-8.533 8.533v153.6c0 4.71 3.823 8.533 8.533 8.533s8.533-3.823 8.533-8.533v-153.6A8.536 8.536 0 0 0 384 102.4z" fill="rgba(255, 255, 255, 0.5)" stroke="none"/>
  <path d="M332.8 110.933v153.6c0 4.71 3.823 8.533 8.533 8.533s8.533-3.823 8.533-8.533v-153.6c0-4.71-3.823-8.533-8.533-8.533s-8.533 3.823-8.533 8.533z" fill="rgba(255, 255, 255, 0.5)" stroke="none"/>
  <path d="M349.867 494.933h-8.533V486.4a8.536 8.536 0 0 0-8.533-8.533 8.536 8.536 0 0 0-8.533 8.533v8.533H307.2V486.4c0-4.71-3.823-8.533-8.533-8.533s-8.533 3.823-8.533 8.533v8.533h-17.067V486.4a8.536 8.536 0 0 0-8.533-8.533 8.536 8.536 0 0 0-8.533 8.533v8.533h-17.067V486.4c0-4.71-3.823-8.533-8.533-8.533s-8.533 3.823-8.533 8.533v8.533H204.8V486.4c0-4.71-3.823-8.533-8.533-8.533s-8.533 3.823-8.533 8.533v8.533h-17.067V486.4a8.536 8.536 0 0 0-8.533-8.533 8.536 8.536 0 0 0-8.533 8.533v8.533h-17.067V486.4c0-4.71-3.823-8.533-8.533-8.533s-8.533 3.823-8.533 8.533v8.533H102.4V486.4a8.536 8.536 0 0 0-8.533-8.533 8.536 8.536 0 0 0-8.533 8.533v8.533H68.267V486.4c0-4.71-3.823-8.533-8.533-8.533S51.2 481.69 51.2 486.4v8.533h-8.533c-4.71 0-8.533 3.823-8.533 8.533S37.956 512 42.667 512h307.2c4.71 0 8.533-3.823 8.533-8.533s-3.823-8.534-8.533-8.534z" fill="rgba(255, 255, 255, 0.5)" stroke="none"/>
  <path d="M298.667 273.067a8.536 8.536 0 0 0 8.533-8.533V79.249l34.133-54.613 27.273 43.631H332.8c-4.71 0-8.533 3.823-8.533 8.533s3.823 8.533 8.533 8.533H384a8.54 8.54 0 0 0 7.467-4.395 8.534 8.534 0 0 0-.23-8.661L348.57 4.011c-3.123-4.992-11.349-4.992-14.473 0L291.43 72.277a8.545 8.545 0 0 0-1.297 4.523v187.733a8.537 8.537 0 0 0 8.534 8.534z" fill="rgba(255, 255, 255, 0.5)" stroke="none"/>
  <path d="M469.333 0H384c-4.71 0-8.533 3.823-8.533 8.533s3.823 8.533 8.533 8.533h85.333c12.442 0 25.6 13.158 25.6 25.6v307.2c0 12.442-13.158 25.6-25.6 25.6H42.667c-12.442 0-25.6-13.158-25.6-25.6V307.2h452.267c4.71 0 8.533-3.823 8.533-8.533s-3.823-8.533-8.533-8.533H8.533A8.536 8.536 0 0 0 0 298.667v51.2c0 21.931 20.736 42.667 42.667 42.667h426.667c21.931 0 42.667-20.736 42.667-42.667v-307.2C512 20.736 491.264 0 469.333 0z" fill="rgba(255, 255, 255, 0.5)" stroke="none"/>
  <path d="M238.933 341.333c0 9.412 7.654 17.067 17.067 17.067 9.412 0 17.067-7.654 17.067-17.067 0-9.412-7.654-17.067-17.067-17.067-9.412.001-17.067 7.655-17.067 17.067z" fill="rgba(255, 255, 255, 0.5)" stroke="none"/>
  <path d="M298.667 460.8a8.536 8.536 0 0 0 8.533-8.533v-34.133c0-4.71-3.823-8.533-8.533-8.533s-8.533 3.823-8.533 8.533v34.133c-.001 4.71 3.822 8.533 8.533 8.533z" fill="rgba(255, 255, 255, 0.5)" stroke="none"/>
  <path d="M221.867 452.267v-34.133a8.536 8.536 0 0 0-8.533-8.533 8.536 8.536 0 0 0-8.533 8.533v34.133a8.536 8.536 0 0 0 8.533 8.533 8.536 8.536 0 0 0 8.533-8.533z" fill="rgba(255, 255, 255, 0.5)" stroke="none"/>
  <path d="M443.733 460.8h-17.067c-18.825 0-34.133 15.309-34.133 34.133v8.533a8.536 8.536 0 0 0 8.533 8.533h68.267a8.536 8.536 0 0 0 8.533-8.533v-8.533c.001-18.824-15.308-34.133-34.133-34.133zM409.6 494.933c0-9.412 7.654-17.067 17.067-17.067h17.067c9.412 0 17.067 7.654 17.067 17.067H409.6z" fill="rgba(255, 255, 255, 0.5)" stroke="none"/>
</svg>
</g></svg></g></g>
<!-- /image 73894 -->
</defs><rect x="0" y="0" width="200" height="100" fill="rgba(0, 102, 204, 1)"></rect><use xlink:href="#transformed-27904" transform="translate(-200, -100)"></use><use xlink:href="#transformed-27904" transform="translate(0, -100)"></use><use xlink:href="#transformed-27904" transform="translate(200, -100)"></use><use xlink:href="#transformed-27904" transform="translate(-200, 0)"></use><use xlink:href="#transformed-27904" transform="translate(0, 0)"></use><use xlink:href="#transformed-27904" transform="translate(200, 0)"></use><use xlink:href="#transformed-27904" transform="translate(-200, 100)"></use><use xlink:href="#transformed-27904" transform="translate(0, 100)"></use><use xlink:href="#transformed-27904" transform="translate(200, 100)"></use><use xlink:href="#transformed-73894" transform="translate(-200, -100)"></use><use xlink:href="#transformed-73894" transform="translate(0, -100)"></use><use xlink:href="#transformed-73894" transform="translate(200, -100)"></use><use xlink:href="#transformed-73894" transform="translate(-200, 0)"></use><use xlink:href="#transformed-73894" transform="translate(0, 0)"></use><use xlink:href="#transformed-73894" transform="translate(200, 0)"></use><use xlink:href="#transformed-73894" transform="translate(-200, 100)"></use><use xlink:href="#transformed-73894" transform="translate(0, 100)"></use><use xlink:href="#transformed-73894" transform="translate(200, 100)"></use></svg>