<svg version="1.1"
      xmlns="http://www.w3.org/2000/svg"
      xmlns:xlink="http://www.w3.org/1999/xlink"  id="snapshot-61963" width="200" height="100" viewBox="0 0 200 100"><desc>This image was made on Patterninja.com</desc><defs>
<!-- image 29739 -->
<g id="transformed-29739" data-image="29739" transform="translate(-24.08318915758459, -24.08318915758459) rotate(0, 24.08318915758459, 24.08318915758459)"><g><svg version="1.1" width="48.16637831516918px" height="48.16637831516918px" viewBox="0 0 48.16637831516918 48.16637831516918"><g id="original-29739"><svg xmlns="http://www.w3.org/2000/svg" viewBox="0 0 512 512" xmlns:xlink="http://www.w3.org/1999/xlink" version="1.1" preserveAspectRatio="xMidYMid meet">
  <path d="M366.933 477.867H307.2V435.2c0-4.71-3.823-8.533-8.533-8.533s-8.533 3.823-8.533 8.533v42.667h-68.267V435.2a8.536 8.536 0 0 0-8.533-8.533 8.536 8.536 0 0 0-8.533 8.533v42.667h-59.733c-4.71 0-8.533 3.823-8.533 8.533s3.823 8.533 8.533 8.533h221.867c4.71 0 8.533-3.823 8.533-8.533s-3.824-8.533-8.535-8.533z" fill="rgba(255, 255, 255, 0.5)" stroke="none"/>
  <path d="M256.256 358.4h-.085c-4.71 0-8.491 3.823-8.491 8.533s3.866 8.533 8.576 8.533c4.719 0 8.533-3.823 8.533-8.533s-3.814-8.533-8.533-8.533z" fill="rgba(255, 255, 255, 0.5)" stroke="none"/>
  <path d="M412.1 134.033a8.51 8.51 0 0 0 6.033 2.5 8.509 8.509 0 0 0 6.033-2.5 8.525 8.525 0 0 0 0-12.066L407.1 104.9a8.523 8.523 0 0 0-12.066 0 8.523 8.523 0 0 0 0 12.066l17.066 17.067z" fill="rgba(255, 255, 255, 0.5)" stroke="none"/>
  <path d="M412.1 185.233a8.51 8.51 0 0 0 6.033 2.5 8.509 8.509 0 0 0 6.033-2.5 8.525 8.525 0 0 0 0-12.066L355.9 104.9a8.523 8.523 0 0 0-12.066 0 8.523 8.523 0 0 0 0 12.066l68.266 68.267z" fill="rgba(255, 255, 255, 0.5)" stroke="none"/>
  <path d="M469.333 17.067H42.667C20.736 17.067 0 37.803 0 59.733v307.2C0 388.864 20.736 409.6 42.667 409.6h426.667c21.931 0 42.667-20.736 42.667-42.667v-307.2c-.001-21.93-20.737-42.666-42.668-42.666zm25.6 349.866c0 12.442-13.158 25.6-25.6 25.6H42.667c-12.442 0-25.6-13.158-25.6-25.6v-307.2c0-12.442 13.158-25.6 25.6-25.6h426.667c12.442 0 25.6 13.158 25.6 25.6v307.2z" fill="rgba(255, 255, 255, 0.5)" stroke="none"/>
  <path d="M469.333 51.2H42.667a8.536 8.536 0 0 0-8.533 8.533V332.8a8.536 8.536 0 0 0 8.533 8.533h426.667a8.536 8.536 0 0 0 8.533-8.533V59.733c0-4.71-3.823-8.533-8.534-8.533zM460.8 324.267H51.2v-256h409.6v256z" fill="rgba(255, 255, 255, 0.5)" stroke="none"/>
</svg>
</g></svg></g></g>
<!-- /image 29739 -->

<!-- image 85475 -->
<g id="transformed-85475" data-image="85475" transform="translate(76.97917570107137, 31.979175701071373) rotate(0, 24.020824298928623, 24.020824298928627)"><g><svg version="1.1" width="48.04164859785725px" height="48.041648597857254px" viewBox="0 0 48.04164859785725 48.041648597857254"><g id="original-85475"><svg xmlns="http://www.w3.org/2000/svg" viewBox="0 0 512 512" xmlns:xlink="http://www.w3.org/1999/xlink" version="1.1" preserveAspectRatio="xMidYMid meet">
  <path d="M230.571 34.133c-4.71 0-8.491 3.823-8.491 8.533 0 4.71 3.857 8.533 8.576 8.533s8.533-3.823 8.533-8.533a8.53 8.53 0 0 0-8.533-8.533h-.085z" fill="rgba(255, 255, 255, 0.5)" stroke="none"/>
  <path d="M238.933 460.8c0 9.412 7.654 17.067 17.067 17.067 9.412 0 17.067-7.654 17.067-17.067 0-9.412-7.654-17.067-17.067-17.067-9.412 0-17.067 7.655-17.067 17.067z" fill="rgba(255, 255, 255, 0.5)" stroke="none"/>
  <path d="M128 392.533a8.536 8.536 0 0 0 8.533-8.533V42.667c0-12.442 13.158-25.6 25.6-25.6h187.733c12.442 0 25.6 13.158 25.6 25.6 0 4.71 3.823 8.533 8.533 8.533s8.533-3.823 8.533-8.533C392.533 20.736 371.797 0 349.867 0H162.133c-21.931 0-42.667 20.736-42.667 42.667V384c.001 4.71 3.824 8.533 8.534 8.533z" fill="rgba(255, 255, 255, 0.5)" stroke="none"/>
  <path d="M264.533 34.133A8.536 8.536 0 0 0 256 42.666a8.536 8.536 0 0 0 8.533 8.533h34.133a8.536 8.536 0 0 0 8.533-8.533 8.536 8.536 0 0 0-8.533-8.533h-34.133z" fill="rgba(255, 255, 255, 0.5)" stroke="none"/>
  <path d="M332.8 153.6a8.509 8.509 0 0 0 6.033-2.5 8.523 8.523 0 0 0 0-12.066l-17.067-17.067a8.525 8.525 0 0 0-12.066 0 8.525 8.525 0 0 0 0 12.066l17.067 17.067a8.509 8.509 0 0 0 6.033 2.5z" fill="rgba(255, 255, 255, 0.5)" stroke="none"/>
  <path d="M258.5 121.967a8.525 8.525 0 0 0 0 12.066l68.267 68.267a8.51 8.51 0 0 0 6.033 2.5 8.509 8.509 0 0 0 6.033-2.5 8.523 8.523 0 0 0 0-12.066l-68.267-68.267a8.523 8.523 0 0 0-12.066 0z" fill="rgba(255, 255, 255, 0.5)" stroke="none"/>
  <path d="M384 68.267H162.133c-4.71 0-8.533 3.823-8.533 8.533s3.823 8.533 8.533 8.533h213.333v384c0 12.442-13.158 25.6-25.6 25.6H162.133c-12.442 0-25.6-13.158-25.6-25.6v-42.667h213.333c4.71 0 8.533-3.823 8.533-8.533s-3.823-8.533-8.533-8.533H128a8.536 8.536 0 0 0-8.533 8.533v51.2c0 21.931 20.736 42.667 42.667 42.667h187.733c21.931 0 42.667-20.736 42.667-42.667V76.8c-.001-4.71-3.824-8.533-8.534-8.533z" fill="rgba(255, 255, 255, 0.5)" stroke="none"/>
</svg>
</g></svg></g></g>
<!-- /image 85475 -->
</defs><rect x="0" y="0" width="200" height="100" fill="rgba(0, 102, 204, 1)"></rect><use xlink:href="#transformed-29739" transform="translate(-200, -100)"></use><use xlink:href="#transformed-29739" transform="translate(0, -100)"></use><use xlink:href="#transformed-29739" transform="translate(200, -100)"></use><use xlink:href="#transformed-29739" transform="translate(-200, 0)"></use><use xlink:href="#transformed-29739" transform="translate(0, 0)"></use><use xlink:href="#transformed-29739" transform="translate(200, 0)"></use><use xlink:href="#transformed-29739" transform="translate(-200, 100)"></use><use xlink:href="#transformed-29739" transform="translate(0, 100)"></use><use xlink:href="#transformed-29739" transform="translate(200, 100)"></use><use xlink:href="#transformed-85475" transform="translate(-200, -100)"></use><use xlink:href="#transformed-85475" transform="translate(0, -100)"></use><use xlink:href="#transformed-85475" transform="translate(200, -100)"></use><use xlink:href="#transformed-85475" transform="translate(-200, 0)"></use><use xlink:href="#transformed-85475" transform="translate(0, 0)"></use><use xlink:href="#transformed-85475" transform="translate(200, 0)"></use><use xlink:href="#transformed-85475" transform="translate(-200, 100)"></use><use xlink:href="#transformed-85475" transform="translate(0, 100)"></use><use xlink:href="#transformed-85475" transform="translate(200, 100)"></use></svg>