<svg version="1.1"
      xmlns="http://www.w3.org/2000/svg"
      xmlns:xlink="http://www.w3.org/1999/xlink"  id="snapshot-61730" width="200" height="100" viewBox="0 0 200 100"><desc>This image was made on Patterninja.com</desc><defs>
<!-- image 71032 -->
<g id="transformed-71032" data-image="71032" transform="translate(-24.020824298928623, -24.020824298928627) rotate(0, 24.020824298928623, 24.020824298928627)"><g><svg version="1.1" width="48.04164859785725px" height="48.041648597857254px" viewBox="0 0 48.04164859785725 48.041648597857254"><g id="original-71032"><svg xmlns="http://www.w3.org/2000/svg" viewBox="0 0 512 512" xmlns:xlink="http://www.w3.org/1999/xlink" version="1.1" preserveAspectRatio="xMidYMid meet">
  <path d="M298.662 0H179.196c-23.526 0-42.667 19.14-42.667 42.667v307.2a8.53 8.53 0 0 0 8.533 8.533h51.2c4.719 0 8.533-3.823 8.533-8.533s-3.814-8.533-8.533-8.533h-42.667v-17.067h8.533c4.719 0 8.533-3.823 8.533-8.533s-3.814-8.533-8.533-8.533h-8.533v-17.067h8.533c4.719 0 8.533-3.823 8.533-8.533s-3.814-8.533-8.533-8.533h-8.533V256h8.533c4.719 0 8.533-3.823 8.533-8.533s-3.814-8.533-8.533-8.533h-8.533v-17.067h42.667a8.53 8.53 0 0 0 8.533-8.533 8.53 8.53 0 0 0-8.533-8.533h-42.667v-17.067h8.533c4.719 0 8.533-3.823 8.533-8.533s-3.814-8.533-8.533-8.533h-8.533V153.6h8.533a8.53 8.53 0 0 0 8.533-8.533 8.53 8.53 0 0 0-8.533-8.533h-8.533v-17.067h8.533c4.719 0 8.533-3.823 8.533-8.533s-3.814-8.533-8.533-8.533h-8.533V85.333h42.667c4.719 0 8.533-3.823 8.533-8.533s-3.814-8.533-8.533-8.533h-42.667v-25.6c0-14.114 11.486-25.6 25.6-25.6h119.467c14.114 0 25.6 11.486 25.6 25.6v426.667c0 14.114-11.486 25.6-25.6 25.6H179.196c-14.114 0-25.6-11.486-25.6-25.6V384a8.53 8.53 0 0 0-8.533-8.533A8.53 8.53 0 0 0 136.53 384v85.333c0 23.526 19.14 42.667 42.667 42.667h119.467c23.526 0 42.667-19.14 42.667-42.667V42.667C341.329 19.14 322.189 0 298.662 0z" fill="rgba(255, 255, 255, 0.5)" stroke="none"/>
  <path d="M34.138 110.925v307.2c0 4.71 3.814 8.533 8.533 8.533s8.533-3.823 8.533-8.533v-307.2c0-4.71-3.814-8.533-8.533-8.533s-8.533 3.822-8.533 8.533z" fill="rgba(255, 255, 255, 0.5)" stroke="none"/>
  <path d="M50.3 4.71c-2.893-5.786-12.365-5.786-15.266 0L.9 72.977a8.552 8.552 0 0 0-.896 3.814v392.533c0 23.526 19.14 42.667 42.667 42.667 23.526 0 42.667-19.14 42.667-42.667v-17.067a8.53 8.53 0 0 0-8.533-8.533H42.671a8.53 8.53 0 0 0-8.533 8.533 8.53 8.53 0 0 0 8.533 8.533h25.6v8.533c0 14.114-11.486 25.6-25.6 25.6s-25.6-11.486-25.6-25.6V78.805l25.6-51.2 20.326 40.653H42.671a8.53 8.53 0 0 0-8.533 8.533 8.53 8.53 0 0 0 8.533 8.533h25.6v332.8c0 4.71 3.814 8.533 8.533 8.533s8.533-3.823 8.533-8.533V76.655a8.605 8.605 0 0 0-.973-3.831L50.3 4.71z" fill="rgba(255, 255, 255, 0.5)" stroke="none"/>
  <path d="M273.062 426.667c0-18.825-15.309-34.133-34.133-34.133s-34.133 15.309-34.133 34.133 15.309 34.133 34.133 34.133 34.133-15.309 34.133-34.133zm-51.2 0c0-9.412 7.654-17.067 17.067-17.067 9.404 0 17.067 7.654 17.067 17.067s-7.663 17.067-17.067 17.067c-9.412-.001-17.067-7.655-17.067-17.067z" fill="rgba(255, 255, 255, 0.5)" stroke="none"/>
  <path d="M435.196 409.6c-4.719 0-8.533 3.823-8.533 8.533s3.814 8.533 8.533 8.533h68.267a8.53 8.53 0 0 0 8.533-8.533v-51.2c0-23.526-19.14-42.667-42.667-42.667h-34.133c-23.526 0-42.667 19.14-42.667 42.667v102.4c0 23.526 19.14 42.667 42.667 42.667h34.133c23.526 0 42.667-19.14 42.667-42.667v-17.067a8.53 8.53 0 0 0-8.533-8.533 8.53 8.53 0 0 0-8.533 8.533v17.067c0 14.114-11.486 25.6-25.6 25.6h-34.133c-14.114 0-25.6-11.486-25.6-25.6v-102.4c0-14.114 11.486-25.6 25.6-25.6h34.133c14.114 0 25.6 11.486 25.6 25.6V409.6h-59.734z" fill="rgba(255, 255, 255, 0.5)" stroke="none"/>
</svg>
</g></svg></g></g>
<!-- /image 71032 -->

<!-- image 86365 -->
<g id="transformed-86365" data-image="86365" transform="translate(80, 34) rotate(0, 23, 23)"><g><svg version="1.1" width="46px" height="46px" viewBox="0 0 46 46"><g id="original-86365"><svg xmlns="http://www.w3.org/2000/svg" viewBox="0 0 512 512" xmlns:xlink="http://www.w3.org/1999/xlink" version="1.1" preserveAspectRatio="xMidYMid meet">
  <path d="M375.451 315.733a8.536 8.536 0 0 0-8.533-8.533h-51.2c-4.71 0-8.533 3.823-8.533 8.533s3.823 8.533 8.533 8.533h51.2c4.71.001 8.533-3.822 8.533-8.533z" fill="rgba(255, 255, 255, 0.5)" stroke="none"/>
  <path d="M341.317 93.867V51.2c0-4.71-3.823-8.533-8.533-8.533s-8.533 3.823-8.533 8.533v42.667c0 23.526 19.14 42.667 42.667 42.667h76.8v162.133c0 4.71 3.823 8.533 8.533 8.533s8.533-3.823 8.533-8.533V128a8.536 8.536 0 0 0-8.533-8.533h-85.333c-14.115 0-25.601-11.486-25.601-25.6z" fill="rgba(255, 255, 255, 0.5)" stroke="none"/>
  <path d="M366.917 204.8H298.65a8.536 8.536 0 0 0-8.533 8.533 8.536 8.536 0 0 0 8.533 8.533h68.267a8.536 8.536 0 0 0 8.533-8.533c.001-4.71-3.822-8.533-8.533-8.533z" fill="rgba(255, 255, 255, 0.5)" stroke="none"/>
  <path d="M273.051 213.333a8.536 8.536 0 0 0-8.533-8.533h-51.2a8.536 8.536 0 0 0-8.533 8.533 8.536 8.536 0 0 0 8.533 8.533h51.2c4.71.001 8.533-3.822 8.533-8.533z" fill="rgba(255, 255, 255, 0.5)" stroke="none"/>
  <path d="M213.317 256a8.536 8.536 0 0 0-8.533 8.533 8.536 8.536 0 0 0 8.533 8.533h17.067a8.536 8.536 0 0 0 8.533-8.533 8.536 8.536 0 0 0-8.533-8.533h-17.067z" fill="rgba(255, 255, 255, 0.5)" stroke="none"/>
  <path d="M213.317 170.667h85.333a8.536 8.536 0 0 0 8.533-8.533 8.536 8.536 0 0 0-8.533-8.533h-85.333a8.536 8.536 0 0 0-8.533 8.533 8.536 8.536 0 0 0 8.533 8.533z" fill="rgba(255, 255, 255, 0.5)" stroke="none"/>
  <path d="M264.517 273.067h85.333a8.536 8.536 0 0 0 8.533-8.533 8.536 8.536 0 0 0-8.533-8.533h-85.333a8.536 8.536 0 0 0-8.533 8.533 8.536 8.536 0 0 0 8.533 8.533z" fill="rgba(255, 255, 255, 0.5)" stroke="none"/>
  <path d="M315.717 358.4c-4.71 0-8.533 3.823-8.533 8.533s3.823 8.533 8.533 8.533h17.067c4.71 0 8.533-3.823 8.533-8.533s-3.823-8.533-8.533-8.533h-17.067z" fill="rgba(255, 255, 255, 0.5)" stroke="none"/>
  <path d="M281.584 307.2h-68.267c-4.71 0-8.533 3.823-8.533 8.533s3.823 8.533 8.533 8.533h68.267c4.71 0 8.533-3.823 8.533-8.533s-3.823-8.533-8.533-8.533z" fill="rgba(255, 255, 255, 0.5)" stroke="none"/>
  <path d="M281.584 358.4h-68.267c-4.71 0-8.533 3.823-8.533 8.533s3.823 8.533 8.533 8.533h68.267c4.71 0 8.533-3.823 8.533-8.533s-3.823-8.533-8.533-8.533z" fill="rgba(255, 255, 255, 0.5)" stroke="none"/>
  <path d="M484.754 351.497l-17.067-17.067c-13.116-13.116-33.101-13.09-46.199 0L309.684 446.234a8.546 8.546 0 0 0-2.5 6.033v51.2a8.536 8.536 0 0 0 8.533 8.533h51.2a8.546 8.546 0 0 0 6.033-2.5l111.804-111.804c13.594-13.594 13.594-32.597 0-46.199zm-74.3 18.099l13.534 13.534-74.138 74.138-13.534-13.534 74.138-74.138zm-86.203 125.337v-39.134l39.134 39.134h-39.134zm51.2-12.066l-13.534-13.534 74.138-74.138 13.534 13.534-74.138 74.138zm97.237-97.237l-11.034 11.034-39.134-39.134 11.034-11.034c6.741-6.733 15.292-6.767 22.067 0l17.067 17.067c6.903 6.912 6.903 15.163 0 22.067z" fill="rgba(255, 255, 255, 0.5)" stroke="none"/>
  <path d="M281.584 494.933H59.717c-14.114 0-25.6-11.486-25.6-25.6V42.667c0-14.114 11.486-25.6 25.6-25.6h269.534L412.084 99.9a8.523 8.523 0 0 0 12.066 0 8.523 8.523 0 0 0 0-12.066L338.817 2.5a8.513 8.513 0 0 0-6.033-2.5H59.717C36.191 0 17.051 19.14 17.051 42.667v426.667c0 23.526 19.14 42.667 42.667 42.667h221.867c4.71 0 8.533-3.823 8.533-8.533s-3.824-8.535-8.534-8.535z" fill="rgba(255, 255, 255, 0.5)" stroke="none"/>
  <path d="M281.584 409.6h-68.267c-4.71 0-8.533 3.823-8.533 8.533s3.823 8.533 8.533 8.533h68.267c4.71 0 8.533-3.823 8.533-8.533s-3.823-8.533-8.533-8.533z" fill="rgba(255, 255, 255, 0.5)" stroke="none"/>
  <path d="M170.651 162.133a8.536 8.536 0 0 0-8.533-8.533h-51.2a8.536 8.536 0 0 0-8.533 8.533v51.2a8.536 8.536 0 0 0 8.533 8.533h51.2a8.536 8.536 0 0 0 8.533-8.533v-51.2zM153.584 204.8h-34.133v-34.133h34.133V204.8z" fill="rgba(255, 255, 255, 0.5)" stroke="none"/>
  <path d="M110.917 426.667h51.2a8.536 8.536 0 0 0 8.533-8.533v-51.2a8.536 8.536 0 0 0-8.533-8.533h-51.2a8.536 8.536 0 0 0-8.533 8.533v51.2a8.536 8.536 0 0 0 8.533 8.533zm8.534-51.2h34.133V409.6h-34.133v-34.133z" fill="rgba(255, 255, 255, 0.5)" stroke="none"/>
  <path d="M121.951 321.766a8.54 8.54 0 0 0 6.878 2.457 8.513 8.513 0 0 0 6.255-3.755l34.133-51.2c2.611-3.925 1.553-9.225-2.364-11.836a8.533 8.533 0 0 0-11.836 2.364l-28.356 42.539-9.711-9.702c-3.336-3.337-8.73-3.337-12.066 0s-3.337 8.73 0 12.066l17.067 17.067z" fill="rgba(255, 255, 255, 0.5)" stroke="none"/>
</svg>
</g></svg></g></g>
<!-- /image 86365 -->
</defs><rect x="0" y="0" width="200" height="100" fill="rgba(0, 102, 204, 1)"></rect><use xlink:href="#transformed-71032" transform="translate(-200, -100)"></use><use xlink:href="#transformed-71032" transform="translate(0, -100)"></use><use xlink:href="#transformed-71032" transform="translate(200, -100)"></use><use xlink:href="#transformed-71032" transform="translate(-200, 0)"></use><use xlink:href="#transformed-71032" transform="translate(0, 0)"></use><use xlink:href="#transformed-71032" transform="translate(200, 0)"></use><use xlink:href="#transformed-71032" transform="translate(-200, 100)"></use><use xlink:href="#transformed-71032" transform="translate(0, 100)"></use><use xlink:href="#transformed-71032" transform="translate(200, 100)"></use><use xlink:href="#transformed-86365" transform="translate(-200, -100)"></use><use xlink:href="#transformed-86365" transform="translate(0, -100)"></use><use xlink:href="#transformed-86365" transform="translate(200, -100)"></use><use xlink:href="#transformed-86365" transform="translate(-200, 0)"></use><use xlink:href="#transformed-86365" transform="translate(0, 0)"></use><use xlink:href="#transformed-86365" transform="translate(200, 0)"></use><use xlink:href="#transformed-86365" transform="translate(-200, 100)"></use><use xlink:href="#transformed-86365" transform="translate(0, 100)"></use><use xlink:href="#transformed-86365" transform="translate(200, 100)"></use></svg>