<?xml version="1.0" encoding="utf-8"?>
<!-- Generator: Adobe Illustrator 22.1.0, SVG Export Plug-In . SVG Version: 6.00 Build 0)  -->
<svg version="1.1" id="Livello_1" xmlns="http://www.w3.org/2000/svg" xmlns:xlink="http://www.w3.org/1999/xlink" x="0px" y="0px"
	 viewBox="0 0 81.3 48.5" style="enable-background:new 0 0 81.3 48.5;" xml:space="preserve">
<style type="text/css">
	.st0{fill:#003882;}
</style>
<title>Group 24 Copy</title>
<desc>Created with Sketch.</desc>
<g id="Templates">
	<g id="M_Menu" transform="translate(-26.000000, -59.000000)">
		<g id="Group-24-Copy" transform="translate(26.000000, 59.000000)">
			<g id="Cagliari_White-Copy-3">
				<path id="Shape" class="st0" d="M56.5,26.9c-0.2,16.3-12.9,18.8-15.8,18.8c-2.9,0-15.6-2.5-15.8-18.8c-0.2-14.1,12.4-13,12.4-13
					c1.2,0,2.4,0.3,3.4,0.8c1.1-0.5,2.3-0.7,3.5-0.8C44.1,13.9,56.7,12.8,56.5,26.9 M59,19.9c-2.3-1.5-10.5-6.2-8.1-7.4
					c1.2-0.7,2,2.1,2,2.1l2.4-3.5H26.1l2.3,3.5c0,0,0.7-2.8,2-2.1c2.4,1.3-5.8,5.9-8.1,7.4c-1.4,3.6,1.4,6.1,1.4,6.1
					c-1.5,1-2.2,2.9-1.8,4.6c0.7,3.1,2.9,3.7,2.9,3.7c-1.1,1.5-1,3.5,0.2,4.9c1.2,1.6,3.8,1.6,3.8,1.6c-0.3,1.5,0.4,3.1,1.7,3.9
					c2,1.3,4.1,0.2,4.1,0.2s1,2.2,2.9,2.4c1.1,0.2,2.3-0.2,3.1-1.1c0.8,0.8,1.9,1.2,3.1,1.1c1.9-0.2,2.9-2.4,2.9-2.4
					c1.3,0.6,2.8,0.5,4.1-0.2c1.4-0.8,2.1-2.4,1.7-3.9c0,0,2.6,0,3.8-1.6c1.2-1.4,1.3-3.4,0.2-4.9c0,0,2.2-0.4,2.9-3.7
					c0.7-3.2-1.8-4.6-1.8-4.6S60.4,23.5,59,19.9"/>
				<path id="Shape_1_" class="st0" d="M23.6,12.1l-1.9-1.3c-1.2,2-2.8,3.6-4.7,4.9v-0.6l-2.1,1.2l-0.1,0.7
					c-1.4,0.7-2.9,1.2-4.4,1.3l0.1,0.4c1.4-0.1,2.9-0.5,4.2-0.9l-0.1,0.3l-3.1,3.5l2.1,0.8l2.1-4.1l1.4-1.3V17
					C19.8,15.8,22.7,14.1,23.6,12.1"/>
				<path id="Shape_2_" class="st0" d="M3.6,17.8c0.5,1.3,1.7,2.1,3.1,2.1c0.2,0.3,0.7,0.6,1.3,0.7l2.1,0l-0.7-1.2l0.3-0.6l-0.3-0.3
					l0.3-0.3l-0.3-0.5l0.6-0.2c-0.2-0.3-0.5-0.7-0.7-1c-0.2-0.4-0.3-1-0.6-1.6c0.3,0.6,1.5-0.7,1.5-0.7c-0.6,0.1-2.4-0.4-2.8-0.5
					C2.3,13.1,3.6,17.8,3.6,17.8"/>
				<path id="Shape_3_" class="st0" d="M22.6,18.5L22.3,18l-1.8,0.7l-1.2,2.5l-5.5,1.7c0,0-1.8-0.4-3.8-1.1s-5.8-2-6.6,1.7
					c-0.5,3.4,6.3,7.7,5.4,9c-3.9,5.4,13.2,9.3,3.4,10.2c-7.6,0.7-6-8.1-6-8.1C-0.5,36.3,5.7,42,5.7,42c-8.1,0.2-4.6,5.8-4.6,5.8
					s2.2-5.3,9.4-3.4C27,48.8,20.1,38,15.7,34c-2-1.3-4.4-2.6-4.4-2.6c1,0.3,2,0.6,2.8,0.9c-0.1-3.4-0.9-5-1.8-6.1
					c-2.2-0.9-4.7-1.5-4.7-1.5c1.3,0.1,6.9,0.8,6.9,0.8l6-3.5l0.9-2.4L22.6,18.5z"/>
				<path id="Shape_4_" class="st0" d="M56.9,42.5c0,0,4.8-9.4,8-10.1C64.9,32.4,61.8,30.1,56.9,42.5"/>
				<path id="Shape_5_" class="st0" d="M59.9,35c0,0,3.8-5.8,5.6-5.7C65.5,29.3,63.5,26.9,59.9,35"/>
				<path id="Shape_6_" class="st0" d="M61.1,31.1c0,0,2.6-4.1,3.8-4.1C64.9,27,62.8,25.3,61.1,31.1"/>
				<path id="Shape_7_" class="st0" d="M61.3,28.5c0,0,1.2-3.2,2.1-3.4C63.4,25.1,61.4,24.3,61.3,28.5"/>
				<path id="Shape_8_" class="st0" d="M24.4,42.5c0,0-4.8-9.4-8-10.2C16.5,32.4,19.6,30.1,24.4,42.5"/>
				<path id="Shape_9_" class="st0" d="M21.5,35c0,0-3.8-5.8-5.6-5.7C15.8,29.3,17.9,26.9,21.5,35"/>
				<path id="Shape_10_" class="st0" d="M20.3,31.1c0,0-2.6-4.1-3.8-4.1C16.4,27,18.6,25.3,20.3,31.1"/>
				<path id="Shape_11_" class="st0" d="M20,28.5c0,0-1.2-3.2-2.1-3.4C18,25.1,20,24.3,20,28.5"/>
				<path id="Shape_12_" class="st0" d="M50.5,5.1l1.9-4.8C52,0.1,51.7,0,51.3,0c-1,0-2,0.9-1,2.2c-1.3-1.4-1.6,0-1.6,0.4
					C48.7,3.7,49.4,4.7,50.5,5.1"/>
				<path id="Shape_13_" class="st0" d="M48,4.1c0-0.5-0.4-0.9-0.9-0.9c-0.5,0-0.9,0.4-0.9,0.9S46.6,5,47.1,5C47.6,5,48,4.6,48,4.1"
					/>
				<path id="Shape_14_" class="st0" d="M46.8,2.2c0-0.4-0.2-0.7-0.5-0.8c-0.3-0.1-0.7-0.1-1,0.2c-0.3,0.3-0.3,0.6-0.2,1
					S45.6,3,45.9,3C46.4,3,46.8,2.6,46.8,2.2"/>
				<path id="Shape_15_" class="st0" d="M44.8,3.2c-0.4,0-0.7,0.2-0.8,0.6c-0.1,0.3-0.1,0.7,0.2,1c0.3,0.3,0.6,0.3,1,0.2
					c0.3-0.1,0.6-0.5,0.6-0.8C45.7,3.7,45.3,3.3,44.8,3.2"/>
				<path id="Shape_16_" class="st0" d="M43,2.6c0-0.5,0-1.2-1.5-0.6c1.3-1.3,0-2-1-2h-0.1c-1,0-2.3,0.7-1,2
					c-1.5-0.6-1.5,0.1-1.5,0.6c0,1.4,1.1,2.5,2.5,2.6h0.1C41.9,5.1,43,4,43,2.6"/>
				<path id="Shape_17_" class="st0" d="M37.1,4.1c0-0.5-0.4-0.9-0.9-0.9c-0.5,0-0.9,0.4-0.9,0.9S35.7,5,36.2,5
					C36.7,5,37.1,4.6,37.1,4.1"/>
				<path id="Shape_18_" class="st0" d="M35.9,2.2c0-0.5-0.4-0.9-0.9-0.9c-0.5,0-0.9,0.4-0.9,0.9C34.1,2.6,34.5,3,35,3
					c0.2,0,0.5-0.1,0.6-0.3C35.8,2.6,35.9,2.4,35.9,2.2"/>
				<path id="Shape_19_" class="st0" d="M33.9,3.2c-0.4,0-0.7,0.2-0.8,0.6c-0.1,0.3-0.1,0.7,0.2,1c0.3,0.3,0.6,0.3,1,0.2
					c0.3-0.1,0.6-0.5,0.6-0.8c0-0.2-0.1-0.5-0.3-0.6C34.4,3.3,34.2,3.2,33.9,3.2"/>
				<polygon id="Shape_20_" class="st0" points="32.1,9 48.8,9 49.9,6.2 31,6.2 				"/>
				<path id="Shape_21_" class="st0" d="M32.3,2.6c0-0.5-0.2-1.8-1.6-0.4c0.9-1.3,0-2.2-1-2.2c-0.4,0-0.8,0.1-1.1,0.3l1.9,4.8
					C31.6,4.7,32.3,3.7,32.3,2.6"/>
				<path id="Shape_22_" class="st0" d="M44.9,20.1h0.7v-0.7h-0.7V20.1z M49.7,19.4h-0.7v0.7h0.7V19.4z M36.6,32.4h-0.7v0.7h0.7
					V32.4z M31.7,33.1h0.7v-0.7h-0.7V33.1z M46.2,33.8h-5.1v-5.1h5.1V33.8z M40.6,28h-5.3v-5.2h5.3V28z M32.4,31.3h0.9v-1.8h1.5v1.8
					h1.1v-0.9h1.5v3.8h-2.6v-0.9c0,0,0,0,0,0c0-0.4-0.3-0.7-0.7-0.7s-0.7,0.3-0.7,0.7c0,0,0,0,0,0v0.9h-2.4v-3.8h1.5V31.3z
					 M29.5,36.8l1.4-1.9h6.5l1.1,1.3c-0.5,0-1.1,0.1-1.5,0.4c-0.9,0.4-1.9,0.4-2.8,0c0,0-1.2-0.8-2.8,0C30.8,36.9,30.1,37,29.5,36.8
					z M42.6,23.8l1.4-1.9h6.5l1.1,1.3c-0.5,0-1.1,0.1-1.5,0.4c-0.9,0.4-1.9,0.4-2.8,0c0,0-1.2-0.8-2.8,0
					C43.9,23.9,43.3,24,42.6,23.8L42.6,23.8z M50.6,21.3H48v-0.9c0,0,0,0,0,0c0-0.3-0.1-0.5-0.4-0.6c-0.2-0.1-0.5-0.1-0.7,0
					c-0.2,0.1-0.4,0.4-0.4,0.6c0,0,0,0,0,0v0.9h-2.4v-3.8h1.5v0.9h0.9v-1.8H48v1.8h1.1v-0.9h1.5L50.6,21.3L50.6,21.3z M53,26.3
					c0.5,0.2,1,0.3,1.6,0.3c0-0.3,0-0.5,0-0.8c-0.5,0-1.1-0.1-1.6-0.3c0,0-1.2-0.8-2.8,0c-0.9,0.4-1.9,0.4-2.8,0c0,0-1.2-0.8-2.8,0
					c-0.9,0.4-1.9,0.4-2.8,0c-0.2,0-0.4-0.1-0.5-0.2v-1.1c0.2,0.1,0.4,0.1,0.5,0.2c0.9,0.4,1.9,0.4,2.8,0c1.6-0.8,2.8,0,2.8,0
					c0.9,0.4,1.9,0.4,2.8,0c1.6-0.8,2.7,0,2.7,0c0.5,0.2,1,0.3,1.6,0.3c-1.3-11.4-10.6-10.3-13.8-8.4l0,0v4h-5.3v-5.1
					c-0.9,0-1.7,0.2-2.5,0.4v4.7H28c-0.4,0.8-0.6,1.7-0.9,2.5h5.6V28h-6.1c0,0.5,0,0.8,0.1,1.3c0.2,3.5,1.1,6.2,2.3,8.3
					c0.8,0.3,1.6,0.2,2.4-0.2c1.6-0.8,2.8,0,2.8,0c0.9,0.4,1.9,0.4,2.8,0c1.6-0.8,2.8,0,2.8,0s0.6,0.1,0.7,0.2v1.1
					c-0.1,0-0.7-0.2-0.7-0.2s-1.2-0.8-2.8,0c-0.9,0.4-1.9,0.4-2.8,0c0,0-1.2-0.8-2.8,0c-0.5,0.2-1,0.3-1.5,0.3
					c0.2,0.3,0.4,0.5,0.6,0.7c0.3,0,0.7-0.1,1-0.3c1.6-0.8,2.8,0,2.8,0c0.9,0.4,1.9,0.4,2.8,0c1.6-0.8,2.8,0,2.8,0s0.6,0.1,0.7,0.2
					v1.1c-0.2,0-0.3,0-0.5,0c-0.9-0.6-2.1-0.6-3-0.1c-0.3,0.2-0.6,0.3-1,0.3h-0.8c-0.4,0-0.7-0.1-1.1-0.3c0,0-1.2-0.8-2.8,0
					c0,0-0.1,0-0.1,0.1c2.5,2.4,5.9,3.8,9.4,4c0.2,0,0.3,0,0.5,0v-8h5.1v6.8c0.9-0.4,1.7-0.8,2.5-1.4v-5.4H53
					c0.4-0.8,0.7-1.7,0.9-2.5h-5.1v-5.1h5.8c0-0.4,0-0.7,0-1.1H54c-0.4,0-0.7-0.1-1-0.3c0,0-1.2-0.8-2.8,0c-0.3,0.2-0.6,0.3-1,0.3
					h-0.8c-0.4,0-0.7-0.1-1.1-0.3c0,0-1.2-0.8-2.8,0c-0.3,0.2-0.6,0.3-1,0.3h-0.8c-0.4,0-0.7-0.1-1-0.3c-0.2,0-0.4-0.1-0.5-0.2v-1.1
					c0.2,0.1,0.4,0.1,0.5,0.2c0.9,0.4,1.9,0.4,2.8,0c1.6-0.8,2.8,0,2.8,0c0.9,0.4,1.9,0.4,2.8,0C51.8,25.5,53,26.3,53,26.3L53,26.3z
					"/>
				<path id="Shape_23_" class="st0" d="M77.7,17.9c-0.5,1.3-1.7,2.1-3.1,2.1c-0.2,0.3-0.7,0.6-1.3,0.7l-2.1,0l0.7-1.2l-0.3-0.6
					l0.3-0.3l-0.3-0.3l0.3-0.5l-0.6-0.2c0.2-0.3,0.5-0.7,0.7-1c0.2-0.4,0.3-1,0.6-1.6c-0.3,0.6-1.5-0.7-1.5-0.7
					c0.6,0.1,2.4-0.4,2.8-0.5C79,13.2,77.8,17.9,77.7,17.9"/>
				<path id="Shape_24_" class="st0" d="M76.9,33.6l3.6-4.3c0,0-0.2-5.2-2.3-6.8c0.9,1.4-0.5,2.7-0.5,2.7c0.2-0.5,0.3-1,0.2-1.6
					c-0.8-3.7-4.5-2.4-6.6-1.8c-2.1,0.7-3.8,1.1-3.8,1.1L62,21.2l-1.2-2.5L59,18.1l-0.4,0.5l1.3,1.2l0.9,2.4l6,3.5
					c0,0,5.5-0.8,6.9-0.8c0,0-2.4,0.6-4.7,1.5c-0.9,1.1-1.7,2.7-1.8,6.1c0.7-0.3,1.8-0.6,2.8-0.9c0,0-2.4,1.3-4.4,2.6
					c-4.4,4-11.3,14.8,5.2,10.4c7.2-1.9,9.4,3.4,9.4,3.4s3.5-5.7-4.6-5.8c0,0,6.2-5.7-0.4-7.5c0,0,1.6,8.8-6,8.1
					c-9.8-0.9,7.3-4.8,3.4-10.2c-0.7-1,2.8-3.5,4.5-6.2l1.3,2.4l-2.4,3.6l-1.5,0.7L74,35.4c0.5,0.5,0.8-1.4,0.9-1.4l1.9,0.5l0.1-0.1
					L76.9,33.6z"/>
			</g>
		</g>
	</g>
</g>
</svg>
