<?xml version="1.0" encoding="utf-8"?>
<!-- Generator: Adobe Illustrator 22.1.0, SVG Export Plug-In . SVG Version: 6.00 Build 0)  -->
<svg version="1.1" xmlns="http://www.w3.org/2000/svg" xmlns:xlink="http://www.w3.org/1999/xlink" x="0px" y="0px"
	 viewBox="0 0 81 49.3" style="enable-background:new 0 0 81 49.3;" xml:space="preserve">
<style type="text/css">
	.st0{clip-path:url(#SVGID_2_);}
	.st1{clip-path:url(#SVGID_4_);fill:#FFFFFF;}
	.st2{clip-path:url(#SVGID_6_);}
	.st3{clip-path:url(#SVGID_8_);fill:#FFFFFF;}
	.st4{clip-path:url(#SVGID_10_);}
	.st5{clip-path:url(#SVGID_12_);fill:#FFFFFF;}
	.st6{clip-path:url(#SVGID_14_);}
	.st7{clip-path:url(#SVGID_16_);fill:#FFFFFF;}
	.st8{clip-path:url(#SVGID_18_);}
	.st9{clip-path:url(#SVGID_20_);fill:#FFFFFF;}
	.st10{clip-path:url(#SVGID_22_);}
	.st11{clip-path:url(#SVGID_24_);fill:#FFFFFF;}
	.st12{clip-path:url(#SVGID_26_);}
	.st13{clip-path:url(#SVGID_28_);fill:#FFFFFF;}
	.st14{clip-path:url(#SVGID_30_);}
	.st15{clip-path:url(#SVGID_32_);fill:#FFFFFF;}
	.st16{clip-path:url(#SVGID_34_);}
	.st17{clip-path:url(#SVGID_36_);fill:#FFFFFF;}
	.st18{clip-path:url(#SVGID_38_);}
	.st19{clip-path:url(#SVGID_40_);fill:#FFFFFF;}
	.st20{clip-path:url(#SVGID_42_);}
	.st21{clip-path:url(#SVGID_44_);fill:#FFFFFF;}
	.st22{clip-path:url(#SVGID_46_);}
	.st23{clip-path:url(#SVGID_48_);fill:#FFFFFF;}
	.st24{clip-path:url(#SVGID_50_);}
	.st25{clip-path:url(#SVGID_52_);fill:#FFFFFF;}
	.st26{clip-path:url(#SVGID_54_);}
	.st27{clip-path:url(#SVGID_56_);fill:#FFFFFF;}
	.st28{clip-path:url(#SVGID_58_);}
	.st29{clip-path:url(#SVGID_60_);fill:#FFFFFF;}
	.st30{clip-path:url(#SVGID_62_);}
	.st31{clip-path:url(#SVGID_64_);fill:#FFFFFF;}
	.st32{clip-path:url(#SVGID_66_);}
	.st33{clip-path:url(#SVGID_68_);fill:#FFFFFF;}
	.st34{clip-path:url(#SVGID_70_);}
	.st35{clip-path:url(#SVGID_72_);fill:#FFFFFF;}
	.st36{clip-path:url(#SVGID_74_);}
	.st37{clip-path:url(#SVGID_76_);fill:#FFFFFF;}
	.st38{clip-path:url(#SVGID_78_);}
	.st39{clip-path:url(#SVGID_80_);fill:#FFFFFF;}
	.st40{clip-path:url(#SVGID_82_);}
	.st41{clip-path:url(#SVGID_84_);fill:#FFFFFF;}
	.st42{clip-path:url(#SVGID_86_);}
	.st43{clip-path:url(#SVGID_88_);fill:#FFFFFF;}
	.st44{clip-path:url(#SVGID_90_);}
	.st45{clip-path:url(#SVGID_92_);fill:#FFFFFF;}
	.st46{clip-path:url(#SVGID_94_);}
	.st47{clip-path:url(#SVGID_96_);fill:#FFFFFF;}
	.st48{clip-path:url(#SVGID_98_);}
	.st49{clip-path:url(#SVGID_100_);fill:#FFFFFF;}
</style>
<g id="Livello_2">
</g>
<g id="Livello_1">
	<title>Tavola disegno 1</title>
	<g>
		<title>Tavola disegno 1</title>
		<g>
			<defs>
				<path id="SVGID_1_" d="M58.8,20.2c-2.3-1.5-10.3-6.1-8-7.4c1.2-0.7,2,2.1,2,2.1l2.3-3.5H26.4l2.3,3.5c0,0,0.7-2.8,2-2.1
					c2.3,1.3-5.7,5.8-8,7.4c-1.4,3.6,1.4,6.1,1.4,6.1c-1.5,1-2.2,2.8-1.8,4.6c0.7,3.1,2.9,3.6,2.9,3.6c-1.1,1.5-1,3.5,0.2,4.8
					c1.2,1.6,3.7,1.6,3.7,1.6c-0.3,1.5,0.4,3.1,1.7,3.9c2,1.2,4,0.2,4,0.2s1,2.2,2.9,2.4c1.1,0.2,2.2-0.2,3-1.1
					c0.8,0.8,1.9,1.2,3,1.1c1.9-0.2,2.9-2.4,2.9-2.4c1.3,0.6,2.8,0.5,4-0.2c1.3-0.8,2-2.3,1.7-3.9c0,0,2.6,0,3.7-1.6
					c1.2-1.4,1.2-3.4,0.2-4.8c0,0,2.2-0.4,2.9-3.6c0.7-3.2-1.7-4.6-1.7-4.6S60.2,23.8,58.8,20.2 M56.4,27.2
					c-0.2,16.1-12.7,18.6-15.6,18.6c-2.9,0-15.4-2.5-15.6-18.6c-0.2-13.9,12.2-12.9,12.2-12.9c1.2,0,2.3,0.3,3.4,0.8
					c1.1-0.5,2.2-0.7,3.4-0.8C44.1,14.3,56.5,13.2,56.4,27.2"/>
			</defs>
			<use xlink:href="#SVGID_1_"  style="overflow:visible;fill:#FFFFFF;"/>
			<clipPath id="SVGID_2_">
				<use xlink:href="#SVGID_1_"  style="overflow:visible;"/>
			</clipPath>
			<g class="st0">
				<defs>
					<rect id="SVGID_3_" x="-48.4" y="-78.5" width="1280" height="272"/>
				</defs>
				<use xlink:href="#SVGID_3_"  style="overflow:visible;fill:#FFFFFF;"/>
				<clipPath id="SVGID_4_">
					<use xlink:href="#SVGID_3_"  style="overflow:visible;"/>
				</clipPath>
				<rect x="17.1" y="6.5" class="st1" width="47.2" height="46"/>
			</g>
		</g>
		<g>
			<defs>
				<path id="SVGID_5_" d="M23.9,12.5L22,11.3c-1.2,1.9-2.8,3.6-4.6,4.9v-0.6l-2.1,1.2l-0.1,0.7c-1.4,0.7-2.9,1.2-4.4,1.3l0.1,0.4
					c1.4-0.1,2.8-0.5,4.2-0.9l-0.1,0.3l-3,3.5l2.1,0.8l2-4l1.3-1.2v-0.2C20.1,16.1,23,14.5,23.9,12.5"/>
			</defs>
			<use xlink:href="#SVGID_5_"  style="overflow:visible;fill:#FFFFFF;"/>
			<clipPath id="SVGID_6_">
				<use xlink:href="#SVGID_5_"  style="overflow:visible;"/>
			</clipPath>
			<g class="st2">
				<defs>
					<rect id="SVGID_7_" x="-48.4" y="-78.5" width="1280" height="272"/>
				</defs>
				<use xlink:href="#SVGID_7_"  style="overflow:visible;fill:#FFFFFF;"/>
				<clipPath id="SVGID_8_">
					<use xlink:href="#SVGID_7_"  style="overflow:visible;"/>
				</clipPath>
				<rect x="5.7" y="6.3" class="st3" width="23.2" height="21.5"/>
			</g>
		</g>
		<g>
			<defs>
				<path id="SVGID_9_" d="M4.1,18.2c0.5,1.3,1.7,2.1,3,2c0.2,0.3,0.7,0.6,1.3,0.7l2.1,0l-0.7-1.2l0.3-0.6l-0.3-0.3l0.3-0.3
					l-0.3-0.5l0.6-0.2c-0.2-0.3-0.5-0.7-0.6-1c-0.2-0.4-0.3-1-0.6-1.6c0.3,0.6,1.5-0.7,1.5-0.7c-0.6,0.1-2.3-0.4-2.7-0.5
					C2.8,13.5,4.1,18.2,4.1,18.2"/>
			</defs>
			<use xlink:href="#SVGID_9_"  style="overflow:visible;fill:#FFFFFF;"/>
			<clipPath id="SVGID_10_">
				<use xlink:href="#SVGID_9_"  style="overflow:visible;"/>
			</clipPath>
			<g class="st4">
				<defs>
					<rect id="SVGID_11_" x="-48.4" y="-78.5" width="1280" height="272"/>
				</defs>
				<use xlink:href="#SVGID_11_"  style="overflow:visible;fill:#FFFFFF;"/>
				<clipPath id="SVGID_12_">
					<use xlink:href="#SVGID_11_"  style="overflow:visible;"/>
				</clipPath>
				<rect x="-1" y="9" class="st5" width="16.6" height="16.9"/>
			</g>
		</g>
		<g>
			<defs>
				<path id="SVGID_13_" d="M22.9,18.8l-0.4-0.5L20.7,19l-1.2,2.4l-5.4,1.7c0,0-1.7-0.4-3.8-1.1c-2-0.7-5.7-2-6.5,1.7
					c-0.5,3.4,6.3,7.7,5.3,8.9c-3.9,5.3,13,9.2,3.3,10.1c-7.5,0.7-5.9-8.1-5.9-8.1c-6.5,1.7-0.4,7.4-0.4,7.4c-8,0.1-4.5,5.8-4.5,5.8
					s2.2-5.3,9.3-3.4c16.3,4.3,9.5-6.4,5.2-10.3c-2-1.3-4.4-2.6-4.4-2.6c1,0.3,2,0.6,2.7,0.8c-0.1-3.4-0.9-4.9-1.8-6
					C10.4,25.6,8,25,8,25c1.3,0.1,6.8,0.8,6.8,0.8l5.9-3.4l0.9-2.4L22.9,18.8z"/>
			</defs>
			<use xlink:href="#SVGID_13_"  style="overflow:visible;fill:#FFFFFF;"/>
			<clipPath id="SVGID_14_">
				<use xlink:href="#SVGID_13_"  style="overflow:visible;"/>
			</clipPath>
			<g class="st6">
				<defs>
					<rect id="SVGID_15_" x="-48.4" y="-78.5" width="1280" height="272"/>
				</defs>
				<use xlink:href="#SVGID_15_"  style="overflow:visible;fill:#FFFFFF;"/>
				<clipPath id="SVGID_16_">
					<use xlink:href="#SVGID_15_"  style="overflow:visible;"/>
				</clipPath>
				<rect x="-4.1" y="13.4" class="st7" width="32" height="39.6"/>
			</g>
		</g>
		<g>
			<defs>
				<path id="SVGID_17_" d="M56.8,42.6c0,0,4.7-9.3,7.9-10C64.7,32.6,61.6,30.3,56.8,42.6"/>
			</defs>
			<use xlink:href="#SVGID_17_"  style="overflow:visible;fill:#FFFFFF;"/>
			<clipPath id="SVGID_18_">
				<use xlink:href="#SVGID_17_"  style="overflow:visible;"/>
			</clipPath>
			<g class="st8">
				<defs>
					<rect id="SVGID_19_" x="-48.4" y="-78.5" width="1280" height="272"/>
				</defs>
				<use xlink:href="#SVGID_19_"  style="overflow:visible;fill:#FFFFFF;"/>
				<clipPath id="SVGID_20_">
					<use xlink:href="#SVGID_19_"  style="overflow:visible;"/>
				</clipPath>
				<rect x="51.8" y="27.4" class="st9" width="17.9" height="20.2"/>
			</g>
		</g>
		<g>
			<defs>
				<path id="SVGID_21_" d="M59.7,35.2c0,0,3.8-5.7,5.6-5.6C65.3,29.6,63.3,27.2,59.7,35.2"/>
			</defs>
			<use xlink:href="#SVGID_21_"  style="overflow:visible;fill:#FFFFFF;"/>
			<clipPath id="SVGID_22_">
				<use xlink:href="#SVGID_21_"  style="overflow:visible;"/>
			</clipPath>
			<g class="st10">
				<defs>
					<rect id="SVGID_23_" x="-48.4" y="-78.5" width="1280" height="272"/>
				</defs>
				<use xlink:href="#SVGID_23_"  style="overflow:visible;fill:#FFFFFF;"/>
				<clipPath id="SVGID_24_">
					<use xlink:href="#SVGID_23_"  style="overflow:visible;"/>
				</clipPath>
				<rect x="54.7" y="24.2" class="st11" width="15.6" height="15.9"/>
			</g>
		</g>
		<g>
			<defs>
				<path id="SVGID_25_" d="M60.9,31.3c0,0,2.6-4.1,3.8-4C64.7,27.3,62.5,25.5,60.9,31.3"/>
			</defs>
			<use xlink:href="#SVGID_25_"  style="overflow:visible;fill:#FFFFFF;"/>
			<clipPath id="SVGID_26_">
				<use xlink:href="#SVGID_25_"  style="overflow:visible;"/>
			</clipPath>
			<g class="st12">
				<defs>
					<rect id="SVGID_27_" x="-48.4" y="-78.5" width="1280" height="272"/>
				</defs>
				<use xlink:href="#SVGID_27_"  style="overflow:visible;fill:#FFFFFF;"/>
				<clipPath id="SVGID_28_">
					<use xlink:href="#SVGID_27_"  style="overflow:visible;"/>
				</clipPath>
				<rect x="55.9" y="22" class="st13" width="13.8" height="14.3"/>
			</g>
		</g>
		<g>
			<defs>
				<path id="SVGID_29_" d="M61.1,28.7c0,0,1.1-3.2,2.1-3.4C63.2,25.3,61.2,24.6,61.1,28.7"/>
			</defs>
			<use xlink:href="#SVGID_29_"  style="overflow:visible;fill:#FFFFFF;"/>
			<clipPath id="SVGID_30_">
				<use xlink:href="#SVGID_29_"  style="overflow:visible;"/>
			</clipPath>
			<g class="st14">
				<defs>
					<rect id="SVGID_31_" x="-48.4" y="-78.5" width="1280" height="272"/>
				</defs>
				<use xlink:href="#SVGID_31_"  style="overflow:visible;fill:#FFFFFF;"/>
				<clipPath id="SVGID_32_">
					<use xlink:href="#SVGID_31_"  style="overflow:visible;"/>
				</clipPath>
				<rect x="56.1" y="20.3" class="st15" width="12.1" height="13.4"/>
			</g>
		</g>
		<g>
			<defs>
				<path id="SVGID_33_" d="M24.7,42.6c0,0-4.7-9.3-7.9-10.1C16.8,32.6,19.9,30.3,24.7,42.6"/>
			</defs>
			<use xlink:href="#SVGID_33_"  style="overflow:visible;fill:#FFFFFF;"/>
			<clipPath id="SVGID_34_">
				<use xlink:href="#SVGID_33_"  style="overflow:visible;"/>
			</clipPath>
			<g class="st16">
				<defs>
					<rect id="SVGID_35_" x="-48.4" y="-78.5" width="1280" height="272"/>
				</defs>
				<use xlink:href="#SVGID_35_"  style="overflow:visible;fill:#FFFFFF;"/>
				<clipPath id="SVGID_36_">
					<use xlink:href="#SVGID_35_"  style="overflow:visible;"/>
				</clipPath>
				<rect x="11.8" y="27.4" class="st17" width="17.9" height="20.2"/>
			</g>
		</g>
		<g>
			<defs>
				<path id="SVGID_37_" d="M21.8,35.2c0,0-3.8-5.7-5.6-5.6C16.2,29.6,18.2,27.2,21.8,35.2"/>
			</defs>
			<use xlink:href="#SVGID_37_"  style="overflow:visible;fill:#FFFFFF;"/>
			<clipPath id="SVGID_38_">
				<use xlink:href="#SVGID_37_"  style="overflow:visible;"/>
			</clipPath>
			<g class="st18">
				<defs>
					<rect id="SVGID_39_" x="-48.4" y="-78.5" width="1280" height="272"/>
				</defs>
				<use xlink:href="#SVGID_39_"  style="overflow:visible;fill:#FFFFFF;"/>
				<clipPath id="SVGID_40_">
					<use xlink:href="#SVGID_39_"  style="overflow:visible;"/>
				</clipPath>
				<rect x="11.2" y="24.2" class="st19" width="15.6" height="15.9"/>
			</g>
		</g>
		<g>
			<defs>
				<path id="SVGID_41_" d="M20.6,31.3c0,0-2.6-4.1-3.8-4C16.8,27.3,18.9,25.5,20.6,31.3"/>
			</defs>
			<use xlink:href="#SVGID_41_"  style="overflow:visible;fill:#FFFFFF;"/>
			<clipPath id="SVGID_42_">
				<use xlink:href="#SVGID_41_"  style="overflow:visible;"/>
			</clipPath>
			<g class="st20">
				<defs>
					<rect id="SVGID_43_" x="-48.4" y="-78.5" width="1280" height="272"/>
				</defs>
				<use xlink:href="#SVGID_43_"  style="overflow:visible;fill:#FFFFFF;"/>
				<clipPath id="SVGID_44_">
					<use xlink:href="#SVGID_43_"  style="overflow:visible;"/>
				</clipPath>
				<rect x="11.8" y="22" class="st21" width="13.8" height="14.3"/>
			</g>
		</g>
		<g>
			<defs>
				<path id="SVGID_45_" d="M20.4,28.7c0,0-1.1-3.2-2.1-3.4C18.3,25.3,20.3,24.6,20.4,28.7"/>
			</defs>
			<use xlink:href="#SVGID_45_"  style="overflow:visible;fill:#FFFFFF;"/>
			<clipPath id="SVGID_46_">
				<use xlink:href="#SVGID_45_"  style="overflow:visible;"/>
			</clipPath>
			<g class="st22">
				<defs>
					<rect id="SVGID_47_" x="-48.4" y="-78.5" width="1280" height="272"/>
				</defs>
				<use xlink:href="#SVGID_47_"  style="overflow:visible;fill:#FFFFFF;"/>
				<clipPath id="SVGID_48_">
					<use xlink:href="#SVGID_47_"  style="overflow:visible;"/>
				</clipPath>
				<rect x="13.3" y="20.3" class="st23" width="12.1" height="13.4"/>
			</g>
		</g>
		<g>
			<defs>
				<path id="SVGID_49_" d="M50.4,5.5l1.9-4.7c-0.3-0.2-0.7-0.3-1.1-0.3c-1,0-1.9,0.9-1,2.2c-1.3-1.4-1.5,0-1.5,0.4
					C48.6,4.2,49.4,5.2,50.4,5.5"/>
			</defs>
			<use xlink:href="#SVGID_49_"  style="overflow:visible;fill:#FFFFFF;"/>
			<clipPath id="SVGID_50_">
				<use xlink:href="#SVGID_49_"  style="overflow:visible;"/>
			</clipPath>
			<g class="st24">
				<defs>
					<rect id="SVGID_51_" x="-48.4" y="-78.5" width="1280" height="272"/>
				</defs>
				<use xlink:href="#SVGID_51_"  style="overflow:visible;fill:#FFFFFF;"/>
				<clipPath id="SVGID_52_">
					<use xlink:href="#SVGID_51_"  style="overflow:visible;"/>
				</clipPath>
				<rect x="43.6" y="-4.5" class="st25" width="13.6" height="15"/>
			</g>
		</g>
		<g>
			<defs>
				<path id="SVGID_53_" d="M48,4.6c0-0.5-0.4-0.9-0.9-0.9c-0.5,0-0.9,0.4-0.9,0.9c0,0.5,0.4,0.9,0.9,0.9C47.6,5.5,48,5.1,48,4.6"/>
			</defs>
			<use xlink:href="#SVGID_53_"  style="overflow:visible;fill:#FFFFFF;"/>
			<clipPath id="SVGID_54_">
				<use xlink:href="#SVGID_53_"  style="overflow:visible;"/>
			</clipPath>
			<g class="st26">
				<defs>
					<rect id="SVGID_55_" x="-48.4" y="-78.5" width="1280" height="272"/>
				</defs>
				<use xlink:href="#SVGID_55_"  style="overflow:visible;fill:#FFFFFF;"/>
				<clipPath id="SVGID_56_">
					<use xlink:href="#SVGID_55_"  style="overflow:visible;"/>
				</clipPath>
				<rect x="41.2" y="-1.3" class="st27" width="11.8" height="11.8"/>
			</g>
		</g>
		<g>
			<defs>
				<path id="SVGID_57_" d="M46.8,2.6c0-0.4-0.2-0.7-0.5-0.8c-0.3-0.1-0.7-0.1-1,0.2c-0.3,0.3-0.3,0.6-0.2,1
					c0.1,0.3,0.5,0.5,0.8,0.5C46.4,3.5,46.8,3.1,46.8,2.6"/>
			</defs>
			<use xlink:href="#SVGID_57_"  style="overflow:visible;fill:#FFFFFF;"/>
			<clipPath id="SVGID_58_">
				<use xlink:href="#SVGID_57_"  style="overflow:visible;"/>
			</clipPath>
			<g class="st28">
				<defs>
					<rect id="SVGID_59_" x="-48.4" y="-78.5" width="1280" height="272"/>
				</defs>
				<use xlink:href="#SVGID_59_"  style="overflow:visible;fill:#FFFFFF;"/>
				<clipPath id="SVGID_60_">
					<use xlink:href="#SVGID_59_"  style="overflow:visible;"/>
				</clipPath>
				<rect x="40" y="-3.2" class="st29" width="11.8" height="11.8"/>
			</g>
		</g>
		<g>
			<defs>
				<path id="SVGID_61_" d="M44.8,3.7c-0.4,0-0.7,0.2-0.8,0.5c-0.1,0.3-0.1,0.7,0.2,1c0.3,0.3,0.6,0.3,1,0.2
					c0.3-0.1,0.5-0.5,0.5-0.8C45.7,4.1,45.3,3.7,44.8,3.7"/>
			</defs>
			<use xlink:href="#SVGID_61_"  style="overflow:visible;fill:#FFFFFF;"/>
			<clipPath id="SVGID_62_">
				<use xlink:href="#SVGID_61_"  style="overflow:visible;"/>
			</clipPath>
			<g class="st30">
				<defs>
					<rect id="SVGID_63_" x="-48.4" y="-78.5" width="1280" height="272"/>
				</defs>
				<use xlink:href="#SVGID_63_"  style="overflow:visible;fill:#FFFFFF;"/>
				<clipPath id="SVGID_64_">
					<use xlink:href="#SVGID_63_"  style="overflow:visible;"/>
				</clipPath>
				<rect x="38.9" y="-1.3" class="st31" width="11.8" height="11.8"/>
			</g>
		</g>
		<g>
			<defs>
				<path id="SVGID_65_" d="M43.1,3.1c0-0.5,0-1.2-1.5-0.6c1.3-1.2,0-1.9-1-2h-0.1c-0.9,0-2.2,0.7-1,2C38,1.9,38,2.6,38,3.1
					c0,1.4,1.1,2.5,2.5,2.6h0.1C42,5.6,43.1,4.5,43.1,3.1"/>
			</defs>
			<use xlink:href="#SVGID_65_"  style="overflow:visible;fill:#FFFFFF;"/>
			<clipPath id="SVGID_66_">
				<use xlink:href="#SVGID_65_"  style="overflow:visible;"/>
			</clipPath>
			<g class="st32">
				<defs>
					<rect id="SVGID_67_" x="-48.4" y="-78.5" width="1280" height="272"/>
				</defs>
				<use xlink:href="#SVGID_67_"  style="overflow:visible;fill:#FFFFFF;"/>
				<clipPath id="SVGID_68_">
					<use xlink:href="#SVGID_67_"  style="overflow:visible;"/>
				</clipPath>
				<rect x="33" y="-4.5" class="st33" width="15" height="15.1"/>
			</g>
		</g>
		<g>
			<defs>
				<path id="SVGID_69_" d="M37.2,4.6c0-0.5-0.4-0.9-0.9-0.9c-0.5,0-0.9,0.4-0.9,0.9c0,0.5,0.4,0.9,0.9,0.9
					C36.8,5.5,37.2,5.1,37.2,4.6"/>
			</defs>
			<use xlink:href="#SVGID_69_"  style="overflow:visible;fill:#FFFFFF;"/>
			<clipPath id="SVGID_70_">
				<use xlink:href="#SVGID_69_"  style="overflow:visible;"/>
			</clipPath>
			<g class="st34">
				<defs>
					<rect id="SVGID_71_" x="-48.4" y="-78.5" width="1280" height="272"/>
				</defs>
				<use xlink:href="#SVGID_71_"  style="overflow:visible;fill:#FFFFFF;"/>
				<clipPath id="SVGID_72_">
					<use xlink:href="#SVGID_71_"  style="overflow:visible;"/>
				</clipPath>
				<rect x="30.4" y="-1.3" class="st35" width="11.8" height="11.8"/>
			</g>
		</g>
		<g>
			<defs>
				<path id="SVGID_73_" d="M36,2.6c0-0.5-0.4-0.9-0.9-0.9c-0.5,0-0.9,0.4-0.9,0.9c0,0.5,0.4,0.9,0.9,0.9c0.2,0,0.5-0.1,0.6-0.3
					C35.9,3.1,36,2.9,36,2.6"/>
			</defs>
			<use xlink:href="#SVGID_73_"  style="overflow:visible;fill:#FFFFFF;"/>
			<clipPath id="SVGID_74_">
				<use xlink:href="#SVGID_73_"  style="overflow:visible;"/>
			</clipPath>
			<g class="st36">
				<defs>
					<rect id="SVGID_75_" x="-48.4" y="-78.5" width="1280" height="272"/>
				</defs>
				<use xlink:href="#SVGID_75_"  style="overflow:visible;fill:#FFFFFF;"/>
				<clipPath id="SVGID_76_">
					<use xlink:href="#SVGID_75_"  style="overflow:visible;"/>
				</clipPath>
				<rect x="29.3" y="-3.2" class="st37" width="11.8" height="11.8"/>
			</g>
		</g>
		<g>
			<defs>
				<path id="SVGID_77_" d="M34.1,3.7c-0.4,0-0.7,0.2-0.8,0.5c-0.1,0.3-0.1,0.7,0.2,1c0.3,0.3,0.6,0.3,1,0.2C34.7,5.3,35,5,35,4.6
					c0-0.2-0.1-0.5-0.3-0.6C34.5,3.8,34.3,3.7,34.1,3.7"/>
			</defs>
			<use xlink:href="#SVGID_77_"  style="overflow:visible;fill:#FFFFFF;"/>
			<clipPath id="SVGID_78_">
				<use xlink:href="#SVGID_77_"  style="overflow:visible;"/>
			</clipPath>
			<g class="st38">
				<defs>
					<rect id="SVGID_79_" x="-48.4" y="-78.5" width="1280" height="272"/>
				</defs>
				<use xlink:href="#SVGID_79_"  style="overflow:visible;fill:#FFFFFF;"/>
				<clipPath id="SVGID_80_">
					<use xlink:href="#SVGID_79_"  style="overflow:visible;"/>
				</clipPath>
				<rect x="28.2" y="-1.3" class="st39" width="11.8" height="11.8"/>
			</g>
		</g>
		<g>
			<defs>
				<polygon id="SVGID_81_" points="32.3,9.4 48.7,9.4 49.8,6.6 31.2,6.6 				"/>
			</defs>
			<use xlink:href="#SVGID_81_"  style="overflow:visible;fill:#FFFFFF;"/>
			<clipPath id="SVGID_82_">
				<use xlink:href="#SVGID_81_"  style="overflow:visible;"/>
			</clipPath>
			<g class="st40">
				<defs>
					<rect id="SVGID_83_" x="-48.4" y="-78.5" width="1280" height="272"/>
				</defs>
				<use xlink:href="#SVGID_83_"  style="overflow:visible;fill:#FFFFFF;"/>
				<clipPath id="SVGID_84_">
					<use xlink:href="#SVGID_83_"  style="overflow:visible;"/>
				</clipPath>
				<rect x="26.2" y="1.6" class="st41" width="28.6" height="12.8"/>
			</g>
		</g>
		<g>
			<defs>
				<path id="SVGID_85_" d="M32.5,3.1c0-0.4-0.2-1.8-1.5-0.4c0.9-1.3,0-2.2-1-2.2c-0.4,0-0.8,0.1-1.1,0.3l1.9,4.7
					C31.7,5.2,32.5,4.2,32.5,3.1"/>
			</defs>
			<use xlink:href="#SVGID_85_"  style="overflow:visible;fill:#FFFFFF;"/>
			<clipPath id="SVGID_86_">
				<use xlink:href="#SVGID_85_"  style="overflow:visible;"/>
			</clipPath>
			<g class="st42">
				<defs>
					<rect id="SVGID_87_" x="-48.4" y="-78.5" width="1280" height="272"/>
				</defs>
				<use xlink:href="#SVGID_87_"  style="overflow:visible;fill:#FFFFFF;"/>
				<clipPath id="SVGID_88_">
					<use xlink:href="#SVGID_87_"  style="overflow:visible;"/>
				</clipPath>
				<rect x="23.8" y="-4.5" class="st43" width="13.6" height="15"/>
			</g>
		</g>
		<g>
			<defs>
				<path id="SVGID_89_" d="M52.9,26.5c0.5,0.2,1,0.3,1.6,0.3c0-0.3,0-0.5,0-0.8c-0.5,0-1-0.1-1.5-0.3c0,0-1.2-0.8-2.8,0
					c-0.9,0.4-1.9,0.4-2.8,0c0,0-1.2-0.8-2.8,0c-0.9,0.4-1.9,0.4-2.8,0c-0.2,0-0.4-0.1-0.5-0.2v-1.1c0.2,0.1,0.4,0.1,0.5,0.2
					c0.9,0.4,1.9,0.4,2.8,0c1.6-0.8,2.8,0,2.8,0c0.9,0.4,1.9,0.4,2.8,0c1.6-0.8,2.7,0,2.7,0c0.5,0.2,1,0.3,1.6,0.3
					c-1.3-11.3-10.5-10.2-13.6-8.3l0,0v3.9h-5.2v-5.1c-0.9,0-1.7,0.2-2.5,0.4v4.7h-4.7c-0.4,0.8-0.6,1.7-0.8,2.5h5.6v5.1h-6
					c0,0.5,0,0.7,0.1,1.3c0.2,3.5,1.1,6.1,2.3,8.2c0.8,0.2,1.6,0.2,2.3-0.2c1.6-0.8,2.8,0,2.8,0c0.9,0.4,1.9,0.4,2.8,0
					c1.6-0.8,2.8,0,2.8,0s0.6,0.1,0.7,0.2v1.1c-0.1,0-0.7-0.2-0.7-0.2s-1.2-0.8-2.8,0c-0.9,0.4-1.9,0.4-2.8,0c0,0-1.2-0.8-2.8,0
					c-0.5,0.2-1,0.3-1.5,0.3c0.2,0.3,0.4,0.5,0.6,0.7c0.3,0,0.7-0.1,0.9-0.3c1.6-0.8,2.8,0,2.8,0c0.9,0.4,1.9,0.4,2.8,0
					c1.6-0.8,2.8,0,2.8,0s0.6,0.1,0.7,0.2v1.1c-0.1,0-0.3,0-0.4,0c-0.9-0.5-2-0.6-3-0.1c-0.3,0.2-0.6,0.3-1,0.3h-0.8
					c-0.4,0-0.7-0.1-1-0.3c0,0-1.2-0.8-2.8,0c0,0-0.1,0-0.1,0.1c2.5,2.4,5.8,3.8,9.2,3.9c0.2,0,0.3,0,0.5,0v-7.9h5v6.7
					c0.9-0.4,1.7-0.8,2.5-1.3v-5.4h4.2c0.4-0.8,0.7-1.7,0.9-2.5h-5.1v-5h5.7c0-0.4,0-0.7,0-1h-0.5c-0.4,0-0.7-0.1-1-0.3
					c0,0-1.2-0.8-2.8,0c-0.3,0.2-0.6,0.3-1,0.3h-0.8c-0.4,0-0.7-0.1-1-0.3c0,0-1.2-0.8-2.8,0c-0.3,0.2-0.6,0.3-1,0.3h-0.8
					c-0.4,0-0.7-0.1-1-0.3c-0.2,0-0.4-0.1-0.5-0.2v-1.1c0.2,0.1,0.4,0.1,0.5,0.2c0.9,0.4,1.9,0.4,2.8,0c1.6-0.8,2.8,0,2.8,0
					c0.9,0.4,1.9,0.4,2.8,0C51.7,25.7,52.9,26.5,52.9,26.5L52.9,26.5z M50.5,21.6h-2.6v-0.9c0,0,0,0,0,0c0-0.3-0.1-0.5-0.4-0.6
					c-0.2-0.1-0.5-0.1-0.7,0c-0.2,0.1-0.4,0.4-0.4,0.6c0,0,0,0,0,0v0.9h-2.4v-3.8h1.5v0.9h0.9v-1.8H48v1.8H49v-0.9h1.5L50.5,21.6
					L50.5,21.6z M42.6,24.1l1.4-1.9h6.4l1.1,1.2c-0.5,0-1,0.1-1.5,0.4c-0.9,0.4-1.9,0.4-2.8,0c0,0-1.2-0.8-2.8,0
					C43.9,24.1,43.3,24.2,42.6,24.1L42.6,24.1z M29.7,37l1.4-1.9h6.4l1.1,1.2c-0.5,0-1,0.1-1.5,0.4c-0.9,0.4-1.9,0.4-2.8,0
					c0,0-1.2-0.8-2.8,0C31,37,30.3,37.1,29.7,37z M32.6,31.6h0.9v-1.8H35v1.8H36v-0.9h1.5v3.8H35v-0.9c0,0,0,0,0,0
					c0-0.4-0.3-0.7-0.7-0.7c-0.4,0-0.7,0.3-0.7,0.7c0,0,0,0,0,0v0.9h-2.4v-3.8h1.5V31.6z M40.7,28.3h-5.2v-5.1h5.2V28.3z M46.2,34
					h-5V29h5V34z M31.9,33.3h0.7v-0.7h-0.7V33.3z M36.7,32.6H36v0.7h0.7V32.6z M49.7,19.7H49v0.7h0.7V19.7z M44.9,20.4h0.7v-0.7
					h-0.7V20.4z"/>
			</defs>
			<use xlink:href="#SVGID_89_"  style="overflow:visible;fill:#FFFFFF;"/>
			<clipPath id="SVGID_90_">
				<use xlink:href="#SVGID_89_"  style="overflow:visible;"/>
			</clipPath>
			<g class="st44">
				<defs>
					<rect id="SVGID_91_" x="-48.4" y="-78.5" width="1280" height="272"/>
				</defs>
				<use xlink:href="#SVGID_91_"  style="overflow:visible;fill:#FFFFFF;"/>
				<clipPath id="SVGID_92_">
					<use xlink:href="#SVGID_91_"  style="overflow:visible;"/>
				</clipPath>
				<rect x="21.9" y="10.5" class="st45" width="37.5" height="39"/>
			</g>
		</g>
		<g>
			<defs>
				<path id="SVGID_93_" d="M77.3,18.2c-0.5,1.3-1.7,2.1-3,2c-0.2,0.3-0.7,0.6-1.3,0.7l-2.1,0l0.7-1.2l-0.3-0.5l0.3-0.3l-0.3-0.3
					l0.3-0.5l-0.6-0.2c0.2-0.3,0.5-0.7,0.6-1c0.2-0.4,0.3-1,0.6-1.6c-0.3,0.6-1.5-0.7-1.5-0.7c0.6,0.1,2.3-0.4,2.7-0.5
					C78.6,13.6,77.3,18.2,77.3,18.2"/>
			</defs>
			<use xlink:href="#SVGID_93_"  style="overflow:visible;fill:#FFFFFF;"/>
			<clipPath id="SVGID_94_">
				<use xlink:href="#SVGID_93_"  style="overflow:visible;"/>
			</clipPath>
			<g class="st46">
				<defs>
					<rect id="SVGID_95_" x="-48.4" y="-78.5" width="1280" height="272"/>
				</defs>
				<use xlink:href="#SVGID_95_"  style="overflow:visible;fill:#FFFFFF;"/>
				<clipPath id="SVGID_96_">
					<use xlink:href="#SVGID_95_"  style="overflow:visible;"/>
				</clipPath>
				<rect x="65.9" y="9.1" class="st47" width="16.6" height="16.9"/>
			</g>
		</g>
		<g>
			<defs>
				<path id="SVGID_97_" d="M76.5,33.8l3.6-4.2c0,0-0.2-5.2-2.3-6.7c0.9,1.4-0.5,2.6-0.5,2.6c0.2-0.5,0.3-1,0.2-1.6
					c-0.8-3.7-4.5-2.4-6.5-1.8s-3.8,1.1-3.8,1.1l-5.4-1.7l-1.2-2.4l-1.8-0.7l-0.4,0.5l1.3,1.2l0.9,2.4l5.9,3.4c0,0,5.5-0.7,6.8-0.8
					c0,0-2.4,0.6-4.6,1.5c-0.9,1.1-1.7,2.6-1.8,6c0.7-0.3,1.8-0.6,2.7-0.8c0,0-2.4,1.2-4.4,2.6c-4.4,3.9-11.1,14.6,5.2,10.3
					c7.1-1.9,9.3,3.4,9.3,3.4s3.4-5.6-4.5-5.8c0,0,6.1-5.7-0.4-7.4c0,0,1.6,8.7-5.9,8.1c-9.7-0.9,7.2-4.8,3.3-10.1
					c-0.7-0.9,2.8-3.5,4.5-6.1l1.2,2.4l-2.4,3.5L74,33.3l-0.3,2.3c0.5,0.5,0.8-1.4,0.9-1.4l1.9,0.5l0.1-0.1L76.5,33.8z"/>
			</defs>
			<use xlink:href="#SVGID_97_"  style="overflow:visible;fill:#FFFFFF;"/>
			<clipPath id="SVGID_98_">
				<use xlink:href="#SVGID_97_"  style="overflow:visible;"/>
			</clipPath>
			<g class="st48">
				<defs>
					<rect id="SVGID_99_" x="-48.4" y="-78.5" width="1280" height="272"/>
				</defs>
				<use xlink:href="#SVGID_99_"  style="overflow:visible;fill:#FFFFFF;"/>
				<clipPath id="SVGID_100_">
					<use xlink:href="#SVGID_99_"  style="overflow:visible;"/>
				</clipPath>
				<rect x="53.5" y="13.4" class="st49" width="32" height="39.6"/>
			</g>
		</g>
	</g>
</g>
</svg>
