<?xml version="1.0" encoding="UTF-8"?>
<svg width="72px" height="36px" viewBox="0 0 72 36" version="1.1" xmlns="http://www.w3.org/2000/svg" xmlns:xlink="http://www.w3.org/1999/xlink">
    <!-- Generator: Sketch 52.3 (67297) - http://www.bohemiancoding.com/sketch -->
    <title>Group 3</title>
    <desc>Created with Sketch.</desc>
    <g id="SPID" stroke="none" stroke-width="1" fill="none" fill-rule="evenodd">
        <g id="M-|-Scegli-provider" transform="translate(-24.000000, -93.000000)" fill="#0064D3">
            <g id="Group-3" transform="translate(24.000000, 93.000000)">
                <path d="M14.8853706,12.9011831 C11.6886713,12.4864225 9.45314685,12.2780282 8.17728671,12.2780282 C6.90092308,12.2780282 6.07569231,12.3946479 5.7026014,12.6283944 C5.32900699,12.8626479 5.14220979,13.2322817 5.14220979,13.7383099 C5.14220979,14.244338 5.39345455,14.5947042 5.89594406,14.7894085 C6.39893706,14.9841127 7.68688112,15.2700845 9.76229371,15.6463099 C11.8366993,16.0225352 13.312951,16.6390986 14.189035,17.495493 C15.0656224,18.3523944 15.5041678,19.7416901 15.5041678,21.6618592 C15.5041678,25.8672676 12.9131748,27.9694648 7.7326993,27.9694648 C6.03088112,27.9694648 3.96906294,27.7357183 1.54623776,27.2687324 L0.308643357,27.0349859 L0.46372028,22.6739155 C3.65941259,23.0896901 5.88285315,23.2970704 7.13353846,23.2970704 C8.38321678,23.2970704 9.23362238,23.1738592 9.68525874,22.9274366 C10.1353846,22.6810141 10.3614545,22.3108732 10.3614545,21.8175211 C10.3614545,21.324169 10.1233007,20.9611268 9.64648951,20.7273803 C9.16917483,20.4931268 7.93208392,20.2086761 5.93471329,19.8704789 C3.93683916,19.5338028 2.448,18.9623662 1.4686993,18.1576901 C0.488895105,17.3535211 6.03961325e-14,15.9190986 6.03961325e-14,13.8554366 C6.03961325e-14,11.7912676 0.695832168,10.2336338 2.088,9.18304225 C3.47916084,8.13092958 5.2706014,7.6056338 7.46181818,7.6056338 C8.98237762,7.6056338 11.0572867,7.85307042 13.6865455,8.34540845 L14.9629091,8.57915493 L14.8853706,12.9011831" id="Fill-1"></path>
                <path d="M19.1328671,35.7180845 L19.1328671,8.07312676 L24.2750769,8.07312676 L24.2750769,9.12473239 C25.9502098,8.11166197 27.4194126,7.6056338 28.6826853,7.6056338 C31.2857622,7.6056338 33.2060979,8.3915493 34.4436923,9.96185915 C35.6807832,11.532169 36.2995804,14.1997183 36.2995804,17.9629859 C36.2995804,21.7272676 35.6163357,24.3420845 34.2503497,25.8089577 C32.8838601,27.275831 30.6412867,28.008507 27.5226294,28.008507 C26.6722238,28.008507 25.7573706,27.9309296 24.7775664,27.7747606 L24.3138462,27.6966761 L24.3138462,35.7180845 L19.1328671,35.7180845 Z M27.6772028,12.2780282 C26.7235804,12.2780282 25.7573706,12.4727324 24.7775664,12.8621408 L24.3138462,13.0568451 L24.3138462,23.2585352 C25.4739021,23.4141972 26.4144336,23.4922817 27.1359441,23.4922817 C28.6308252,23.4922817 29.6559441,23.0511549 30.2097902,22.1683944 C30.7636364,21.2861408 31.0415664,19.7807324 31.0415664,17.6511549 C31.0415664,14.0694085 29.9202797,12.2780282 27.6772028,12.2780282 Z" id="Fill-2"></path>
                <path d="M71.7381818,-2.84217094e-14 L71.7381818,27.2555493 L66.5954685,27.2555493 L66.5954685,26.4376901 C64.7914406,27.2940845 63.2316084,27.7230423 61.9174825,27.7230423 C59.1074685,27.7230423 57.1488671,26.9046761 56.0406713,25.2699718 C54.9324755,23.6342535 54.3776224,21.0452958 54.3776224,17.5020845 C54.3776224,13.9588732 55.0412308,11.376 56.368951,9.75346479 C57.6966713,8.13194366 59.7000839,7.32016901 62.3812028,7.32016901 C63.2059301,7.32016901 64.3533986,7.45047887 65.8226014,7.70907042 L66.5572028,7.86523944 L66.5572028,-2.84217094e-14 L71.7381818,-2.84217094e-14 Z M66.0159441,22.5831549 L66.5572028,22.4665352 L66.5572028,12.2263099 C65.1388531,11.9667042 63.8760839,11.8369014 62.7678881,11.8369014 C60.6803916,11.8369014 59.6361399,13.7058592 59.6361399,17.4437746 C59.6361399,19.4678873 59.8682517,20.9089014 60.331972,21.7652958 C60.7961958,22.6221972 61.563021,23.0506479 62.6324476,23.0506479 C63.7018741,23.0506479 64.8302098,22.8949859 66.0159441,22.5831549 Z" id="Fill-3"></path>
                <path d="M45.7612867,19.3857465 C44.1682238,19.3857465 42.8571189,18.8437183 41.8254545,17.7571268 C40.7937902,16.6730704 40.2797203,15.3263662 40.2797203,13.7190423 C40.2797203,12.1101972 40.7937902,10.7751549 41.8158881,9.70985915 C42.8405035,8.64507042 44.1516084,8.11267606 45.7497063,8.11267606 C47.3452867,8.11267606 48.6448112,8.65723944 49.6407273,9.74890141 C50.6386573,10.8420845 51.1391329,12.1862535 51.1391329,13.788507 C51.1391329,15.3907606 50.6386573,16.7227606 49.6407273,17.7880563 C48.6448112,18.8533521 47.3498182,19.3857465 45.7612867,19.3857465" id="Fill-4"></path>
                <path d="M40.2797203,26.9021408 C40.2797203,25.2927887 40.7942937,23.9582535 41.8163916,22.8929577 C42.8405035,21.828169 44.1516084,21.2957746 45.7497063,21.2957746 C47.3457902,21.2957746 48.6448112,21.839831 49.6407273,22.9309859 C50.6386573,24.0246761 51.1396364,25.3693521 51.1396364,26.9716056" id="Fill-5"></path>
            </g>
        </g>
    </g>
</svg>